<svg version="1" xmlns="http://www.w3.org/2000/svg" xmlns:xlink="http://www.w3.org/1999/xlink" viewBox="0 0 80 80"><defs><circle id="a" cx="40" cy="40" r="38.7"/></defs><clipPath id="b"><use xlink:href="#a" overflow="visible"/></clipPath><g clip-path="url(#b)"><defs><path id="c" d="M-32.7-2.2H112v84.4H-32.7z"/></defs><clipPath id="d"><use xlink:href="#c" overflow="visible"/></clipPath><path clip-path="url(#d)" fill="#FFF" d="M-32.7-2.2H112v84.4H-32.7z"/><path clip-path="url(#d)" fill="#BD0034" d="M64.2 28.3L112 1.6v-3.8h-3.3L54.2 28.3zm-2.3 25.1l50.1 28v-5.6L71.9 53.4zM-32.7 4.2l42.9 24.1h10L-32.7-1.4zm50.6 49.2l-50.6 28.3v.5h9.2l51.4-28.8z"/><path clip-path="url(#d)" fill="#1A237B" d="M102.1-2.2H51.4v28.4zm-73 0h-50.5l50.5 28.4zM112 28.3V9L77.6 28.3zm0 44.2V53.4H77.6zm-130.5 9.7h47.6V55.5zm69.9 0h47.8L51.4 55.5zm-84.1-28.8v20l35.6-20zm0-25.1H2.9l-35.6-20z"/><path clip-path="url(#d)" fill="#BD0034" d="M33.6-2.2v35.5h-66.3v15.1h66.3v33.8H47V48.4h65V33.3H47V-2.2z"/></g></svg>