<svg version="1" xmlns="http://www.w3.org/2000/svg" xmlns:xlink="http://www.w3.org/1999/xlink" viewBox="0 0 80 80"><defs><circle id="a" cx="40" cy="40" r="38.7"/></defs><clipPath id="b"><use xlink:href="#a" overflow="visible"/></clipPath><g clip-path="url(#b)"><defs><path id="c" d="M-16.2 7.2H96.1v65.5H-16.2z"/></defs><clipPath id="d"><use xlink:href="#c" overflow="visible"/></clipPath><path clip-path="url(#d)" fill="#EA0020" d="M-16.2 7.2h26.4v65.5h-26.4zm85.9 0h26.4v65.5H69.7z"/><path clip-path="url(#d)" fill="#FFF" d="M10.3 7.2h59.5v65.5H10.3z"/><g clip-path="url(#d)"><defs><path id="e" d="M-16.2 7.2H96.1v65.5H-16.2z"/></defs><clipPath id="f"><use xlink:href="#e" overflow="visible"/></clipPath><path clip-path="url(#f)" fill="#EA0020" d="M40 15.7l-3.9 7.6c-.4.8-1.2.7-2 .3l-2.8-1.5 2.1 11.6c.4 2.1-1 2.1-1.7 1.2l-4.9-5.7-.8 2.9c-.1.4-.5.8-1.1.7l-6.2-1.4 1.6 6.2c.4 1.4.6 2-.4 2.3L17.7 41l10.7 9.1c.4.3.6 1 .5 1.5l-.9 3.2c3.7-.4 7-.8 10.7-1.3.3 0 .9.3.9.7L39 65.9h1.8l-.3-11.7c0-.4.5-.7.8-.7 3.7.4 7 .8 10.7 1.3l-.9-3.2c-.1-.6.1-1.2.5-1.5L62.3 41l-2.2-1.1c-1-.4-.7-.9-.4-2.3l1.6-6.2-6.2 1.4c-.6.1-1-.3-1.1-.7l-.8-2.9-4.9 5.7c-.7.9-2.1.9-1.7-1.2l2.1-11.6-2.8 1.5c-.8.5-1.6.5-2-.3L40 15.7z"/></g></g></svg>