<svg version="1" xmlns="http://www.w3.org/2000/svg" xmlns:xlink="http://www.w3.org/1999/xlink" viewBox="0 0 80 80"><defs><circle id="a" cx="40" cy="40" r="38.7"/></defs><clipPath id="b"><use xlink:href="#a" overflow="visible"/></clipPath><g clip-path="url(#b)"><defs><path id="c" d="M0-1.2h138.8v80.9H0z"/></defs><clipPath id="d"><use xlink:href="#c" overflow="visible"/></clipPath><path clip-path="url(#d)" fill="#BA0019" d="M0-1.2h138.8v54H0z"/><path clip-path="url(#d)" fill="#3E9A13" d="M0 52.7h138.8v27H0z"/><path clip-path="url(#d)" fill="#FFF" d="M0-1.2h17.8v80.9H0z"/><path clip-path="url(#d)" fill="#BA0019" d="M2.2 78.2H3V76h-.8v2.2zm6.3 0h.8V76h-.8v2.2zm6.4 0h.8V76h-.8v2.2zm-9.6-5.9h.8v-1.9h-.8v1.9zm6.4 0h.8v-1.9h-.8v1.9zm-9.5-4.9H3v-2.2h-.8v2.2zm6.3 0h.8v-2.2h-.8v2.2zm6.4 0h.8v-2.2h-.8v2.2zm-11.1 3h.8v-1.9h.8v-1.9h.8v1.9H7v1.9h.8v1.9h-.9v1.9h-.8V76h-.8v-1.9h-.8v-1.9h-.7v-1.8zm6.3 0h.8v-1.9h.8v-1.9h.8v1.9h.8v1.9h.8v1.9h-.8v1.9h-.8V76h-.8v-1.9h-.8v-1.9h-.8v-1.8zm1.6-7.5v1.9h-.8v1.9h-.8v1.9h-.8v1.9h-.8v-1.9h-.8v-1.9h-.8v-1.9h-.8v-1.9h-.8v1.9h-.8v1.9h-.7v1.9H3v1.9h-.8v1.9H3v1.9h.8V76h.8v1.9h.8v1.9h.8v-1.9H7V76h.8v-1.9h.8v-1.9h.8v1.9h.8V76h.8v1.9h.8v1.9h.8v-1.9h.8V76h.8v-1.9h.8v-1.9h.8v-1.9H15v-1.9h-.8v-1.9h-.8v-1.9h-.8v-1.9h-.9zm2-1.8h.3v-.7h.4v.7h.4v.7h-.4v.8H14v-.8h-.4v-.7zm0-2.6v1.1h-.4v1.1h-.4v1.5h.4v1.1h.4v1.1h1.2v-1.1h.4v-1.1h.4v-1.5h-.4v-1.1h-.4v-1.1h-1.2zM3 61.1h.4v-.7h.4v.7h.4v.8h-.4v.7h-.4v-.7H3v-.8zm0-2.6v1.1h-.4v1.1h-.4v1.5h.4v1.1H3v1.1h1.2v-1.1h.4v-1.1H5v-1.5h-.5v-1.1h-.4v-1.1H3zm4.3 2.6h.4v-.7h.4v.7h.4v.8h-.4v.7h-.4v-.7h-.4v-.8zm2 0h.4v-.7h.4v.7h.4v.8h-.4v.7h-.4v-.7h-.4v-.8zm0-2.6v1.1h-.8v-1.1H7.3v1.1h-.4v1.1h-.4v1.5h.4v1.1h.4v1.1h1.2v-1.1h.8v1.1h1.2v-1.1h.4v-1.1h.4v-1.5h-.4v-1.1h-.4v-1.1H9.3zm-7.1-.8H3v-2.2h-.8v2.2zm6.3 0h.8v-2.2h-.8v2.2zm6.4 0h.8v-2.2h-.8v2.2zM2.2 48.4H3v-1.5h-.8v1.5zm12.7 0h.8v-1.5h-.8v1.5zm-6.4-5.2h.8v-1.9h-.8v1.9zm-6.3-5.1v2.2H3v-2.2h-.8zm4.3 0v2.2h.8v-2.2h-.8zm4 0v2.2h.8v-2.2h-.8zm4.4 0v2.2h.8v-2.2h-.8zm-5.2-1.3v.7h-.4v.6h-.8v-.6h-.4v-.7h-.8v1.1h.4v.6h.4V40h-.4v.6h-.4v1.1h.8V41h.4v-.5h.8v.5h.4v.7h.8v-1.1h-.4V40h-.4v-1.4h.4V38h.4v-1.1h-.8zm-1.2.4h.8v-1.9h-.8v1.9zm-6.3-5.6H3v-1.5h-.8v1.5zm12.7 0h.8v-1.5h-.8v1.5zM2.2 23H3v-2.2h-.8V23zm6.3 0h.8v-2.2h-.8V23zm6.4 0h.8v-2.2h-.8V23zM5.3 39.3v-.8h.8v-1.3h.8v-1.5h1.2V34h.4v-.9h.8v.8h.4v1.8h1.2v1.5h.8v1.3h.8V40h-.8v1.3h-.8v1.4H9.7v1.8h-.4v.8h-.8v-.8h-.4v-1.8H6.9v-1.5h-.8V40h-.8v-.7zm6.4-20.7v1.9h-.8v1.9h-.8v1.9h-.8V26h-.8v-1.9h-.8v-1.9h-.8v-1.9h-.8v-1.9h-.8v1.9h-.8v1.9h-.8v1.9H3V26h-.8v1.9H3v1.9h.8v1.9h.8v1.9h.8v-1.9h.8v-1.9H7v-1.9h-.9v-2.2h.8v1.4h.8v3h.4V32H6.9v1.5h-.8v1.1h-.8v1.9h-.8v-1.9h-.8v-1.1H3v-1.1h-.8v3.4H3v1.5h.8v1.3h.8V40h-.9v1.3H3v1.5h-.8v3.4H3V45h.8v-1.1h.8V42h.8v1.9h.8V45H7v1.5h1.2v1.8h-.5v3h-.8v1.5h-.8v-2.3h.8v-1.9h-.8v-1.9h-.8V45h-.8v1.9h-.8v1.9H3v1.9h-.8v1.9H3v1.9h.8v1.9h.8v1.9h.8V60h.8v-1.9H7v-1.9h.8v-1.9h.8v-1.9h.8v1.9h.8v1.9h.8v1.9h.8V60h.8v-1.9h.8v-1.9h.8v-1.9h.8v-1.9h.8v-1.9H15v-1.9h-.8v-1.9h-.8V45h-.8v1.9h-.8v1.9H11v1.9h.8V53H11v-1.5h-.8v-3h-.5v-1.9h1.2V45h.8v-1.1h.8V42h.8v1.9h.8V45h.8v1.1h.8v-3.4h-.8v-1.5h-.8V40h-.8v-1.4h.8v-1.3h.8v-1.5h.8v-3.4h-.8v1.1h-.8v1.1h-.8v1.9h-.8v-1.9h-.8v-1.1h-.8V32H9.7v-1.9h.4v-3h.8v-1.5h.8v2.3h-.8v1.9h.8v1.9h.8v1.9h.8v-1.9h.8v-1.9h.8v-1.9h.8V26h-.8v-1.9h-.8v-1.9h-.8v-1.9h-.8v-1.9h-.8zM3 16.7h.4V16h.4v.7h.4v.7h-.4v.8h-.5v-.8H3v-.7zm0-1.5h-.4v1.1h-.4v1.5h.4v1.1H3V20h1.2v-1.1h.4v-1.1H5v-1.5h-.5v-1.1h-.4v-1.1H3v1.1zm4.3 1.5h.4V16h.4v.7h.4v.7h-.4v.8h-.4v-.8h-.4v-.7zm2 0h.4V16h.4v.7h.4v.7h-.4v.8h-.4v-.8h-.4v-.7zm-2-1.5h-.4v1.1h-.4v1.5h.4v1.1h.4V20h1.2v-1.1h.8V20h1.2v-1.1h.4v-1.1h.4v-1.5h-.4v-1.1h-.4v-1.1H9.3v1.1h-.8v-1.1H7.3v1.1zm6.4 1.5h.3V16h.4v.7h.4v.8h-.4v.7H14v-.7h-.4v-.8zm0-2.6v1.1h-.4v1.1h-.4v1.5h.4v1.1h.4V20h1.2v-1.1h.4v-1.1h.4v-1.5h-.4v-1.1h-.4v-1.1h-1.2zm-11.5-.8H3v-2.2h-.8v2.2zm6.3 0h.8v-2.2h-.8v2.2zm6.4 0h.8v-2.2h-.8v2.2zM5.3 8.1h.8V6.2h-.8v1.9zm6.4 0h.8V6.2h-.8v1.9zM2.2 2.5H3V.3h-.8v2.2zm6.3 0h.8V.3h-.8v2.2zm6.4 0h.8V.3h-.8v2.2zM3.8 6.2h.8V4.4h.8V2.5h.8v1.9H7v1.9h.8v1.9h-.9V10h-.8v1.9h-.8V10h-.8V8.1h-.7V6.2zm6.3 0h.8V4.4h.8V2.5h.8v1.9h.8v1.9h.8v1.9h-.8V10h-.8v1.9h-.8V10h-.8V8.1h-.8V6.2zm1.6-7.4V.7h-.8v1.9h-.8v1.9h-.8v1.9h-.8v-2h-.8V2.5h-.8V.7h-.8v-1.9h-.8V.7h-.8v1.9h-.7v1.9H3v1.9h-.8v1.9H3V10h.8v1.9h.8v1.9h.8v1.9h.8v-1.9H7v-1.9h.8V10h.8V8.1h.8V10h.8v1.9h.8v1.9h.8v1.9h.8v-1.9h.8v-1.9h.8V10h.8V8.1h.8V6.2H15V4.4h-.8V2.5h-.8V.7h-.8v-1.9h-.9z"/></g></svg>