<svg version="1" xmlns="http://www.w3.org/2000/svg" xmlns:xlink="http://www.w3.org/1999/xlink" viewBox="0 0 80 80"><defs><circle id="a" cx="40" cy="40" r="38.7"/></defs><clipPath id="b"><use xlink:href="#a" overflow="visible"/></clipPath><g clip-path="url(#b)"><defs><path id="c" d="M-33.3.1h138.1v80.6H-33.3z"/></defs><clipPath id="d"><use xlink:href="#c" overflow="visible"/></clipPath><path clip-path="url(#d)" fill="#4EAEC4" d="M-33.3.1h138.1v80.6H-33.3z"/><g clip-path="url(#d)"><defs><path id="e" d="M-33.3.1h138.1v80.6H-33.3z"/></defs><clipPath id="f"><use xlink:href="#e" overflow="visible"/></clipPath><path clip-path="url(#f)" fill="#F5C832" d="M38.8 54.9c-10.8 0-18.4-8.6-19.1-17.3 0 0-.4-.2-.5.2-.1.9.3 3.7.1 3.6-.3-.4-2.2-5.6-2.6-5.1-.5.8 2.2 6.8 2 7-.5.6-3.6-5.9-3.9-5.4-.9 1.8 3.8 7.7 3.8 8-.1.8-3.6-3.2-3.9-2.8-.7 1 3.8 4.5 4 4.7.7.8-2.4-1.4-2.5-.6-.1.6 1.5 1.9 2.5 2.4s1.3.4 1.5.9c.2.4-1.8-.2-1.7.2.1.9 2.2.7 2.5 1.1.3.4-1.4.1-1.3.4.1.6 1.9.6 1.9.9 0 .2-1.1.1-1 .5.1.4 1.8.3 2.2.6.4.3-1.5 0 0 .8s3.3 1.6 5.7 2.1c2.4.5 3.6 0 3.7-.2.1-.1-1.1.1-2.8-.2-1.7-.3-4-1.4-4.9-1.9-.3-.1.9-.5.7-.8-.3-.3-1.2 0-1.6-.4-.2-.3.5-.3.4-.5 0-.2-1.3-.5-1.6-.8-.2-.3.6-.3.6-.5s-.8-.5-.9-.7c-.1-.2.9-.2.5-.4-.5-.3-1.9-.6-2.1-1.1-.3-.5 1 .1.7-.4-.2-.3-1.5-.9-1.8-1.6-.2-.5.9-.1.9-.4 0-.5-.6-.2-.8-1.6-.1-.5.8-.1.8-.1l.1-.2s1.1.6 2.4 2.2c1.4 1.6 1.8 3.1 3.1 4.2.6.5.6-.2 2 .7 1.4.9 2 1.5 3.5 2.7.2.2 1.2-.2 4 .4 1.5.3 1.8 1.1 1.8 1.1s.9-.5 1.3-1.1c.2-.3.3 0 .4-.1.1-.3-.1-.5-.1-.5z"/><g clip-path="url(#f)"><path fill="#F5C832" d="M30.3 57.3c-.6 0-1.2-.1-1.8-.2-2.5-.5-4.3-1.4-5.7-2.1-.5-.2-.7-.4-.6-.5 0-.1.2-.2.5-.2.1 0 .2 0 .2-.1-.2-.1-.6-.1-1-.2-.6-.1-1.2-.2-1.2-.4l.1-.2c.1-.2.4-.2.6-.2.1 0 .3-.1.3-.1l-.6-.2c-.6-.1-1.2-.3-1.3-.7.1-.2.4-.3.8-.3.2 0 .6 0 .6-.1-.1-.2-.5-.2-.9-.3-.7-.1-1.6-.3-1.6-.9.2-.4.6-.3 1.1-.2h.5c0-.2-.1-.3-.4-.4-.2-.1-.5-.2-.9-.4-.9-.5-2.6-1.8-2.5-2.5 0-.1.1-.2.3-.2.4 0 1.1.4 1.7.7.3.1.6.3.7.3-.2-.1-.3-.2-.6-.4-2.1-1.8-4.1-3.7-3.6-4.4.4-.1 1 .5 2 1.3.7.6 1.6 1.5 1.9 1.5 0-.1-.3-.5-.6-1-1.3-1.8-3.9-5.7-3.2-7.1.3-.1.7.5 1.6 2.1.7 1.3 1.9 3.3 2.2 3.3 0-.1-.3-1-.6-1.8-1-2.5-1.7-4.7-1.4-5.2.4-.1 1.1 1.2 2.1 3.7.2.5.4 1 .5 1.2-.1-.2-.1-.6-.1-.9-.1-.9-.1-2-.1-2.5 0-.2.2-.3.4-.3h.2c.7 8.5 8 17.3 19 17.3.1 0 .2.2.2.3l-.1.2-.1-.1h-.1c-.5.7-1.3 1.2-1.4 1.2-.1-.1-.5-.9-1.8-1.1-1.8-.2-2.8-.2-3.3-.2h-.5c-.2 0-.3 0-.4-.1l-.8-.7c-.9-.8-1.5-1.3-2.6-2-.6-.4-1-.4-1.2-.4h-.3c-.2 0-.3 0-.6-.2-.7-.6-1.2-1.4-1.7-2.2-.4-.7-.8-1.3-1.4-2-1.3-1.6-2.4-2.2-2.4-2.2v.2h-.8c.1.9.4 1.1.6 1.3.1.1.3.2.2.4 0 .2-.3.2-.4.2h-.5c.2.6.8.9 1.2 1.2.3.2.5.3.6.4v.2c0 .1-.1.1-.2.1h-.4c0 .4.7.7 1.3.9.3.1.5.2.7.3.1 0 .2.1.2.2s-.2.1-.3.2c-.1 0-.2.1-.3.1 0 .1.3.2.5.3.3.1.5.3.4.4 0 .2-.2.2-.4.3-.1 0-.3.1-.3.1.1.2.6.4.9.5.5.2.7.3.7.4 0 .1-.1.2-.3.3-.1 0-.2.1-.2.1.2.3.6.3.9.3.3 0 .6 0 .7.2v.2c0 .2-.3.3-.5.5-.1.1-.2.2-.3.2.8.5 3.1 1.6 4.9 1.9.6.1 1.1.2 1.8.2h.9c.1 0 .2 0 .2.1-.1.1-.7.4-1.9.4zm-11.4-6.8c-.2 0-.3 0-.3.1.1.5.9.6 1.5.8.5.1.9.1 1 .3v.1c0 .2-.3.2-.7.2-.2 0-.6 0-.6.1.1.3.7.5 1.2.6.5.1.7.2.7.3 0 .2-.2.2-.5.2-.2 0-.5.1-.5.2 0 .3.6.4 1.1.4.5.1.9.1 1.1.2l.1.2c0 .1-.2.1-.3.2-.1 0-.3 0-.3.1 0 0 0 .1.5.4 1.3.7 3.2 1.6 5.7 2.1.6.1 1.2.2 1.8.2 1.2 0 1.8-.3 1.8-.4l-.4.1h-.6c-.6 0-1.2-.1-1.8-.2-1.8-.3-4.1-1.4-4.9-1.9-.1-.2.1-.3.2-.4.2-.1.4-.3.4-.3-.1-.2-.3-.2-.6-.2-.4 0-.8 0-1-.3l-.1-.2c0-.1.2-.2.3-.2.1 0 .2-.1.2-.1s-.3-.2-.6-.3c-.4-.1-.9-.3-1-.5v-.2c0-.1.2-.2.4-.2.1 0 .3-.1.3-.1l-.4-.2c-.3-.4-.6-.5-.6-.6.1-.2.2-.2.4-.3.1 0 .2 0 .2-.1-.3-.1-.5-.2-.8-.3-.6-.2-1.3-.5-1.5-.9v-.2c.1-.1.3-.1.5-.1h.2c0-.2-.2-.3-.5-.5-.5-.3-1.1-.7-1.2-1.2v-.2c.1-.1.2-.1.4-.1h.3c.1 0 .2 0 .2-.1s-.1-.2-.2-.3c-.2-.2-.5-.4-.7-1.3 0-.1 0-.2.1-.2.2-.2.9 0 .9 0V45c.2 0 1.2.6 2.6 2.2.6.7 1 1.4 1.4 2.1.5.8.9 1.5 1.6 2.1.2.2.3.2.5.2h.3c.3 0 .6.1 1.3.5 1.1.7 1.7 1.2 2.6 2l.8.7h.8c.6 0 1.6 0 3.2.4 1.6.3 1.9 1.1 1.9 1.2 0-.1.7-.6 1.1-1.1.1-.1.1-.2.2-.2h.2v-.2.1c-11.1 0-18.4-8.8-19.1-17.3h-.1c-.1 0-.2 0-.2.2-.1.5 0 1.6.1 2.4.1.9.1 1.1 0 1.1-.2-.1-.4-.6-.8-1.4-.5-1.2-1.6-3.7-1.8-3.7-.3.5.8 3.3 1.4 5 .6 1.6.7 1.8.6 1.9l-.2.1c-.4 0-1.2-1.3-2.4-3.3-.6-1-1.2-2.1-1.4-2.2-.7 1.3 1.9 5.1 3.2 6.9.5.8.6.9.6 1v.1l-.1.2c-.3 0-1-.6-2-1.5-.7-.7-1.5-1.4-1.7-1.4-.5.7 2.5 3.4 3.5 4.2.3.2.4.4.5.4.1.1.1.2.1.3-.2 0-.4 0-.9-.3s-1.3-.6-1.6-.6c-.1 0-.1.1-.1.1-.1.5 1.4 1.8 2.4 2.3.4.2.7.4.9.4.3.1.5.2.7.5-.1.5-.4.3-.8.2-.3-.1-.5-.1-.7-.1z"/></g><path clip-path="url(#f)" fill="#F5C832" d="M46.1 58.1c-.4-.1-.4.2-.4.2 0 .4-.2.8-.6.9-.3 0-.1.2-.2.4h-1.1c-1.7.9-3.8 1.2-6.3.9l-1 .8c-.5.4-.8.5-.9.9-.1.4.2.5.7.5.4 0 1-.4 1-.4s.1.3.5.4c.4 0 1.1-.2 1.1-.2s.6.3 1.1.2c.5-.1.9-.4.9-.4s.1.5.6.5 1.2-.6 1.2-.6.3.4.8.3c.4 0 .9-.6.9-.6s.5.2 1 .1 1-.6 1-.6.4.4.8.2c.4-.1.7-.7.7-.7s1.1.5 1.8.1c.5-.2.4-1 .4-1s2.9.4 2.8-1.5c0-.1-4.7 0-6.8-.4z"/><g clip-path="url(#f)"><path fill="#F5C832" d="M41.6 63c-.5 0-.6-.4-.7-.6 0 .1-.4.3-.8.4-.6 0-1.1-.2-1.1-.2s-.6.2-1 .2-.6-.3-.6-.4c0 .1-.5.4-.9.4s-.6-.1-.7-.3c-.1-.1-.1-.2-.1-.4.1-.2.2-.4.5-.5.1-.1.2-.2.4-.3l1-.8c.6 0 1.2.1 1.7.1 1.7 0 3.3-.3 4.5-1h1.1c0-.2 0-.4.2-.4.3-.1.5-.5.5-.8v-.2c.2-.2.3-.2.4-.2 1.3.2 3.2.3 4.7.4 2.1.1 2.2.1 2.2.2 0 .4-.1.8-.3 1-.5.5-1.3.6-1.9.6h-.6c.1.1.2.8-.3 1-.6.3-1.7 0-1.8-.1 0 .1-.2.6-.6.7-.4.1-.8-.2-.9-.2 0 .1-.4.5-.9.7-.4.1-1-.1-1.1-.1 0 0-.5.5-.9.6-.5 0-.8-.3-.8-.4-.1 0-.8.6-1.2.6zm-.7-.8c.1.1.2.5.6.5v.1-.1c.4 0 1.1-.6 1.1-.6.1 0 .4.3.7.3.5 0 1-.5 1-.5.1 0 .4.1.7.1h.3c.5-.1.9-.6.9-.6.1 0 .4.2.7.2.5-.2.8-.7.8-.7.1 0 .6.2 1.2.2.3 0 .5 0 .6-.1.4-.2.3-.9.3-.9.1-.1.4 0 .7 0 .6 0 1.4-.1 1.8-.5.2-.2.3-.5.3-.9-.1 0-1.1 0-2.1-.1-1.6-.1-3.5-.1-4.6-.3h-.2c0 .5-.3 1-.7 1.1-.1 0-.1.1-.1.2v.2h-1.1c-1.6.9-3.7 1.2-6.3 1 0 0-.5.4-.9.8-.2.1-.3.3-.5.3-.2.2-.4.3-.4.4v.2c.1.1.3.2.6.2.4 0 .9-.4.9-.4.1.1.2.3.5.4.4 0 1.1-.2 1.1-.2.1 0 .5.2 1 .2.7-.2 1.1-.5 1.1-.5z"/></g><path clip-path="url(#f)" fill="#F5C832" d="M39.8 56.1s.9-.3 2.4-.6c2.8-.6 3.8-.4 4-.6 2.2-2.5 3.9-2.7 5.5-3.3 1.3-1.1 1.7-2.7 3.1-4.2 1.4-1.6 2.2-1.7 2.2-1.7l.2.4s.7-.5.7-.1c-.1.7-.6 1.4-.6 1.9 0 .3 1-.1.9.1-.2.8-1 1.2-1.2 1.5-.4.5.9-.2.6.3-.3.5-1.5 1-2 1.3-.3.2.3.2.3.4-.1.2-1.4.7-1.3.9 0 .2.3.2.2.4-.3.3-1.3.3-1.4.5 0 .2.2.4 0 .7-.4.5-.7 0-.8.4-.1.2.6.7.1.8-.6.1-1.1.4-1.7.7-.2.1-1.2.3-1.7.5-.4.1-2.4.3-2.3.5.1.2 1.3.1 4-.3 1.1-.2 1.8-.3 3.6-.9 2.1-.7-.5-.7-.1-1 .4-.3 2.2-.1 2.3-.5.1-.4-1-.3-1-.6s2.2-.2 2.3-.8c.1-.3-1.2-.1-.9-.5.3-.4 2-.5 2.1-1.2 0-.4-1.4.1-1.2-.3.1-.1.7-.3 1.2-.7.9-.6 2.3-1.7 2.2-2.3-.1-.8-3 1.8-2.7.8.1-.4 4.7-4 4-4.9-.5-.6-3.8 3.3-3.9 2.5 0-.3 5.1-6.1 4.2-7.9-.2-.5-4.1 7-4.7 6.3-.1-.2 3.3-7.4 2.8-8.1-.3-.4-.8.8-1.4 2.1-.6 1.3-1.2 2.8-1.4 3-.1.2.2-2.8 0-3.7-.1-.4-.5-.2-.5-.2C57.3 47 48.3 54 41.2 55c-1.8.3-2.4 1.1-4.5 2.3-.7.4-1.7.5-2.6 1.1-.9.5-1.6 1.3-1.9 1.8-.1.2.1.9.2 1 .2.1.2-.5.4-.6.2-.1.2.2.5.2.2 0 .5-.3.5-.3s5 0 7.2-.1c.4 0 1-.2 1.3-.5-.1-.2-.7-.1-1-.1-1.5-.1-3.5 0-4.9-.1 0 0-.2 0-.2-.3 0-.1.9-1.1.9-1.1h-.7l-.6.3c-.2 0-.3-.1-.2-.2 1-.9 4.2-2.3 4.2-2.3z"/><g clip-path="url(#f)"><path fill="#F5C832" d="M32.5 61c-.2 0-.3-.3-.3-.4-.1-.2-.1-.5 0-.7.3-.6 1-1.3 1.9-1.8.5-.3 1-.5 1.5-.6.4-.1.8-.3 1.1-.5.6-.4 1.1-.7 1.6-1 .9-.6 1.6-1.1 2.9-1.3 7.6-1.1 16.1-8.3 16.6-17.2.1-.2.6-.1.6.2.1.5 0 1.6 0 2.5 0 .6-.1 1.1 0 1.2 0-.2.6-1.4 1.1-2.5l.2-.4c.7-1.5 1.1-2.3 1.4-2.3l.1.1c.4.5-.7 3-1.9 6.1-.4 1-.8 1.9-.8 2 .4 0 1.7-2.2 2.7-3.8 1.2-1.9 1.6-2.6 1.8-2.6.8 1.5-2 5.3-3.4 7.1-.3.5-.6.9-.6.9.2 0 .9-.6 1.5-1.1.8-.8 1.7-1.5 2.1-1.5l.2.1c.5.6-1.2 2.3-3 4l-.9.9c.2.1.7-.1 1.1-.4.8-.5 1.6-.8 1.6-.4.1.5-.7 1.3-2.3 2.4-.3.2-.6.3-.8.5-.2.1-.3.2-.4.2h.4c.3 0 .6 0 .8.1l.1.2c0 .5-.7.7-1.3.9-.3.1-.7.2-.8.4 0 .1.2.1.4.1s.5 0 .5.2c-.1.5-.9.7-1.6.8-.3.1-.7.1-.7.2 0 0 .2.1.3.1.3 0 .7.1.7.5 0 .3-.6.3-1.3.4-.5 0-.9.1-1.1.2 0 0 .2.1.3.1.3.1.6.2.6.4 0 .1-.1.3-.9.5-1.8.6-2.5.7-3.6.9-2.1.3-3.1.4-3.5.4-.5 0-.6-.1-.6-.1.1-.2.4-.3 1.6-.5.3 0 .6-.1.7-.1.2 0 .4-.1.6-.1.5-.1 1-.2 1.1-.3.5-.3 1-.6 1.7-.8.1-.1 0-.2 0-.3-.1-.1-.2-.3-.2-.4.1-.2.1-.2.3-.2l.2.1V54c.1 0 .2 0 .3-.2.1-.1.1-.3 0-.4v-.2c0-.2.2-.2.6-.3.3 0 .7-.1.8-.3-.1-.1-.2-.2-.2-.3 0-.1.2-.2.7-.5.2-.1.7-.3.7-.4 0 0-.1-.1-.2-.1s-.2-.1-.2-.2l.1-.1c.1-.1.3-.2.6-.3.5-.3 1.2-.6 1.4-.9-.1-.1-.2-.1-.3 0h-.2l-.2-.1c0-.1 0-.1.1-.2l.3-.3c.3-.3.7-.6.9-1.1h-.3c-.4.1-.6 0-.6-.1 0-.3.1-.6.3-.9.2-.3.3-.7.3-1-.2-.1-.4.1-.6.2l-.1-.7s-.8.2-2.1 1.7c-.6.7-1 1.4-1.4 2.1-.5.8-1 1.6-1.7 2.2l-.9.3c-1.4.5-2.8 1-4.6 3-.1.1-.3.1-.7.1-.6 0-1.6.1-3.4.5-1.5.3-2.3.6-2.3.6s-3.2 1.4-4.3 2.3c.3 0 .7-.1.8-.2h.8c-.4.6-.8 1.1-.8 1.2l.1.2v-.1c1.4.1 3.4 0 5 .1h.3c.3 0 .7-.1.8.2-.3.4-1 .5-1.4.5-2.1.1-7.1.1-7.2.1 0 0-.3.2-.5.3-.2 0-.2-.1-.3-.2-.2 0-.3.1-.3.3-.2.1-.3.2-.4.2zm25.6-23.4h-.2c-.5 8.9-9.1 16.2-16.7 17.3-1.2.2-1.9.6-2.8 1.3-.4.3-.9.6-1.6 1-.3.2-.7.3-1.2.5s-1 .3-1.5.6c-.8.5-1.5 1.2-1.8 1.7-.1.1-.1.3 0 .5s.1.3.2.3c0 0 .1-.1.1-.2.1-.2.1-.3.2-.4.2 0 .3 0 .3.1.1.1.1.1.2.1.2 0 .5-.2.5-.2.1 0 5.1 0 7.3-.1.3 0 1-.1 1.2-.4h-1c-1.5-.1-3.5 0-5-.1 0 0-.1 0-.2-.1s-.1-.1-.1-.2.3-.5.9-1.1l-.7.1-.6.3c-.2 0-.3 0-.3-.1v-.1l.1-.1c1.1-.8 4.2-2.2 4.4-2.3 0 0 .9-.3 2.4-.6 1.7-.4 2.8-.5 3.4-.5.3 0 .5 0 .6-.1 1.8-2.1 3.3-2.6 4.7-3l.9-.3c.7-.6 1.1-1.3 1.6-2.2.4-.6.8-1.3 1.4-2.1 1.4-1.6 2.2-1.8 2.2-1.8l.3.4c0-.1.3-.3.5-.3l.2.1s.1.1 0 .2c0 .4-.2.7-.3 1.1-.2.3-.3.6-.3.8h.7l.2.1c-.2.7-.6 1.1-.9 1.3-.1.1-.3.2-.3.3 0 .1.1 0 .2 0h.3l.2.1c.1.1 0 .2 0 .2-.2.4-.9.7-1.4 1l-.6.3c.2.2.3.3.3.4 0 .1-.3.3-.8.5-.2.1-.5.3-.6.3l.1.1.1.2c-.2.3-.6.4-.9.5-.2 0-.4.1-.5.1.1.3.2.5 0 .7-.2.2-.3.3-.5.3h-.2c-.1 0-.1 0-.2.1 0 0 .1.2.2.3.1.1.2.3.2.4 0 .1-.1.1-.2.1-.7.1-1.1.4-1.7.8-.2.1-.6.2-1.1.3-.2 0-.4.1-.6.1-.1 0-.4.1-.7.1-.4.1-1.2.2-1.5.3.2 0 .7.2 3.9-.4 1.1-.2 1.8-.3 3.6-.9.7-.3.8-.4.8-.4 0-.1-.4-.2-.5-.2-.3-.1-.4-.2-.5-.3l.1-.1c.2-.1.7-.2 1.1-.2.4 0 1.1-.1 1.1-.3 0-.2-.2-.2-.5-.3-.2 0-.5-.1-.4-.3 0-.2.3-.2.8-.3.6-.1 1.4-.2 1.5-.5 0-.1-.3-.1-.4-.1-.2 0-.5 0-.5-.2l.1-.2c.1-.2.5-.3.9-.4.5-.2 1.2-.4 1.2-.8 0-.1-.3-.1-.6-.1-.2 0-.5.1-.6-.1.1-.2.2-.3.4-.5.2-.1.5-.2.8-.4 2-1.4 2.3-2 2.2-2.3-.3-.1-.9.2-1.4.5-.5.3-.9.5-1.2.6l-.2-.1V48c0-.1.3-.3 1-1 1.2-1.1 3.5-3.2 3-3.8-.4 0-1.4.8-2.1 1.4-.8.7-1.4 1.2-1.6 1.2h-.1l-.1-.2c0-.1.1-.2.7-1 1.4-1.8 4.2-5.5 3.5-6.8-.1.1-.9 1.3-1.7 2.5-1.4 2.3-2.4 3.9-2.9 3.9-.2-.2-.2-.3.6-2.2.9-2.1 2.3-5.5 2-5.9-.3 0-.9 1.2-1.3 2.1l-.3.8c-.5 1.2-1.1 2.4-1.2 2.6-.2 0-.2-.2-.1-1.3 0-.9.1-2 0-2.4 0-.2-.1-.3-.2-.3z"/></g><path clip-path="url(#f)" fill="#4EAEC4" d="M34.9 59.1c0-.1-.2 0-.4 0s-.3.1-.3.2.2.1.4 0c.1 0 .3-.1.3-.2z"/><g clip-path="url(#f)"><path fill="#4EAEC4" d="M34.3 59.5l-.2-.1c0-.1.1-.3.3-.3h.4l.1.1c0 .1-.1.3-.3.3h-.3z"/></g><path clip-path="url(#f)" fill="#F5C832" d="M41.3 22.5c.6.1.9-.2 1-.7.1-.6-.1-3.7-.1-3.7s-1.4 2.7-1.5 3.3c-.2.6 0 1 .6 1.1zm2.2.7c.6.2.9 0 1.1-.5.2-.6.6-3.6.6-3.6s-1.9 2.4-2.2 3c-.1.4 0 .9.5 1.1zm2.1 1.1c.5.3.9.1 1.2-.3.3-.5 1.3-3.4 1.3-3.4s-2.3 2-2.7 2.5c-.3.4-.3.8.2 1.2zm1.8 1.5c.4.4.9.3 1.2 0 .4-.4 1.9-3.1 1.9-3.1s-2.7 1.5-3.1 1.9c-.4.3-.5.7 0 1.2zm1.4 1.8c.3.5.8.5 1.2.2.5-.4 2.5-2.7 2.5-2.7s-2.9.9-3.4 1.3c-.4.2-.6.6-.3 1.2zm1.1 2c.3.6.7.6 1.1.5.6-.2 3-2.2 3-2.2s-3 .4-3.6.6c-.4.2-.7.5-.5 1.1zm.7 2.2c.1.6.5.8 1 .7.6-.1 3.3-1.5 3.3-1.5s-3.1-.3-3.7-.1c-.4 0-.7.3-.6.9zm.2 2.3c0 .6.4.9.9.9.6 0 3.6-.9 3.6-.9s-2.9-.9-3.6-.9c-.5.1-.9.3-.9.9zm-.2 2.4c-.1.6.2.9.7 1 .6.1 3.7-.1 3.7-.1s-2.7-1.4-3.3-1.5c-.5-.2-1-.1-1.1.6zm-.7 2.2c-.2.6 0 .9.5 1.1.6.2 3.6.6 3.6.6s-2.4-1.9-3-2.2c-.4-.2-.8-.1-1.1.5zm-1.1 2c-.3.5-.1.9.2 1.2.5.3 3.4 1.3 3.4 1.3s-2-2.3-2.5-2.7c-.3-.3-.7-.3-1.1.2zm-1.4 1.8c-.4.4-.3.9 0 1.2.4.4 3.1 1.9 3.1 1.9s-1.5-2.7-1.9-3.1c-.3-.3-.8-.4-1.2 0zM45.6 44c-.5.4-.5.8-.2 1.2.4.5 2.7 2.5 2.7 2.5s-.9-2.9-1.3-3.4c-.3-.5-.7-.7-1.2-.3zm-2.1 1.1c-.6.3-.6.7-.5 1.1.2.6 2.2 3 2.2 3s-.3-3-.6-3.6c-.1-.5-.5-.8-1.1-.5zM32.4 44c-.5-.3-.9-.1-1.2.3-.3.5-1.3 3.4-1.3 3.4s2.3-2 2.7-2.5c.3-.4.3-.9-.2-1.2zm-1.8-1.5c-.5-.4-.9-.3-1.2 0-.5.4-1.9 3.1-1.9 3.1s2.7-1.5 3.1-1.9c.3-.3.5-.8 0-1.2zm-1.4-1.8c-.3-.5-.8-.5-1.2-.2-.5.4-2.5 2.7-2.5 2.7s2.9-.9 3.4-1.3c.4-.3.6-.7.3-1.2zm-1.1-2c-.2-.6-.7-.6-1.1-.5-.6.2-3 2.2-3 2.2s3.1-.3 3.6-.6c.4-.2.7-.6.5-1.1zm-.7-2.2c-.1-.6-.5-.8-1-.7-.6.1-3.3 1.5-3.3 1.5s3.1.3 3.7.1c.4 0 .7-.3.6-.9zm-.2-2.4c0-.6-.4-.9-.9-.9-.6 0-3.6.9-3.6.9s3 .9 3.6.9c.5 0 .9-.2.9-.9zm.2-2.3c.1-.6-.2-.9-.7-1-.6-.1-3.7.2-3.7.2s2.7 1.4 3.3 1.5c.5.1 1 0 1.1-.7zm.7-2.2c.2-.6 0-.9-.5-1.1-.6-.2-3.6-.6-3.6-.6s2.4 1.9 3 2.2c.4.1.8.1 1.1-.5zm1.1-2c.3-.5.1-.9-.2-1.2-.5-.3-3.4-1.3-3.4-1.3s2 2.3 2.5 2.7c.3.3.7.3 1.1-.2zm1.4-1.8c.4-.4.3-.9 0-1.2-.4-.4-3.1-1.9-3.1-1.9s1.5 2.7 1.9 3.1c.3.3.8.4 1.2 0zm8.4-2.1c5.8 0 10.4 4.7 10.4 10.4 0 5.8-4.7 10.4-10.4 10.4-5.8 0-10.4-4.7-10.4-10.4S33.2 23.7 39 23.7zm0-1.4c.6 0 .9-.4.9-.9 0-.6-.9-3.6-.9-3.6s-.8 3-.8 3.6c0 .5.2.9.8.9zm2.3 23.4c-.6.1-.8.6-.7 1 .1.6 1.5 3.3 1.5 3.3s.3-3.1.1-3.7c0-.3-.3-.7-.9-.6zM39 46c-.6 0-.8.4-.8.9 0 .6.8 3.6.8 3.6s.9-2.9.9-3.6c-.1-.5-.3-.9-.9-.9zm-2.3-.3c-.6-.1-.9.2-1 .7-.1.6.1 3.7.1 3.7s1.4-2.7 1.5-3.3c.1-.5 0-.9-.6-1.1zm-2.2-.6c-.6-.2-.9 0-1.1.5-.2.6-.6 3.6-.6 3.6s1.9-2.4 2.2-3c.1-.4 0-.9-.5-1.1zm-2.1-20.8c.5-.4.5-.8.2-1.2-.3-.5-2.7-2.5-2.7-2.5s.9 2.9 1.3 3.4c.3.4.7.6 1.2.3zm2.1-1.1c.6-.2.6-.7.5-1.1-.2-.6-2.2-3-2.2-3s.3 3.1.6 3.6c.1.5.5.7 1.1.5zm2.2-.7c.6-.1.8-.5.7-1-.1-.6-1.5-3.3-1.5-3.3s-.3 3.1-.1 3.7c0 .4.3.8.9.6z"/></g></g></svg>