<svg version="1" xmlns="http://www.w3.org/2000/svg" xmlns:xlink="http://www.w3.org/1999/xlink" viewBox="0 0 80 80"><defs><circle id="a" cx="40" cy="40" r="38.7"/></defs><clipPath id="b"><use xlink:href="#a" overflow="visible"/></clipPath><g clip-path="url(#b)"><defs><path id="c" d="M-29.8 0h136.4v79.6H-29.8z"/></defs><clipPath id="d"><use xlink:href="#c" overflow="visible"/></clipPath><path clip-path="url(#d)" fill="#4497B1" d="M-29.8 0h136.4v25.5H-29.8z"/><path clip-path="url(#d)" fill="#BC0030" d="M-29.8 25.5h136.4v1.6H-29.8z"/><path clip-path="url(#d)" fill="#FFF" d="M-29.8 27.1h136.4v25.5H-29.8z"/><path clip-path="url(#d)" fill="#BC0030" d="M-29.8 52.6h136.4v1.6H-29.8z"/><path clip-path="url(#d)" fill="#50B63F" d="M-29.8 54.1h136.4v25.5H-29.8z"/><g clip-path="url(#d)"><defs><path id="e" d="M-29.8 0h136.4v79.6H-29.8z"/></defs><clipPath id="f"><use xlink:href="#e" overflow="visible"/></clipPath><path clip-path="url(#f)" fill="#FFF" d="M2.1 12.8c0 5.3-4.3 9.5-9.6 9.5s-9.6-4.3-9.6-9.5c0-5.3 4.3-9.6 9.6-9.6s9.6 4.3 9.6 9.6"/><path clip-path="url(#f)" fill="#4497B1" d="M4.8 12.8c0 4.4-3.6 7.9-7.9 7.9-4.4 0-8-3.6-8-7.9 0-4.4 3.6-8 8-8 4.3 0 7.9 3.6 7.9 8"/><path clip-path="url(#f)" fill="#FFF" d="M16.7 3.2L16.1 5l.9.3z"/><path clip-path="url(#f)" fill="#FFF" d="M16.7 3.2l.6 1.8-.9.3z"/><path clip-path="url(#f)" fill="#FFF" d="M18.5 4.5h-1.9v1z"/><path clip-path="url(#f)" fill="#FFF" d="M18.5 4.5L17 5.6l-.6-.7z"/><path clip-path="url(#f)" fill="#FFF" d="M14.9 4.5l1.5 1.1.6-.7z"/><path clip-path="url(#f)" fill="#FFF" d="M14.9 4.5h1.9v1z"/><path clip-path="url(#f)" fill="#FFF" d="M17.8 6.7l-.6-1.9-.9.3z"/><path clip-path="url(#f)" fill="#FFF" d="M17.8 6.7l-1.5-1.2.5-.8z"/><path clip-path="url(#f)" fill="#FFF" d="M15.6 6.7l1.5-1.2-.5-.8z"/><path clip-path="url(#f)" fill="#FFF" d="M15.6 6.7l.6-1.9.9.3zm8.7-3.5L23.8 5l.9.3z"/><path clip-path="url(#f)" fill="#FFF" d="M24.3 3.2l.6 1.8-.9.3z"/><path clip-path="url(#f)" fill="#FFF" d="M26.2 4.5h-2v1z"/><path clip-path="url(#f)" fill="#FFF" d="M26.2 4.5l-1.6 1.1-.6-.7z"/><path clip-path="url(#f)" fill="#FFF" d="M22.5 4.5l1.6 1.1.5-.7z"/><path clip-path="url(#f)" fill="#FFF" d="M22.5 4.5h1.9v1z"/><path clip-path="url(#f)" fill="#FFF" d="M25.5 6.7l-.6-1.9-.9.3z"/><path clip-path="url(#f)" fill="#FFF" d="M25.5 6.7l-1.6-1.2.6-.8z"/><path clip-path="url(#f)" fill="#FFF" d="M23.2 6.7l1.6-1.2-.6-.8z"/><path clip-path="url(#f)" fill="#FFF" d="M23.2 6.7l.6-1.9.9.3zM32 3.2L31.4 5l.9.3z"/><path clip-path="url(#f)" fill="#FFF" d="M32 3.2l.6 1.8-.9.3z"/><path clip-path="url(#f)" fill="#FFF" d="M33.8 4.5h-1.9v1z"/><path clip-path="url(#f)" fill="#FFF" d="M33.8 4.5l-1.5 1.1-.6-.7z"/><path clip-path="url(#f)" fill="#FFF" d="M30.2 4.5l1.5 1.1.6-.7z"/><path clip-path="url(#f)" fill="#FFF" d="M30.2 4.5h1.9v1z"/><path clip-path="url(#f)" fill="#FFF" d="M33.1 6.7l-.6-1.9-.9.3z"/><path clip-path="url(#f)" fill="#FFF" d="M33.1 6.7l-1.5-1.2.5-.8z"/><path clip-path="url(#f)" fill="#FFF" d="M30.9 6.7l1.5-1.2-.5-.8z"/><path clip-path="url(#f)" fill="#FFF" d="M30.9 6.7l.6-1.9.9.3zM9.1 10.8l-.6 1.8.9.3z"/><path clip-path="url(#f)" fill="#FFF" d="M9.1 10.8l.5 1.8-.9.3z"/><path clip-path="url(#f)" fill="#FFF" d="M10.9 12.1H9v1z"/><path clip-path="url(#f)" fill="#FFF" d="M10.9 12.1l-1.6 1.2-.5-.8z"/><path clip-path="url(#f)" fill="#FFF" d="M7.2 12.1l1.6 1.2.5-.8z"/><path clip-path="url(#f)" fill="#FFF" d="M7.2 12.1h2v1z"/><path clip-path="url(#f)" fill="#FFF" d="M10.2 14.3l-.6-1.8-.9.3z"/><path clip-path="url(#f)" fill="#FFF" d="M10.2 14.3l-1.6-1.1.6-.8z"/><path clip-path="url(#f)" fill="#FFF" d="M7.9 14.3l1.6-1.1-.6-.8z"/><path clip-path="url(#f)" fill="#FFF" d="M7.9 14.3l.6-1.8.9.3zm8.8-3.5l-.6 1.8.9.3z"/><path clip-path="url(#f)" fill="#FFF" d="M16.7 10.8l.6 1.8-.9.3z"/><path clip-path="url(#f)" fill="#FFF" d="M18.5 12.1h-1.9v1z"/><path clip-path="url(#f)" fill="#FFF" d="M18.5 12.1L17 13.3l-.6-.8z"/><path clip-path="url(#f)" fill="#FFF" d="M14.9 12.1l1.5 1.2.6-.8z"/><path clip-path="url(#f)" fill="#FFF" d="M14.9 12.1h1.9v1z"/><path clip-path="url(#f)" fill="#FFF" d="M17.8 14.3l-.6-1.8-.9.3z"/><path clip-path="url(#f)" fill="#FFF" d="M17.8 14.3l-1.5-1.1.5-.8z"/><path clip-path="url(#f)" fill="#FFF" d="M15.6 14.3l1.5-1.1-.5-.8z"/><path clip-path="url(#f)" fill="#FFF" d="M15.6 14.3l.6-1.8.9.3zm8.7-3.5l-.5 1.8.9.3z"/><path clip-path="url(#f)" fill="#FFF" d="M24.3 10.8l.6 1.8-.9.3z"/><path clip-path="url(#f)" fill="#FFF" d="M26.2 12.1h-2v1z"/><path clip-path="url(#f)" fill="#FFF" d="M26.2 12.1l-1.6 1.2-.6-.8z"/><path clip-path="url(#f)" fill="#FFF" d="M22.5 12.1l1.6 1.2.5-.8z"/><path clip-path="url(#f)" fill="#FFF" d="M22.5 12.1h1.9v1z"/><path clip-path="url(#f)" fill="#FFF" d="M25.5 14.3l-.6-1.8-.9.3z"/><path clip-path="url(#f)" fill="#FFF" d="M25.5 14.3l-1.6-1.1.6-.8z"/><path clip-path="url(#f)" fill="#FFF" d="M23.2 14.3l1.6-1.1-.6-.8z"/><path clip-path="url(#f)" fill="#FFF" d="M23.2 14.3l.6-1.8.9.3zm8.8-3.5l-.6 1.8.9.3z"/><path clip-path="url(#f)" fill="#FFF" d="M32 10.8l.6 1.8-.9.3z"/><path clip-path="url(#f)" fill="#FFF" d="M33.8 12.1h-1.9v1z"/><path clip-path="url(#f)" fill="#FFF" d="M33.8 12.1l-1.5 1.2-.6-.8z"/><path clip-path="url(#f)" fill="#FFF" d="M30.2 12.1l1.5 1.2.6-.8z"/><path clip-path="url(#f)" fill="#FFF" d="M30.2 12.1h1.9v1z"/><path clip-path="url(#f)" fill="#FFF" d="M33.1 14.3l-.6-1.8-.9.3z"/><path clip-path="url(#f)" fill="#FFF" d="M33.1 14.3l-1.5-1.1.5-.8z"/><path clip-path="url(#f)" fill="#FFF" d="M30.9 14.3l1.5-1.1-.5-.8z"/><path clip-path="url(#f)" fill="#FFF" d="M30.9 14.3l.6-1.8.9.3zM1.4 18.5l-.6 1.8.9.3z"/><path clip-path="url(#f)" fill="#FFF" d="M1.4 18.5l.6 1.8-.9.3z"/><path clip-path="url(#f)" fill="#FFF" d="M3.2 19.8H1.3v.9z"/><path clip-path="url(#f)" fill="#FFF" d="M3.2 19.8l-1.5 1.1-.6-.8z"/><path clip-path="url(#f)" fill="#FFF" d="M-.4 19.8l1.6 1.1.5-.8z"/><path clip-path="url(#f)" fill="#FFF" d="M-.4 19.8h1.9v.9z"/><path clip-path="url(#f)" fill="#FFF" d="M2.5 21.9L2 20.1l-1 .3z"/><path clip-path="url(#f)" fill="#FFF" d="M2.5 21.9L1 20.8l.6-.8z"/><path clip-path="url(#f)" fill="#FFF" d="M.3 21.9l1.5-1.1-.5-.8z"/><path clip-path="url(#f)" fill="#FFF" d="M.3 21.9l.6-1.8.9.3zm8.8-3.4l-.6 1.8.9.3z"/><path clip-path="url(#f)" fill="#FFF" d="M9.1 18.5l.5 1.8-.9.3z"/><path clip-path="url(#f)" fill="#FFF" d="M10.9 19.8H9v.9z"/><path clip-path="url(#f)" fill="#FFF" d="M10.9 19.8l-1.6 1.1-.5-.8z"/><path clip-path="url(#f)" fill="#FFF" d="M7.2 19.8l1.6 1.1.5-.8z"/><path clip-path="url(#f)" fill="#FFF" d="M7.2 19.8h2v.9z"/><path clip-path="url(#f)" fill="#FFF" d="M10.2 21.9l-.6-1.8-.9.3z"/><path clip-path="url(#f)" fill="#FFF" d="M10.2 21.9l-1.6-1.1.6-.8z"/><path clip-path="url(#f)" fill="#FFF" d="M7.9 21.9l1.6-1.1-.6-.8z"/><path clip-path="url(#f)" fill="#FFF" d="M7.9 21.9l.6-1.8.9.3zm8.8-3.4l-.6 1.8.9.3z"/><path clip-path="url(#f)" fill="#FFF" d="M16.7 18.5l.6 1.8-.9.3z"/><path clip-path="url(#f)" fill="#FFF" d="M18.5 19.8h-1.9v.9z"/><path clip-path="url(#f)" fill="#FFF" d="M18.5 19.8L17 20.9l-.6-.8z"/><path clip-path="url(#f)" fill="#FFF" d="M14.9 19.8l1.5 1.1.6-.8z"/><path clip-path="url(#f)" fill="#FFF" d="M14.9 19.8h1.9v.9z"/><path clip-path="url(#f)" fill="#FFF" d="M17.8 21.9l-.6-1.8-.9.3z"/><path clip-path="url(#f)" fill="#FFF" d="M17.8 21.9l-1.5-1.1.5-.8z"/><path clip-path="url(#f)" fill="#FFF" d="M15.6 21.9l1.5-1.1-.5-.8z"/><path clip-path="url(#f)" fill="#FFF" d="M15.6 21.9l.6-1.8.9.3zm8.7-3.4l-.5 1.8.9.3z"/><path clip-path="url(#f)" fill="#FFF" d="M24.3 18.5l.6 1.8-.9.3z"/><path clip-path="url(#f)" fill="#FFF" d="M26.2 19.8h-2v.9z"/><path clip-path="url(#f)" fill="#FFF" d="M26.2 19.8l-1.6 1.1-.6-.8z"/><path clip-path="url(#f)" fill="#FFF" d="M22.5 19.8l1.6 1.1.5-.8z"/><path clip-path="url(#f)" fill="#FFF" d="M22.5 19.8h1.9v.9z"/><path clip-path="url(#f)" fill="#FFF" d="M25.5 21.9l-.6-1.8-.9.3z"/><path clip-path="url(#f)" fill="#FFF" d="M25.5 21.9l-1.6-1.1.6-.8z"/><path clip-path="url(#f)" fill="#FFF" d="M23.2 21.9l1.6-1.1-.6-.8z"/><path clip-path="url(#f)" fill="#FFF" d="M23.2 21.9l.6-1.8.9.3zm8.8-3.4l-.6 1.8.9.3z"/><path clip-path="url(#f)" fill="#FFF" d="M32 18.5l.6 1.8-.9.3z"/><path clip-path="url(#f)" fill="#FFF" d="M33.8 19.8h-1.9v.9z"/><path clip-path="url(#f)" fill="#FFF" d="M33.8 19.8l-1.5 1.1-.6-.8z"/><path clip-path="url(#f)" fill="#FFF" d="M30.2 19.8l1.5 1.1.6-.8z"/><path clip-path="url(#f)" fill="#FFF" d="M30.2 19.8h1.9v.9z"/><path clip-path="url(#f)" fill="#FFF" d="M33.1 21.9l-.6-1.8-.9.3z"/><path clip-path="url(#f)" fill="#FFF" d="M33.1 21.9l-1.5-1.1.5-.8z"/><path clip-path="url(#f)" fill="#FFF" d="M30.9 21.9l1.5-1.1-.5-.8z"/><path clip-path="url(#f)" fill="#FFF" d="M30.9 21.9l.6-1.8.9.3z"/></g></g></svg>