<svg version="1" xmlns="http://www.w3.org/2000/svg" xmlns:xlink="http://www.w3.org/1999/xlink" viewBox="0 0 80 80"><defs><circle id="a" cx="40" cy="40" r="38.7"/></defs><clipPath id="b"><use xlink:href="#a" overflow="visible"/></clipPath><g clip-path="url(#b)"><defs><path id="c" d="M-30.5 0h137.1v80H-30.5z"/></defs><clipPath id="d"><use xlink:href="#c" overflow="visible"/></clipPath><path clip-path="url(#d)" fill="#438FC3" d="M-30.5 0h137.1v80H-30.5z"/><path clip-path="url(#d)" fill="#D6003F" d="M-30.5 26.7h137.1v26.7H-30.5z"/><path clip-path="url(#d)" fill="#48AE68" d="M-30.5 53.3h137.1V80H-30.5z"/><g clip-path="url(#d)"><defs><path id="e" d="M-30.5 0h137.1v80H-30.5z"/></defs><clipPath id="f"><use xlink:href="#e" overflow="visible"/></clipPath><path clip-path="url(#f)" fill="#FFF" d="M40.8 49.4c-5.2 0-9.3-4.2-9.3-9.4s4.2-9.3 9.3-9.3c1.9 0 3.6.6 5.1 1.5-2-2.1-4.9-3.4-8-3.4-6.2 0-11.2 5-11.2 11.2 0 6.2 5 11.2 11.2 11.2 3.1 0 6-1.3 8-3.4-1.5 1-3.2 1.6-5.1 1.6"/><path clip-path="url(#f)" fill="#FFF" d="M53.4 44.2l-3-1.3-1.2 3.1-1.2-3.1-3.1 1.3 1.4-3-3.1-1.2 3.1-1.2-1.3-3 3 1.3 1.2-3.1 1.2 3.2 3-1.4-1.4 3 3.2 1.2-3.2 1.2z"/></g></g></svg>