<svg version="1" xmlns="http://www.w3.org/2000/svg" xmlns:xlink="http://www.w3.org/1999/xlink" viewBox="0 0 80 80"><defs><circle id="a" cx="40" cy="40" r="38.7"/></defs><clipPath id="b"><use xlink:href="#a" overflow="visible"/></clipPath><g clip-path="url(#b)"><defs><path id="c" d="M-24 0h138.3v80.7H-24z"/></defs><clipPath id="d"><use xlink:href="#c" overflow="visible"/></clipPath><path clip-path="url(#d)" fill="#CB001C" d="M-24 74.5h138.3v6.2H-24z"/><path clip-path="url(#d)" fill="#FFF" d="M-24 68.3h138.3v6.2H-24z"/><path clip-path="url(#d)" fill="#CB001C" d="M-24 62.1h138.3v6.2H-24z"/><path clip-path="url(#d)" fill="#FFF" d="M-24 55.9h138.3v6.2H-24z"/><path clip-path="url(#d)" fill="#CB001C" d="M-24 49.7h138.3v6.2H-24z"/><path clip-path="url(#d)" fill="#FFF" d="M-24 43.5h138.3v6.2H-24z"/><path clip-path="url(#d)" fill="#CB001C" d="M-24 37.2h138.3v6.2H-24z"/><path clip-path="url(#d)" fill="#FFF" d="M-24 31h138.3v6.2H-24z"/><path clip-path="url(#d)" fill="#CB001C" d="M-24 24.8h138.3V31H-24z"/><path clip-path="url(#d)" fill="#FFF" d="M-24 18.6h138.3v6.2H-24z"/><path clip-path="url(#d)" fill="#CB001C" d="M-24 12.4h138.3v6.2H-24z"/><path clip-path="url(#d)" fill="#FFF" d="M-24 6.2h138.3v6.2H-24z"/><path clip-path="url(#d)" fill="#CB001C" d="M-24 0h138.3v6.2H-24z"/><path clip-path="url(#d)" fill="#2A3560" d="M-24 0h63.2v43.5H-24z"/><path clip-path="url(#d)" fill="#FFF" d="M2 4.8l.6 1.6h1.7l-1.4 1 .5 1.7-1.4-1-1.4 1 .6-1.7-1.4-1h1.7zM2 12l.6 1.7h1.7l-1.4 1 .5 1.6-1.4-1-1.4 1 .6-1.6-1.4-1h1.7zm0 7.3l.6 1.6h1.7L2.9 22l.5 1.6-1.4-1-1.4 1 .6-1.6-1.4-1.1h1.7zm0 7.2l.6 1.7h1.7l-1.4 1 .5 1.6-1.4-1-1.4 1 .6-1.6-1.4-1h1.7zm0 7.3l.6 1.7h1.7l-1.4 1 .5 1.6-1.4-1-1.4 1 .6-1.6-1.4-1h1.7zM7.1 8.6l.5 1.7h1.7l-1.3 1 .5 1.6-1.4-1-1.4 1 .5-1.6-1.4-1h1.8zm0 7.3l.5 1.6h1.7l-1.3 1 .5 1.7-1.4-1-1.4 1 .5-1.7-1.4-1h1.8zm0 7.2l.5 1.7h1.7l-1.3 1 .5 1.6-1.4-1-1.4 1 .5-1.6-1.4-1h1.8zm0 7.3l.5 1.6h1.7L8 33l.5 1.7-1.4-1.1-1.4 1.1.5-1.7-1.4-1h1.8zm5.1-25.6l.5 1.6h1.8l-1.4 1 .5 1.7-1.4-1-1.4 1 .5-1.7-1.4-1h1.8zm0 7.2l.5 1.7h1.8l-1.4 1 .5 1.6-1.4-1-1.4 1 .5-1.6-1.4-1h1.8zm0 7.3l.5 1.6h1.8L13.1 22l.5 1.6-1.4-1-1.4 1 .5-1.6-1.4-1.1h1.8zm0 7.2l.5 1.7h1.8l-1.4 1 .5 1.6-1.4-1-1.4 1 .5-1.6-1.4-1h1.8zm0 7.3l.5 1.7h1.8l-1.4 1 .5 1.6-1.4-1-1.4 1 .5-1.6-1.4-1h1.8zm5.1-25.2l.5 1.7h1.7l-1.4 1 .6 1.6-1.4-1-1.4 1 .5-1.6-1.4-1h1.7zm0 7.3l.5 1.6h1.7l-1.4 1 .6 1.7-1.4-1-1.4 1 .5-1.7-1.4-1h1.7zm0 7.2l.5 1.7h1.7l-1.4 1 .6 1.6-1.4-1-1.4 1 .5-1.6-1.4-1h1.7zm0 7.3l.5 1.6h1.7l-1.4 1 .6 1.7-1.4-1.1-1.4 1.1.5-1.7-1.4-1h1.7zm5.1-25.6l.5 1.6h1.7l-1.4 1 .6 1.7-1.4-1-1.4 1 .5-1.7-1.4-1h1.7zm0 7.2l.5 1.7h1.7l-1.4 1 .6 1.6-1.4-1-1.4 1 .5-1.6-1.4-1h1.7zm0 7.3l.5 1.6h1.7L23.2 22l.6 1.6-1.4-1-1.4 1 .5-1.6-1.4-1.1h1.7zm0 7.2l.5 1.7h1.7l-1.4 1 .6 1.6-1.4-1-1.4 1 .5-1.6-1.4-1h1.7zm0 7.3l.5 1.7h1.7l-1.4 1 .6 1.6-1.4-1-1.4 1 .5-1.6-1.4-1h1.7zm5-25.2l.6 1.7h1.7l-1.4 1 .5 1.6-1.4-1-1.4 1 .6-1.6-1.4-1h1.7zm0 7.3l.6 1.6h1.7l-1.4 1 .5 1.7-1.4-1-1.4 1 .6-1.7-1.4-1h1.7zm0 7.2l.6 1.7h1.7l-1.4 1 .5 1.6-1.4-1-1.4 1 .6-1.6-1.4-1h1.7zm0 7.3L28 32h1.7l-1.4 1 .5 1.7-1.4-1.1-1.4 1.1.6-1.7-1.4-1h1.7zm5.1-25.6l.6 1.6h1.7l-1.4 1 .5 1.7-1.4-1-1.4 1 .6-1.7-1.4-1H32zm0 7.2l.6 1.7h1.7l-1.4 1 .5 1.6-1.4-1-1.4 1 .6-1.6-1.4-1H32zm0 7.3l.6 1.6h1.7L33.4 22l.5 1.6-1.4-1-1.4 1 .6-1.6-1.4-1.1H32zm0 7.2l.6 1.7h1.7l-1.4 1 .5 1.6-1.4-1-1.4 1 .6-1.6-1.4-1H32zm0 7.3l.6 1.7h1.7l-1.4 1 .5 1.6-1.4-1-1.4 1 .6-1.6-1.4-1H32z"/></g></svg>