<svg version="1" xmlns="http://www.w3.org/2000/svg" viewBox="0 0 288 288"><path fill="#F6F9FB" d="M33.1 105.2c.5 0 .6.2 1.1 0 .5-.2 1.8-1.1 2.3-1.2.5-.1.8 0 .1.4-.7.4-2.1 1.2-1.8 1.1.2-.1.9-.4 1.9-.8 1-.5.9-.3 1.2-.8.3-.5.4-.8.4-.8l1.7 1.7c.1.1.2 0 .3-.2.1-.2.2-.5.5-.4.2.1 0 .5.2.5.1.1.4 0 .8-.1s.2-.4.2-.4l.4-.1c.5 0 2 .5 2.4.7.4.2 1.8.3 2.2.4.4.1.5-.2 1 .1.5.3.9.7.5.8-.4.2-1.4.3-.9.5.5.1 1.3.3 2 .3s2-.3 2.4-.3c.4 0 .6.2 1 .9.4.6.7.9.8.9.1.1-.1-.3-.1-.6.1-.3-.1-.9-.2-1.1-.1-.2 0-.3-.2-.6s-.5-.2.1-.5c.5-.3.9-.6 1.5-.6.6.1.8.9 1.4 1 .6.1.7.3 1.6.4 1 .1.6 0 1.6.1 1.1.1.7-.1.9-.7.2-.5.5-.7.7-.6.3 0 1.2.1 1.2.3 0 .1-.4.7-.2 1 .2.3 1 .8 1 .8l-.2-.7c0-.1-.1-.6.1-.7.1-.1.7.1 1.1-.7.4-.8-.3-.7-.3-.7s-.2 0-.1-.3.8-.5.8-.5v-.1c-.1-.3-.6-.2-1.1-.2-.5 0-.8-.1-.9-.5-.1-.4-.1-1.3-.1-1.9 0-.6.5-.4.6-.7.1-.3 0-2-.1-2.3-.1-.3.2-1.1.2-1.6.1-.5.6-.3.6-.3-.1-.2.1-.6.8-.8.7-.2 1.9 0 1.9 0s-.1 0-.4.4c-.3.4-.1 1.1-.6 1.6s-1.7.3-1.7.3.4.8.2 1.1c-.2.3-.3.8-.3.8s1 .3 1.1 1c.1.7.6.8.7 1.4.1.6-.5 1.1-.4 1.2.1.1.2.1.6.2.4 0 .9.1.9.1s-.2.3 0 .6 0 .5.1.9c0 .4.2.7.3.6.1-.1.5-1 .6-1.4.1-.4.2-.6.3-.6.2 0 .8.5.8.7.1.2.1.5-.2 1-.3.5-.3.8 0 1 .3.2.3.1.8.4.5.2.4.2.7.1.3-.1-.1-.9-.1-.9s.8-.1.6-.5c-.2-.4-.3-.6 0-.8l.6-.4c-.1-.3-.2-.3-.4-1s.2-.5 1.2-.4c1 .1 1 .4 1.5.7.5.3.2.4.4.8s-.4.5-.4.5-.4.1-.3.4c.1.3.3.7.5 1.2.3.5-.1.8-.5 1.2-.4.4-.9.5-1.5.5-.5 0-.7.2-.8.1 0-.1-.3-.3-.6-.2-.3.1-.9.3-.7.4.2.1.8.1.6.5-.2.5-.5.5-.9.4-.5-.1-.9-.1-1.3-.1-.3 0-1.8-.1-1.8-.1s1 .6 1.9.9c.8.3 1.7.1 1.7.1s-.3.6-.7 1.3c-.4.7-.8.4-1.1.4-.3 0-.5.3-1.2.4-.6.1-1.9-.2-1.7-.1.2.1.3.3.6.3.4.1.6.1.9.4.3.3-.2.3-.6.4-.4.1-.5.1-.7.4-.2.3-.9 1.3-1.1 1.6-.2.3-.4.8-.5 1.4-.1.6-.6 1.3-.4 1.5.2.2 1.1.2 1.5.4.4.2.8 1.3 1.1 1.8.3.4.5.7.8.4.3-.3.9-.2 1.5 0s1.8 1 2.1 1.4c.4.4 1 .3 1.7.4.7.1.8.4.8.4s.8 0 .4.4c-.3.3-.4 0-.1.5.3.5.3 1.3.2 1.6-.1.4 1 .2 1.5.4.5.3.5 1.4.7 1.2.2-.1.6-.4.7-.7 0-.3 0-.7-.1-1.2 0-.5-.2-1.4-.4-1.8-.2-.4.4-.5.3-.7-.1-.2-.1-.5.4-.6.5-.1.5 0 .8-.2.3-.2.3-1.1.3-1.4 0-.3-.1-1-.2-1.3-.1-.3-.6-1.1-.7-1.3-.2-.2-.4-.2.1-.8.5-.6.2-.5.1-.6-.1-.2-.2-.6-.3-1-.1-.4.2-.8 0-1.4-.2-.6-.3-.4-.3-.6 0-.1 1.1-.1 1.9 0 .8.1 1.1-.1 1.3-.1.2 0 .6.2 1.1.5.4.3.6.2.8.5.2.3.3.5.8.5s.9.2.9.2-.3.2-.3.8c.1.6-.1 1.1-.1 1.3 0 .2.1.3.3.3.2 0 .8.5 1.4.7.6.2.7.1.9-.3.2-.5.2-.4.5-.5.2 0 .3.1.4-.1.1-.1-.2-.3-.1-.6s.4-.8.7-1c.3-.2.5.2.7.7.2.5 1 1.9 1.3 2.4.2.5.5.5.3 1-.3.5-.4.7 0 .9.4.2.8.6.8.9 0 .3-.1.4 0 .4.1.1.7-.2 1 0 .4.2.8.3 1.1.6.3.3.2.4-.1.5-.4.1-.8.3-.9.4-.2.1-.5.3-.5.5s-.1.5.2.2c.3-.2.8-.5 1.1-.6.4-.1.1 0 .4-.1.3 0 .6.2 1.1.3.4.1.3.4.2.7-.1.3-.2.5 0 .8.2.3-.1.5-.5.9s-.7.4-1.3.5c-.6.1-.9.5-1.4.9-.4.4-.7.3-1.3.3-.6 0-.4-.3-.6-.2-.2.1-.5.3-.9.3s-1.8.1-2.3.2c-.5.2-.4.5-.5.8-.1.3-.3.2-.7.3-.4.1-.9.7-1.3 1.5-.5.8-1.1 1.3-1.1 1.3.1 0 .8-.4 1.1-.8.3-.4 1.7-1.3 2.1-1.6.4-.3 1.3-.7 1.5-.7.2.1.7.5.7.7 0 .2-.2.4-.5.7-.4.4-.9 0-.8.1 0 .1.3.5.6.5.3.1.3.4.3.6s-.2.4.5 1 1.1.6 1.6.6.2.2.4.1c.2 0 .2-.4.3-.7.1-.3.2-.6.4-.7.2-.1.3-.4.4.1.1.5-.2 1.1-.5 1.3-.3.1-.2.3-.2.5 0 .1-.3.2-1 .5-.7.4-.9.5-1 .4-.1-.1-.4.1-.7.4-.3.3-.7.7-.9.7-.2 0-.5-.1-.1-.5.3-.3.4-.8.8-1 .3-.2.5-.1.8-.1.3 0 .1-.2.4-.3.2-.2-.2-.1-.5-.2-.4-.1-.1-.4-.1-.4l-.4.2s-.6.3-.7.3c-.2 0-.1.1-.2.2 0 .1-.6.1-.6.1s-.3.6-.7.7c-.4.1-.1.1-.4.2-.3.1-.3-.2-.3-.1-.1.1-.1.2-.5.4-.3.3-.5.3-.8 1.3-.2.9 0 1.3 0 1.4 0 .1-.4-.1-.6 0-.1.1-.4.5-.8.6-.4.1-1.1.3-1.3.5-.2.2-.2.4-.3.8-.1.4-.5 1.2-.5 1.2s.1-.3-.2-.6c-.3-.2-.3-.5-.3-.5s-.1.3 0 .7c.1.4.3.7.2 1.1-.1.4-.3.9-.5 1-.2.1.1-.3.1-.6s-.2-.3-.3-.5c-.1-.2-.1-.5.1-1.1.2-.5-.2-.2-.4.1-.2.4-.3 1 0 1.4.3.4-.2.4 0 1s-.3.9-.2 1c.1.1.3 0 .4.3.1.3-.2.2-.3.2-.1.1-.1.2 0 .4s.2.1.1.1c-.1.1-.2.3-.5.4s-.3-.1-.5.2c-.2.2-.3.4-.5.6-.2.2-.3.2-.5.3l-.5.5c-.2.2-.8.5-1.1.9-.3.4-.2.5-.4 1.2-.1.7.4 1.8.7 2.9.3 1.1.5.8.4 1.1 0 .3-.2.8-.4 1-.2.2-.4-.2-.7-.4-.3-.2-.1-.4-.4-.9-.3-.5-.3-.7-.3-1 0-.4-.1-.9-.3-1.3-.2-.4-.5-.9-1.1-.7-.5.2-.4.1-.7 0-.3-.1-1.1-.4-1.4-.2-.4.2-1.6-.1-1.9 0-.3.1-.4.1-.4.3s-.1.2.3.3c.5.1.4.3.4.5s-.4-.1-.5-.2c-.2-.1-.3.1-.7.1-.3 0-.4-.3-.6-.3-.3 0-.4 0-.7-.1-.3-.1-.6-.3-.9-.3-.3 0-1.5.8-2.1 1.2-.6.4-1 .8-1.1 1.2-.1.3-.1.4.3.9.5.5.2.4.2.7-.1.3-.4.6-.7 1.4-.3.7-.1 1.1.3 1.8s.7 1.2 1 1.5c.3.3.5.6.8.7.3.1.3.2.4.3.1.1.1.2.5.1s.7-.3 1-.3c.3 0 .6 0 .7.2.2.2.2.1.2 0s.1-.4.2-.5c0-.1.4-.7.5-1 .1-.3.1-.9.5-1 .4 0 1.2-.2 2-.2.8.1.4.4.2.8s-.3.4-.3.7c0 .3.1.3-.2.5-.2.2-.1-.1-.2.1s-.5.4-.4.4c0 0 .2.3.2.5v.7c0 .4-.8.8-.8.8s.3.2.7.2c.4 0 .9 0 1.4.2.4.2 1.3-.2 1.9.1.6.3.4.5.4.8 0 .3.1 1.3.1 1.5 0 .2-.3.9-.5 1.3-.2.5.4.8 1 1.2.6.4 1 .5 1.3.6.3.1.8-.4 1.8-.4 1 .1 1.3.9 1.3.9s.1-.5.6-1.2c.4-.7.5-.9 1.1-1.1.6-.2.8-.3 1.8-.6s.8-.1 1.3 0c.5 0 1.7.1 2.9.5s3 .5 3.7.7c.7.3 1 1.1 1.7 1.8s1.6 1.3 2 1.6c.4.3 2.5.6 3 .8.5.2 1.1 1 1.2 1.4 0 .5.5.7 1.2 1 .6.3.8.6 1.3 1.4.4.8.3 1.1.9 1.3.6.2 4.6 1.3 5.6 1.7 1 .4 2.3 1.4 2.6 1.6.3.1.9-.1 1.2 0s-.2.9.2 1.5c.3.6.4.6.2 1s-1 1.4-1.3 1.9c-.3.5-1 .8-1.4 1-.4.2-.7 0-.4.4.3.4 0 .8-.3 1.1-.3.4 0 .3-.1 1.5s0 2.5-.1 3-.9-.5-1.8.7c-.9 1.1-1.1 2-1.7 2.1-.5.1-1.8.7-2.2 1.1-.4.4-.5.5-.8 1.1-.3.6-.5 1.8-.8 2.5-.3.7-.8 1.1-1.8 2.1-1.1 1-1.5 2-2.2 2.7-.7.8-.5.6-.7.7-.4.4-1.9-.6-1.5-.1.3.4-.2 0 .1.4.2.4.4.5-.1 1.2s-1.1.5-1.6.6c-.4.1-1.1-.4-1.1-.2 0 .3-.3.9-.6 1.1-.3.2-1.2.4-1.2.5.4 2 1.3 2.2.4 2.1-2.5-.2-.7-.8-2.5 2.8-.3.6-.5.3-.5.9 0 .7 0 1.2.4 1.6.4.4.1.4-.5 1s-.6.5-1.2 1.3-1.1.8-.9 1.4c.2.6.2 1.6.6 2.5.3 1 1 .8 2.1 1.4 1.1.7 1.2.3 1.8.5.5.2-.4.2-1.3.4-1 .2-1.6.4-2.2.2-.7-.1-2.2-1.1-2.8-1.4-.5-.4-1.4-1.1-1.7-1.8-.3-.7-.5-1.4-.9-2.3s-.1-1.5.1-3.6c.2-2 .3-3.6.6-4.7s1.2-6 1.4-7.2c.2-1.3 1.4-6.4 1.5-7.2.1-.8.2-1.4.3-2.2.2-.8.1-2.4.1-2.5s-.1-.1-.3-.9c-.2-.8-.6-1.1-1.2-1.4-.6-.3-1.1-.7-1.6-1.1-.4-.3-1-.7-1.4-1.3-.4-.6-.9-1.7-1.1-2.2-.2-.5-1-2.1-1.8-3.2s-.8-1.1-1.2-2.3c-.4-1.2.3-1.2.5-1.9.1-.7.6-1.3 1.1-2.3.5-.9 1.1-1.2 1.5-2 .4-.8.1-.8 0-1.6s0-.7-.2-1.1c-.2-.4-.4-1-.6-1.1-.2-.1-.6-.2-.8 0-.2.2-.6.9-.8.9-.2 0-.3-.2-.4-.4-.1-.1-.8-.1-.9-.3-.1-.1-.5-.2-.7-.3-.2-.1-1.1-.6-1.3-.8-.2-.2-.6-.7-.6-1.2s-.5-.7-1.5-1.5c-1-.7-1.5-.8-2.8-1.2-1.3-.3-1.8-1.2-2.2-1.4-.4-.2-.4-.5-1.3-.4-.9.1-2.1-.4-2.8-.7-.7-.3-2-.5-2.5-.8-.5-.4-1.5-.5-1.9-1.3-.4-.8-.3-.5-.2-1.3.2-.7-.9-1.4-1.6-2.1-.6-.7-1.1-.8-1.5-1.7-.3-.9-.8-.8-1.5-1.4-.6-.6-.7-1.4-.9-2.1-.3-.7-2-1.7-2-1.7s.5 1.2.7 1.7c.2.5.7 1.6 1.2 2.5.5.8 1 1.1 1.5 1.9.5.8 0 1.4-.2 1-.2-.3-.9-.5-.9-.9s-.2-.6-.3-1c-.2-.3-.8-.7-1.5-1.2s-1.1-.8-.7-.8c.4 0 1 .4.9.1-.1-.2-.9-1-1.2-1.6-.4-.5-.5-1.1-.8-2-.4-.9-1.7-1.8-2.3-1.8-.6-.1-.8-.4-1-1-.2-.7-.3-1.4-.6-1.9s-1.5-2.3-1.6-2.9c0-.7-.4-2.6.1-3.7.4-1.1.3-3.5.3-4-.1-.5-.9-1.4-.9-1.7 0-.4.5-.1.8 0 .4.1 1.1.4 1.1.4s-.6-1.1-.9-1.4c-.4-.4-1.4-.8-1.9-1-.5-.1-1.1-.3-1.3-.7-.2-.4-.5-.9-.7-1.2-.2-.3-.9-.7-1.1-1.1-.2-.4-.1-1-.4-1.4-.2-.4-.6-.6-1-.4-.4.1-.5-.2-.8-.7-.3-.5-1-.8-1.2-.8-.2-.1-.9-1-.9-1.2 0-.2-1.1-1.4-1.5-1.7-.4-.2-3.8-1.4-3.9-1.4-.1 0-1.1.1-1.4.1-.3-.1-1.2-.9-1.6-1-.5-.2-.8.2-1 .7-.2.5-1.3 1.4-1.9 1.8-.6.4-1.1.4-1 .2 0-.2 0-.5.2-1s.3-.6.9-1c.6-.3.6-.3.4-.3-.2 0-.4 0 .1-.3s.7-.3.7-.6c0-.2-1.1.3-1.7.9s-1.1.9-1.6 1.9c-.6 1 .1.6-.4 1.2s-2.2 1.9-2.6 2.4c-.5.5-2.5 1.5-3.3 1.8-.8.2-1.2.4-1.6.7-.4.3-1.4.4-1.1.2.3-.2 1-.7 1.4-1 .4-.2 1.6-.7 1.9-.8.3-.1 1.3-.7 1.7-1.2.5-.5.8-1.1 1.1-1.6.3-.5.4-.7-.3-.5-.6.2-1.3.1-1.6 0-.3-.1-1.2.4-1.5.2-.3-.2 0-.7-.2-.9-.2-.2-.9-.1-1.3-.2s-1.1-.4-1.1-1.1c0-.6-.4-1.2-.2-1.6.2-.5.6-.6 1-.9.4-.3 1.5-.6 1.7-.6.2 0 .5-.2.7-.4.2-.2-.5-1-.5-1s.1-.1.4-.2c.3-.2.1-.5-.4-.5-.5.1-1.5.5-2.1.7-.6.2-1.5.1-1.4-.2 0-.3.2-.4-.1-.6-.2-.2-.4-.4-.2-.5.2-.1 1.6-.9 1.6-.9s.5.5 1 .6c.5.1 1.7-.9 1.7-.9-.7-.4-.6-.6-.6-.6s-1.2 0-1.4-.2c-.3-.2-.4-.5-.4-.8-.1-.3-1.2-.5-.9-1 .3-.5.9-.6 1.3-1.1.4-.5.7-1.4 1.8-1.9s2.4-1 3-1.4c.6-.4.8 0 1.1 0 .2.1 1.6-.1 2.1-.1s.6.6.8.7c.2.1 4.9.3 4.9.3s4 .1 4.8.3c.8.2 2.2.8 2.2.8.4-.1.3-1.1.9-1.1zm53.4-24s-.4 1.7-2 2.1c-1.6.5-4.5 1.7-4.7 1.8-.1.1.2 1 .6 1.4.4.5.8.8 1.1 1.2.4.5 1 .4 1.5.9s.8.3 2.2.3c1.3 0 1 .1 2.5.2s3 .2 3.6.7c.5.5 1.2 2.2 1.7 3.3.5 1.1 1.3 2.9 1.3 3 0 .2-.5 1.5-.5 1.7 0 .2.3.6.5.8.2.3.1.5.1.8 0 .3.3 1 .3 1 0 .1.7-.7 1.1-.8.4-.1 1.5.7 1.5 1.3 0 1.4.4.9-1.8 2.5-.3.2-.6 1.8-.4 2.6.2.8.8 1.7 1.2 2.8.4 1.1 1.7 2.7 2.1 3.4.4.7.5 1.7 1.4 1.9.9.2 1.7.5 2.4.7.6.1 1.1.4 1.4-.2.3-.6.9-2.9 1.4-4.5.5-1.7 0-2.2 1.2-2.5 1.2-.4 3.1-1.1 3.6-1.3.5-.2.4-1.9 1.6-2.4 1.1-.5 1.3-.5 2.4-.8 1.1-.4 2.7-1.1 3.8-1.8 1.1-.8 1.4-.4 1.8-1.1.4-.7-.4-1.8-.5-2.9-.1-1.1.4-1.1.6-2.1.2-1 .3-1.6 1.2-2.3.9-.7 1.3-1 1.2-1.7-.2-.6-.6-1.6-.6-2.2 0-.7.2-.3-.2-1.2-.4-1-.4-1.1 0-2 .3-.9 1.2-.7 1.2-1.1-.1-.4-1.4-1-1.4-2.1s.2-1.4.5-1.7c.2-.3 2.5-2.1 2.6-2.2.2-.2 0-.6 1.1-1.2 1.1-.5 1.5-.9 1.9-1.1.4-.2 1.1-.1-.2-.5s-1.6-.5-2.4-.4c-.8.1-1.1.6-2.6.7-1.5.1-3.2.8-3.2.8s.5-.5.1-.9 1.2-1.9 1.4-2c.3-.2-2.1-.7-3.3-1-1.2-.2-3.6-1-5-.8-1.4.1-3.4.1-4.1.3-.7.2-.6 1.1-1.4 1.2-.8 0-2.2-.5-3.3-.3-1.1.2-2.9.9-3.1 1-.2 0 .7.6 1.3.7.6.1 1.3 1.3 1.3 1.3s-1.6-.5-3.1-1c-1.6-.4-3.4 0-4.1.2-.6.2-1.5.5-2.8.6-1.3.1-2.8 1.1-3.5 1.6-.7.5-3 1.8-3.6 2.1-.6.3-.4.5.3.6.1.5.8.6.8.6zM53.6 98.3c.2.8.2 1.8-.2 1.4-.4-.5-.8-1.4-1.4-1-.7.4-1.4.3-1.3.2.1-.1 0-.5-.4-.6-.3-.1-.5.1-.9.3-.4.2-1.5.5-1 .1s.3-.6.1-1c-.2-.4-1.3.3-2 .7-.6.4-1 1.1-1.4 1.6-.4.5-.1.7.5.9.6.2 1.5.3.7.6s-1.3.5-.9.7c.4.2 1.1.3 1.7.2.7-.1 1.2-.3 2.3 0 1.1.3 1.7.3 1.7.3s-.4.2-1.1.4c-.7.1-2 0-2.7.1-.7.1-1.7.3-1.5.6.3.2.5.6 1.4.9.9.3 1.1 0 1.6.2.5.1.3.8.4.9.1.1 1.2-.1 2.2-.3 1-.2.7-.4 1.5-.6.8-.2.8-.8 1.3-1 .5-.1.1.3.7.5.6.1.3.2.9.3.6.1.5.3 1.1.3.6 0 1.3-.4 1.2-.5-.1-.1-.2-.2-.1-.5s-.6.1-.8.2c-.2.1-.2-.4.3-.6.5-.2 1 0 1.2 0 .3 0 0-.9-.5-1-.5-.1-.8-.5-1.6-.9s-.4-.6-.6-1.2c-.2-.6-.7-2.3-1.2-2.6-.4-.3-.9-.2-1.4-.5.1-.3 0 .1.2.9zm-12.3-1.2c.2.6.2.2-.2.8-.4.6-.2.8-.4 1.3-.3.5-1 1.1-.8 1.4.2.3.9.5 1.2.7.3.2.6.7 1.1.5.5-.2.7-.3 1.1-.5s.7-.4.7-.9 0-.7.1-.7.4.3.5-.1c.1-.3.3-.7.6-1 .3-.2 1-.5 1.3-.8.3-.3.9-.6 1.1-.9.2-.2-.3-.4-.6-.6-.3-.1-.6-.6-1.3-.6-.7 0-1 .5-1 .3s-.4-.3-.7-.4c-.3-.1-.5-.2-1.4-.2-.8.1-1.2.2-1.9.3-.4.5.4.8.6 1.4zm19.3 6.6c-.1.1-.5.2-.7.5-.2.3.5.1.7.2.2.1.4.3.6.4.2.1 1.2.1 1.7-.1.4-.2.5-.3.4-.4 0-.1-.9-.9-1.5-1.3-.6-.3-.6-.3-.8-.3-.1.2-.3.9-.4 1zm-2.8-6.5c-.4.2-.7.4 0 .8.7.3.9.6 1.4.9.5.3.7 1.1 1.6.7 1-.4 1.3-.8 1.5-1.2.1-.4-.1-.5-.4-.8-.2-.4-.3-.5-.8-.5-.5.1-.7.1-.7.1s.3-.4.9-.7c.5-.3.1-.4.3-.7.3-.2-.6-.4-1-.3-.4.1-.4 0-1-.1-.6 0-1.6.6-1.6.8 0 .2.5.1 1 .4.4.2.6.2.1.9-.4.7-.7-.2-.8-.3-.2 0-.1-.2-.5 0zM54.9 96c-.7.1-.9.5-.6.6.3.1.4-.1.8.4.4.4.8.7.9 0 .2-.8-.1-1.1-1.1-1zm-10.7-5.4c-.7.6-.9 1.1-1.5 1.4-.6.4-.4.7-.3.9.2.2.8 0 1-.2s.5-.5.7-.3c.2.2.8-.7 1.1-1 .3-.3.7-.6.8-.6.1 0-.3.4-.1.6.1.3.7.3 1.1-.2.5-.5 0-1 .4-1.3.4-.4.7-.3 0-.7-.7-.3-1.2 0-1.3.2-.1.4-.4.1-1.9 1.2zm4.5 1c-.4 0-.6.1-1.3.4-.7.3-1 1.1-1.2 1.5-.2.4.1.4.7.7.6.2 1.5-.1 1.7-.7.2-.6.5.1.3.4-.1.3.4 0 .7-.1.3-.1 1.1-.2 1.1-.2.1 0-.7.5-1.3.8-.7.2-1.3.4-1.5.4-.2 0 .2.3 1 .5s1.3-.5 2.5-.9 1.1-.5 1.5-.4c.4.1.8-.2 1.3-.3.5-.1.7.1.9-.6.2-.7.6-1.4-.1-1.4s-.7 0-.8.7c-.1.8-.1.3-.1.3s-.4-.7-.7-1c-.3-.3-.5-.9-.8-1.2-.3-.3-.4.1-.9.6s-.1.7.4.9c.5.2.8.8.6.9-.2.2-.5 0-1.3.1s-.8-.3-1.1-.4c-.2-.1.4-.3-.5-.7-.8-.4-.8-.3-1.1-.3zm-2.7.7c.1-.2-1.1.7-1.3 1-.2.3.2.2.6.2.3 0 .4-.7.7-1.2zm2.4-1.8c-.3.1-.3.2.2.3.5.1.8-.2.7-.4-.2-.2-.7 0-.9.1zm2.5-2.7c-.3.1-1.3.4-1.3.6-.1.2 0 .5.2.8.1.3.2.3 1 .1.8-.2 1.4-.6 1.1-.7-.3-.1-.4-.2-.7-.2-.2 0 .2-.2.8-.3.5-.3.7-.5-1.1-.3zm-2.8.5c-.2.1-.3.1.2.3.5.2 1 .2.9 0-.1-.2-.5-.6-1.1-.3zm1.9-1.4c-.5.2-.6.5-.7.6-.1.1.5-.1.8-.2.3-.1.4.1.6-.1.3-.2.8 0 1.3-.1s.6-.4.5-.7c0-.3-1.2 0-2.5.5zm5 1.3c-.1.1-.1.3 0 .5.1.3.1.2.4.3.3.1.5.3.6.4.1.1.1.1.2-.2.1-.2-.1-.2-.3-.5-.3-.4-.5-.7-.9-.5zm1.7 2.1c-.4-.1-.6.1-.7.2-.1.1.1.2.2.5s0 .4.6.4.7-.1.8-.4c-.1-.3-.5-.6-.9-.7zm2.2.7c-.3-.3-.5-.5-.9-.3-.3.1 0 .3 0 .4 0 .1.4 0 .4.2s.1.3-.4.4c-.5 0-.7 0-.9.2-.2.2.4 0 .6.2.2.2.5.3 1 .2.5-.1 1.2-.2 1.2-.2s-.4.3-.5.6c-.1.2-.2.6.1.8.3.2.3-.2 1-.2s.9-.4.9-.4-.2-.2-.1-.5V92s.3.2.4.3c0 0-.1-.2-.2-.6-.1-.4 0-.4-.1-.9s-.1-.6-.6-.6-.9.2-1.4.2c-.4 0-.6.1-.3.2.3.2.4.4.5.6.2.2.1.6.1.6-.1-.2-.8-.8-.8-.8zm-2.7 2c-.2.1-.3.4-.3.5 0 .2.3.1.8-.1.4-.2.2-.7-.5-.4zm7-1c-.4.2-.7.5-1 .8-.2.3 0 .3.6.6s1.3.4 1.6 0c.2-.3-.2-2-1.2-1.4zm2.8-2.4c-.8.1-.5.2-1.5-.1-.9-.3-2.1-.3-2.4-.3-.3 0-.2.1.2.7.3.5.4.7 1.1.5.7-.2 1.2-.3 1.7.4s.7.9.3 1.2c-.4.3-.2.7 0 1.2s.8.5 1.5.5 5.5-.1 6.2-.2c.7-.1 1.4-.8 1.8-1 .4-.3.6-.7.1-1-.5-.3-1.3-.6-1.9-.6-.6 0-1.1.3-2 .4-.9.1-.7.5-1.5.5s-.4.4-1.4 0c-1-.4-1.8-.9-1.3-1 .5-.1.9-.1.6-.4-.3-.2-.7-.9-1.5-.8zm-9.4-3.8c.5.2.6.3.1.4-.5.1-1 .5-.4.5.5-.1 1 .1 1.7.2s.6 0 1 .4c.3.4.6.4 1.1.3.5-.1.5-.1.2-.5-.3-.3-.6-1-1.1-1.2-.4-.2-.8-.6-1.2-.6-.4 0-.5.1-.9-.4s-.7-.3-1.2-.1c-.5.1-.7.5-.9.7-.4.2 1.1.1 1.6.3zm6.4-5.1c-.6.7-1 1.3-.4 1.4.7.1.9-.1 1 .2 0 .2-.1.4-1.1.4s-.7.2-.1.9c.5.6.6.4 1.4.4.8 0 1.1-.3 1.8-.1.7.2.9.4.3.5-.6.2-2.1.5-1.8.8.3.3 1.4 1.1 1.8 1.1.5.1.6-.3 1.6-.2 1 .1.8.2.9-.1.1-.3.7-1 .8-1.3.1-.3.4-.4.9-.5.6-.1.7-.3.2-.5-.5-.2-1.1-.3-1.1-.4.1-.1.4-.6.2-.8-.2-.2-.6-.2-.9-.3-.3-.1-.6-.6-1-.9-.4-.2-.7-.2-1.1-.6-.4-.3-1.2-1.2-2-1.1-.5 0-.8.4-1.4 1.1zm-1.1 6c-.2.1-.8.1-.4.5.4.3.3.4.8.2s1.3-.7 1.3-.8c.1-.1-.5-.4-.9-.5-.4-.1-.7-.4-1.5-.7-1.2-.4.9 1.2.7 1.3zM89.1 76c-.9-.2-4.2-.9-5.3-.6-1.1.2-1-.6-2.5-.4-1.5.2-3.8.1-4.5.2-.7.1.4.4.7.7.4.2-1.8-.3-3.5.2s-2.8.7-1 1.4c1.8.7 2 .9 2 .9s-2.3-.4-3.3-.8-.4-.4-2.3.2c-1.8.5-3.6.8-3.5 1.4.1.6 1.5 1.3 2.4 1.5.9.2 2.8-.3 3-.3l-.7.7s.9-.2 2-.5 1.9-.6 2.9-.9c1-.4 1.2-.5 1.2-.5s-1.7 1.4-3 1.8c-1.2.5-2.8.8-3.5.8-.7 0-.6.5.1.9s1.3 1.2 1.7 1.5c.4.3.4.7.4.7s-1.2-.9-2.4 0c-1.3.9-1.1 1.4-.8 1.5.3.1 1.5.2 1.7.6.2.4 1.7-.4 1.7-.4s-.7.9-1.5.9c-.7 0-.7-.6-1.7-.5-1 .1-1 .4-.5.7.4.4.8.5 0 .8-.8.4-1.1.5-1.2.9 0 .4 1 .4 1.7.4s1.3-.1 2.5-.1 1-.4 1.5-.4c.4 0 .9.1.7.6-.2.4.2.2 1.5-.3s.7-1.2.6-1.4c-.1-.2-.6-.3-.9-.5-.3-.1.9-1.4.7-1.8-.2-.4 1.5-.1 2.2-1 .7-1 .5-1.7-.1-1.8-.5-.2 1-.1 1.5-.3.5-.3 1.5-.6 1.9-1.1.4-.5.6-.7-.4-.6-1 .1 1.4-.4 2.6-1.2 1.2-.8 2.5-1.7 2.8-1.9.3-.2.6-.1-.8 0s-3.1-.1-2.1-.2c.9-.1 3.6-.4 4.4-1 .7-.7 1.1-.8 1.1-.8zM72.5 95.1c-1.5-.1-3.6-.5-4.1.8-.4 1.3-1.1 4.1-1.2 4.6-.1.5 1.8 1.3 3.1 1.4 1.3.1 3.3.1 2.9-.2-.4-.3-.1-.5 1.1-.4s1.3-.2 1.3-.5c0-.2.2.3 1 .7.8.4 1.5 1.7 2.3 2.4.7.7 2.4 1.7 2.1 2.2-.3.6.4 2.5-2.2 2.9-2.5.4-2.7.1-2.7.7s.1.8 1.2.8c1 0 2.4-.8 2.9-.2.5.6 1.1.8 1.5 1 .4.1-.5.4-.7.5-.2.1.5.2 2 .9s3.2.8 2.3.3c-.9-.5-1.3-1.4-1.7-1.7-.4-.3 0-.1.7.1s1.3.7 1.6 1c.3.2.4-.1.7-1 .2-1-.1-1-1.2-1.7-1.2-.8-1.5-1.4-1.6-1.9-.1-.6.6-.7.9-1 .3-.4 1.1.7 1.7 1.3.6.6 1 1.7 1.5.9.4-.8.9-2.6.9-3 0-.4-.4 0-2.3-.9s-2.9-1.3-3.1-1.3c-.2 0 .5-.4 1.3-.8s1.2-.4-.6-2c-1.8-1.7-2.3-2-3.4-2.2-1.2-.1-1.5-1.3-2.3-1.7-.8-.4-2.8.5-3.3.6-.6.1-.4.4-1.1-.7-1-1.1-1.5-1.9-1.5-1.9zm1.3 0c-.7.1.4 1.4 1.4 1.5.9.1 1.7-.4 2-.5.2 0-2.2-1.1-3.4-1zm-3.3 13.7c-.1.3-.4 1.1-.5 1.7 0 .6-.1.6-.2 1s.4-.1.7.5c.3.5.2.7.7.1.6-.6 1.2-.8 2-.6.8.2 1.4.4 1.1-.1-.3-.5-.6-.4-1.2-1.1-.5-.6-.9-.8-1.6-1.1-.7-.3-.8-1-1-.4zm5.6 48.3c-.2-.5-.6-1.3-2-1.5-1.4-.3-1.9.3-2.5.4-.5.2.5.3 1.2 0s1.2-.1 1.3.1c.1.1-.2.2-.3.1-.1-.1-.1.3.6.6.8.3 1 .4 1 .7.1.3.1.5.2.8.2.3.2.4-.1.5-.3.1-.2.1 0 .3.2.1.7.4 1.4.5.7.1.9.2.4-.4-.3-.7-1.2-1.9-1.2-2.1zm2.1 3.1c.4.4.3.8.2 1 0 .2-.4 0-1.2-.1-.7-.2-.6-.1 0 .2.6.3 1.1.3 1 .7 0 .5.6 0 .9-.2.3-.3.3 0 1.4.1 1.2.2 1.4.4 1.2-.1-.2-.5.5-.5-.5-.9s-3.4-1.2-3-.7zm-3.2.2c-.4-.5-1-.5-1-.1s.1.4.5.5c.4.1.7 0 .5-.4zm8.3 2.1c-.5-.2-.6.2-.3.5s.8.2 1.3.2-.2-.4-1-.7zm-5.4-57.7c-.6.3-1 .4-.4 1.2.5.7.9 1.2 1.1.6.1-.5.3-2.2-.7-1.8zm-5 7.7c-.9.2-1.2.2-1.1.7.1.5.4.4 1 .1.7-.3 1.1-1 .1-.8zm2 .8c-.2 0-.2.4 0 .7.2.3.6-.1.8-.5.1-.4-.2-.4-.8-.2zM64.6 87.8c-.9 0-2.2.3-1.5.4.7 0 1.3.2 2.5.1s1.3-.2 1.3-.7c.2-.7-.7.1-2.3.2zm-5.5-4.9c-.9.3-.7.5.4.9 1.1.5 1.1.2 1-.6-.2-.8-.9-.4-1.4-.3zm63.3 23.1c-1.1.3-1.5.1-1.7.7-.2.6-.7.3-.9.3-.3.1-.6 1.7-.8 1.4-.2-.2-.2-.4-.5-.9s.1-.4-.4-1-1.5-.5-1.5-.3c-.1.2.7.4.4.7-.3.3-.9.6-1.1.8-.2.2.4.1.9 0 .4-.1.7.3.9.6.2.3-.2.6-.4.7-.2.1.6.1.9.2.3.1.5.3.3.7-.2.4.9.1 1.6 0 .6 0 .8.4 1.8.1 1-.3 1.4-.3 2.3-.9.9-.7.8-.5 1.4-.9.6-.4.4-.6.5-1 0-.5.4.1.2-.6-.1-.7-.9-.5-1.4-.6-.5-.1-.5-.5-.7-.6-.4 0-.7.3-1.8.6zm74.9 60.8c0 .2-.1.4-.1.7v1.1c0 .4.1.6.3.7.2.1.3.2.7 0 .3-.2.7-.4.5-.9-.2-.4-.5-1-.7-1.3-.2-.2-.6-.6-.7-.3zm-.2-.5c0 .2.1.1.2.2s.2 0 .1-.1-.1-.2-.1-.2-.2 0-.2.1m31.9 22c-.6.7-1.2.5-2.2.8-1.1.3-2.9 1.4-3 1.9-.1.5 0 .5-.1.5l-.4-.4s-.3.6-.2 1.1c.1.5.3.8.3 1.5s-.3 1.1-.2 1.5c0 .5.8 1.3 1 1.9.2.5.3.4.4 1.4.1 1 .6 1.5.1 2s-.9.4-.3 1c.6.5 1.1.9 2.1.5s.7-.7 1.5-.8c.8-.2.9-.3 1.6-.4.7 0 1.1 0 1.4-.5.2-.5.1-.5.7-.8.7-.3.6-.4 1-.5.4-.1.7.2 1.3-.2.6-.5.2-.5 1.5-.5s1.9.2 2.4.4 1.3.6 1.5.9c.2.3.5.7.6.7.1 0 .2 0 .5-.3s1.2-.9 1.2-.9 0 .7-.2.9c-.2.2-.2.6-.2.7 0 .1.5-.4.6-.4.1 0 .1.9.2 1 .1.1.3 0 .5.3s.5.5.7 1c.2.5 1 1 1.6 1.1.5.1 1 0 1.4 0 .4-.1.4-.5.8-.4.4.2 0 .6 1 .5 1-.1 1.3-.4 1.7-.7.4-.3.4.4 1-.3.5-.7.6-.5.7-1.4.1-.8.1-1 .6-1.8s.6-.4.9-1.6c.3-1.2.8-2.3.7-3.3 0-1 0-.3-.2-1.4-.2-1.1-.1-1-.8-1.4-.7-.5-.9-.3-1.1-1-.2-.6 0-.8-.3-.8s-.6.1-.8-.3c-.2-.4-.2-.6-.6-1-.4-.4-.7-.3-1.4-.6s-.3-.4-.3-.9 0-1.1-.5-1.4c-.5-.2-.2.1-.2-.7 0-.9 0-.8-.4-.9-.4-.2-.6-.1-.9-.7-.3-.5-.7-1.4-.8-1.8-.1-.4-.3 0-.5.3s-.4.8-.4 1.4c0 .5.2.8.2 1.6 0 .7-.5 1.4-.8 1.8-.3.4-.6 0-.8-.1-.3-.1-.3-.5-.9-.8-.6-.3-1.6-.5-2.1-1-.5-.4-.1-.4 0-.9.1-.4.4-.8.7-1.1.4-.3.3-.4-.2-.6-.4-.2-1.1-.3-1.8-.3-.8 0-1.2-.1-1.2.4 0 .4.5.6-.1.5-.6-.1-1.2-.2-1.5.1-.3.3-.3.5-.5 1.1-.2.6 0 .7-.2.7-.3 0-1.3-.5-1.7-.7-.4-.2-.5-.1-1 .2-.4.4-1.9 1.6-2.4 1.9-.6.4-.6.3-1.2 2zm-19.7-18.7c-.3 0-.5-.1-.1.4s.5.6.9.9c.4.3.5-.2.8.4.3.7.2.7.5.9.3.2.5.3.6.6.1.2.2.6.5.9.3.3.3.2.5.8.2.5.5.9.6 1.4.1.5 1 .9 1.4 1.4.4.6 1.2 1.4 1.3 1.1.1-.2.4 0 .7-.1.2-.1.3-.4.4-1.2.1-.8-.1-1.1-.3-1.3-.2-.2-.6-.2-.7-.4-.1-.2-.3-.7-.5-.9-.3-.2-.3 0-.3-.4s.3-.4-.1-.6c-.4-.2-.4-.4-.5-.6-.1-.1-.9-.3-1.1-.5-.2-.2-1.1-.6-1.5-1-.4-.4-.9-.7-1-1-.3-.3-.8-.6-2.1-.8zm8.6 8.9c-.4 0-.5-.2-.8.2-.2.4-.2.4.2.4s.3.2.3.2c0 .1-.2 0 .6.3s1.3.2 1.5.1c.2-.1.3.3 1.3.4 1 .2 1.6-.1 2.3.1.7.2.5-.1 0-.4-.5-.4-.4-.2-.9-.5s-1.1-.4-1.5-.4c-.3-.1.3.3-.7.2-.9-.1-.6.1-1.1-.2-.5-.3-.5-.4-.8-.4-.3-.1-.4 0-.4 0zm7.5 1.5c-.3.1-.8.2-.6.3.3.1.1.2.8.1.8-.1 1.5-.2 1.6-.3.1-.2-.1-.1-.5-.2-.3-.1-.3.1-.7.1-.4.2-.6 0-.6 0zm2.8 0c-.5.1-.5.2 0 .3.4.1.8.2 1.1.1.3-.1.4-.2.9-.3.6-.1.8-.1 1.2-.1l.5-.1s0-.1-.4-.1h-.8c-.3 0-.8.3-1.1.3-.2 0-.7-.2-.8-.1-.1.1-.1-.1-.6 0zm2.9.7c-.4.3-.4.3-.4.5v.3s.5 0 1-.4c.4-.4.4-.4.8-.6.4-.2.9-.6.9-.6s-.3.1-.7 0c-.4 0-.7.2-.8.3-.1.1.1.1-.8.5zm-3.1.2c-.4-.3-.8-.2-.8-.1 0 .2-.3.2.2.4s1.1.5 1 .2c0-.3-.2-.4-.4-.5zm-3.5-11.5c-.2.3.2.2-.1.5-.3.3-.6.2-.9.6-.3.4-.8.7-1 .9-.2.2-.9.3-1.2.7-.3.4.1.6.1.6s-.2.1-.7-.1c-.5-.2-.5-.4-.5-.4s-.3 0-.5.5-.3.6 0 .9c.3.3-.2.3-.2.5.1.2.1.6.3.6.2 0 .3-.2.5.1.3.3 0 1.2.4 1.3.3 0 .6-.1.8 0 .3.1.5.2.9.1s.8 0 1 .1c.2.1.9.3 1.2.3.3 0 .4.1.5-.4.1-.5 0-.9.4-1.3s.4-.4.5-.7c0-.3 0-.7.3-1.1.3-.4.4.2.5-.1.1-.3.3-.3.2-.4-.1-.1-.5-.1-.6-.4-.1-.3 0-.4-.1-.9-.2-.5-.3-.3 0-.6s.5-.4.5-.6c0-.2.1-.2.4-.5.3-.2 0-.1-.3-.3-.3-.2-.9-1-1.2-1-.3-.1-1 .8-1.2 1.1zm43.8 29.3c-.1-.1-.3 0 .1.4.3.4.4.3.6.3s.4.8.5 1c.1.2.3.4.3.4s.1.8 0 1.2c-.1.4-.3.5-.4.9-.1.3.3.2.6.4.3.1.2.1.1.4-.1.3-.4.4-.4.5 0 .1.6.4.9 0 .3-.4.8-.9.9-1.3.1-.4-.2-.2.2-.5s.4-.2.6-.5c.2-.4.5-.7.2-.9-.3-.2-.5.2-.8.3-.2.1-.4.1-.7-.1-.3-.2-.4-.2-.5-.4-.1-.3-.3-.4-.3-.4s-.1.5-.3.3c-.2-.2-.2-.3-.3-.6-.2-.3-.2-.3-.3-.5-.1-.2 0-.6-.5-.6-.5-.3-.4-.2-.5-.3zm.1 5s-.4.4-.8.9-.4.7-.5 1c-.1.3-.5.6-1.3 1-.7.4-1 .5-1.2.9-.2.3-1.1 1.4-1.2 1.5-.1.1.4.2.9.2s1.3.5 1.8 0c.4-.5.9-1.6 1.2-2 .3-.4.5-.6 1-1 .4-.4 1.2-1.1 1.2-1.4 0-.3-.2-.8-.2-.8s-.2.3-.5.3c-.5-.1-.4-.6-.4-.6zm-3.5 5.3c-.5-.3-.6.2-.7.8-.1.5.2.1.7-.2.4-.3.2-.5 0-.6zm-17.6-3.6c-.6-.2-.5.4-.4.8.1.4.2.7.4 1.1.2.3 1.1.5 1.4.3.3-.2.6-.7.9-1.1.3-.5.5-1 .4-1.3-.1-.3-.5.3-.7.4-.3.1-.6.4-1.1.3-.6-.3-.7-.5-.9-.5zm-7.4-29.7c-.5.1-.7-.3-1.1-1.1-.4-.8-.7-.9-1.7-.6-1 .4-.8.3-.2.5.7.2.7.3.8.3.1 0 1 .1.8.3-.2.1-1.1.3-.5.7s.3.1 1.8.9c1.5.7 1.7.2 2.2 1.2.5 1 .5.8.1 1-.4.2-.9.5-.7.5.2 0 .6.1 1.6.2s.1.6 1.2.6c1.1 0 1.4-.4 1.9-.9.4-.5.5-.2 1.5 0 .9.2 1.3 1 2.5 1.4 1.2.3 1.7.8.9.1-.7-.7-1-1.2-2-2s-1.1-.9-1.4-1.5c-.3-.6-1.3-1.3-2.5-1.8s-1.8-.5-3.2-.9c-1.3-.3-1.6 1-2 1.1zm-7.8-2.7c-.4.3-.5.1-.8-.1-.3-.2-.2.4-1 .1-.7-.3-1-.5-1.8.1s-.3.8-.3 1.2c0 .4-.7 1.6-.9 2-.2.4-.2.6-.1.9.2.3.4.2.6.3.1.1 0 1.2-.1 1.6-.1.4.3.4.8.3.5-.1.1-.1.1-.5s.2-.5.2-1.3v-1s.1-.1.3.2c.2.2.4.9.6 1.3.2.3.4.6.7.4.3-.2.6-.5.6-.5s-.6-.2-.6-.4.3-.4-.2-1.1c-.4-.7-.6-.7-.1-.8.5 0 .5-.6.8-.7.3-.2.8-.1.8-.1s-.3-.3-.8-.2c-.5.1-.9.2-1.3.4s-.8.4-.8-.1c-.1-.4-.1-.5-.1-1.1.1-.6.7-.1 1.2-.3.5-.1.5-.1 1.5 0 1.1.1 1.1-.2 1.4-.6.3-.4.5-.9.5-.9l-1.2.9zm2.5-1.5c.1-.2-.8.6-.9.7-.2.2 0 .4.1.6.1.2.1 1 .1 1.1 0 .2.5.3.5.3s0-.5.1-.7c.2-.2 0-.5 0-1 0-.3-.2-.5.1-1zm-1.7 4.5c-.7-.3-.9-.1-.9.3s-.1.5.6.5 1.5-.3.3-.8zm1.3-.2c-.2.1-.3.6-.2.9.1.3.2.1.6 0 .4-.1.3-.4.8-.4s1.5.3 1.5.3.2-.2-.6-.7c-.8-.5-1.1-.4-2.1-.1zm-13.5-17.6h-.8c-.1 0-.3.3-.5.4-.2.1-.2.2-.1.5s.3.3.7.4c.3.1.2-.1.5-.2.2-.1.3-.3.4-.5.1-.2.2-.3.3-.4.1-.1-.2-.3-.2-.3-.1 0-.3.1-.3.1zm8 1c-.3-.2-.4.5-.5.9-.1.4-.2.6 0 .9l.1.3-.4-.3s-.1.3-.1.6-.1.4.3.6c.4.2.6.1.7.4.1.3.1.5.4.5.3.1.6.2.8.4.1.2.1-.5.3-.5.2 0 .4.3.6.5.1.2.4.2.4.2s-.3-.6-.2-.6c.1-.1.2-.1-.2-.4-.4-.2-.7-.2-1-.2-.3 0-.3.2-.5-.4-.2-.6 0-.9 0-1.1 0-.1.2.2.3-.2.2-.4.2-.7.2-1.1 0-.4.3-.5 0-.6-.4.2-1.1.2-1.2.1zm3.5 7.4c0 .3-.3-.1-.4.1-.1.2-.2.1-.4.2s-.6.5-.6.5v-.3c0-.1-.1-.4-.3-.2-.1.2-.3.4-.6.5-.3.2-.5.4-.5.7 0 .3.2.3.2.3s.1-.1.3-.4c.2-.3.2-.3.6-.4.4 0 .3 0 .5.2.1.2 0 .5 0 .7 0 .2 0 .5.4.6.4.1.2 0 .6 0 .4 0 .3 0 .3-.2s-.2-.3-.2-.5.2-.3.3-.3c.1 0 .1.2.2.5s.1.2.2.1c0-.2.2-.7.1-.9 0-.2-.1-.4-.1-.6 0-.2-.2-.5-.3-.5l-.4-.4s.1 0 .1.3zm-1.7-1.7s0-.2-.3-.5-.3-.4-.8-.5c-.5-.1-1 0-.8.6.2.5.3.6.7.7.4.1.7-.2.7-.2s0 .1-.4.3c-.4.2-.4.7-.1.9.3.2.3.5.5.3.2-.1.3-.6.7-1 .4-.3.4-.4.4-.7v-.6l-.6.7zm.9-1s-.3 0 0 .2c.3.3.5.3.5.5s0 .2-.2.2-.2-.1-.3-.1c-.1 0-.1.1 0 .2 0 .1 0 0 .2.2.1.2.1.3.1.5s.1.1.1.1v-.7c0-.1 0-.4.1-.3.2.1.1.4.3.1.1-.3.1-.6 0-.8-.1-.2-.3-.3-.5-.3-.2.2-.3.2-.3.2zm-3.9 1c-.1 0-.2.1-.2.5-.1.4-.3.6-.5.8l-.9.9c0 .1 0 0 .4-.2.5-.2.8-.5.9-.8.1-.3-.1-.1.4-.3.4-.2.2-.3.2-.6 0-.2-.1-.4-.3-.3zm24.5 11.3c0 .4.1.5-.2.8-.4.3-.8.3-1.1.3-.4.1-.1-.1-.6-.1s-.6 0-.4.3c.2.2.2.5.9.4.7 0 1.3-.4 1.7-.5.4-.1.4-.5.4-.7.1-.2-.6-1-.7-.5zm2 .8c.2.3.1.2.4.6.2.4.6.4.9.5.3.1 0-.1-.2-.4-.2-.3-.2-.4-.5-.7-.4-.3-1-.5-.6 0zm-25-23.2c-.9.6-1.4.6-1 1.3.4.8.6 1.1.7 1.2.1.1.2-.1.5-.7s.3-1.4.4-1.6c0-.2-.3-.4-.6-.2zm16.2-29.8c.1.4.2 1 0 1.1-.2.1-.4.5-.5 1-.1.5-.2 1 .1 1.4.3.4.1.4.1.7 0 .3.1 1.1-.1 1.5-.1.5-.2.6-.2 1 .1.5 0 .6 0 1.3v1.5c0 .3.2-.1.3-.2.1-.1.5-.2.7.1l.2.2s.4.2-.1-.9c-.5-1-.6-.8-.4-1.8.1-1 .2-1 .7-1.1.5-.1.8.6.8.7.1.1 0-.2-.2-.8-.2-.5-.3-.7-.4-1.4-.1-.7-.3-1.2-.5-1.4-.3-.2-.1-.5 0-.8.1-.3.2-.7.1-1.1-.1-.5-.2-1.1-.3-1.3-.1-.2-.4.2-.4.2l.1.1zm-.4 10.6c0 .3.1.6-.1.9-.2.3-.1.4-.2.9s-.7 0-.7.1-.1.4-.2.6c-.1.1-.7.2-.5.6.1.5.4 1 .4 1s.3-.3.4-.3c.1 0 .3-.1.3-.1s0-.1-.4-.3c-.3-.2-.3-.5-.3-.6 0-.1.5 0 .7 0 .3 0 .5-.2.8.1.3.3.8.4.8.4s.1-.4.2-.7c.1-.3.6-.2 1-.3.4-.1.8-.2.6-.4-.1-.2-.1-.6-.2-.9-.1-.3-.4 0-.6.1-.2.1-.5 0-.8-.2-.3-.2-.8-.9-1-1.2 0 .2-.3 0-.2.3zm-1.4 4.5c-.1.1-.3.4-.3.8s.4 0-.1 1.2c-.4 1.2-.7 1.5-1.1 1.8-.4.3-.8.3-1 .2-.2-.1 0-.4.2-.4.1-.1-.4-.1-.6-.1-.2 0 0 .3 0 .5s-.4.7-.4 1c0 .2 0 .3-.2.4-.3.1-.4-.2-.5-.2-.1 0-.5.1-1 .1-.5.1-.7.2-.9.6-.2.4-.7.4-1.1.6-.4.1-.2.7-.6.9-.4.2-.4.5-.4.8 0 .3.3.1.3.1s0-.4.3-.4.3.1.2.3c-.1.3-.2.4-.3.7-.1.2 0 .4.2.6.2.2.4-.1.8-.5s.5-.5.4-1.1c0-.5-.2-.5-.5-.7-.3-.1-.4 0 0-.4.3-.4.5 0 .7-.2.2-.2.8-.2 1.3-.3.5-.1 1.1-.3 1.1-.1 0 .2.2.8.2.9 0 .1.4-.2.7-.3.4-.1 0-.2 0-.4s.2-.4.2-.4.2.4.8.1c.6-.3.6-.4.8-.4.2 0 .3.2.5 0s.3 0 .2.1c0 .1.7-.2.9-.4.2-.1.1 0 0-.4s-.3-.5-.2-1c.1-.6.1-.6.1-1s.2-.4.3-.4c.1 0 .1-.5.3-.7.2-.2.1-.4.1-.9 0-.6-.3-.5-.3-.9s.1-.8.1-.8-.6.2-.7.4l-.1.1-.4.2zm-4.1 6.2c-.7.1-1.1.2-1.5.3-.4.1-.5.3-.4.7.1.4.2.8.3 1 .1.2.3 0 .6-.2.4-.2.3-.8.7-.8s.2.4.7-.2c.5-.6.1-.6.1-.9 0-.2-.5.1-.5.1zm41.5-30.6c-.7-.1-.9-.3-1 0-.1.3-.1.3.3.5s.7-.1 1.1.2c.4.3.5.3.9.3.3 0 .4-.2.4-.2s-1.2-.7-1.7-.8zm-8-11c-.3.1-.5-.2-.4.5.1.6.2.7 1 .6.8-.1.2 0 1.3-.1s1.3-.2 1.3-.2-.2-.3-.5-.6c-.4-.3-.9.2-1.7.1-.9-.3-1-.3-1-.3zm-25.1-9.4c0 .2 1.1.9 1.5 1.1.4.2.7.1 1.6 0 .8-.1.9-.5 1-.7.1-.2-.4-.1-1-.2s-1 .1-1.2 0c-.2-.1.3-.2-.2-.4s-.6.1-.7 0c-.1-.1-.1-.3-.4-.3-.2.1-.6.3-.6.5zm-4.3 1.5c-.4.2-.4.3.1.7.4.4.3.3.1.5-.2.3 0 0 .6.3s.9.8 1.3.9c.4.1.7 0 .7 0s-.1-.4-.5-.9-1.2-.6-1.3-1.1c-.2-.5-.5-.7-1-.4zm4-2.1s-.6-.3-1.4-.9c-.9-.5-1.2-.7-1.5-.7-.3 0-.2.3-.4.6-.1.3-.2.2-.6 0-.4-.2-.9-.5-1.3-.7-.5-.1-.7.3-1.3.8-.5.5-.2.7.4 1.4.6.8.9.8 1.4.5.5-.3.4-.5.7-.4.4.1 1.6-.1 1.7-.1 0 0-.1.7.5.5.6-.2 1.1-.3 1.3-.6.3-.1.5-.4.5-.4zM208.9 79c-.2.1-1.1.1-1.6.8-.5.8-.8.2-1.1.7-.3.5-.5 1-.5 1s.4.5.9.5 1.3.2 1.8.8c.5.6.8.6 1.9.8 1.1.2.6.3 1.2.3.6-.1 1.4.1 1.2-.2-.2-.3-.3-.5-.2-1 .1-.6.6-.5 0-.9s-1-.1-1-.1c0-.1.5-.3.3-.3s-1.2-.1-1.3-.6c-.1-.6.3-.6.5-.7.2 0 .1-.1-.4-.5-.6-.4-1.4-.9-1.4-.9-.5.1-.1.1-.3.3zm5.6 4.1c-.4.1-.8.5-1 .9-.3.4-.8.9-1.1 1.2-.3.2-.2.3.3.5s1.4-.3 1.6-.3c.3 0 .4.4 1.2.3.8-.1 2-.2 1.4-.7-.6-.4-.4-.2-1-.7-.7-.5-1.5-.6-1.5-.6s1.3-.5 1-.5c-.3 0-.9-.1-.9-.1zm-34.3-6.8c-.8.3-.5.4-1 .8s-.2.5.9.2 1.1-.4 1.8-.7c.8-.2-.5-.7-1.7-.3zm1.7 2c-.7.3-.5.7-.3.9.2.3.7-.2.9.1.1.3.2.2.9-.3s.4-.3.2-.8c-.4-.4-.4-.5-1.7.1zm-4-.2c-.5.2-.5.2 0 .4.4.2 1.5.4 2.1 0 .6-.4.5-.3-.2-.4-.7-.1-1.4-.3-1.9 0zm-6.9.8c.7-.1 1.4-.1 2 0 .6.1.4.6-.7.7-1.1.1.1.3.9.2.8 0 .3-.7.9-.9.6-.2 1-.1 1.8-.4.8-.3-.4-.5-1.3-.5s-1.2.1-1.9 0-1.3.3-2.1.4c-1.7.4-.3.6.4.5zm5.7.2c-.6 0-2.2.4-.9.5 1.3.1 1.2.2 1.7 0 .6-.2-.1-.5-.8-.5zm4.5.3c-.9-.3-.9-.2-1.6-.1-.7 0-1 .5-.5.7.5.2.8.1 1.1.1.4-.1.4-.2.1-.3-.3-.2 1.4-.2.9-.4zm3.8-1.1c-.7.1-.7.2-.8.4-.1.2.1.2.8.1.7-.1 1.1-.2 1.6-.5s-.1-.9-.1-1c0-.1-.7.3-.9.5-.2.2.2.4-.6.5zm-54.4 39.6c-.3 1-.9 1.4-.2 1.1.7-.3 1.4-1.1 1.3-.4 0 .7-.7.6-.5 1.3.2.7.1.6 1.2.9 1.1.3.2.2.5.8.3.7.5.9.2 1.1-.3.2-1.2-.6-1.2-.3-.1.3.1.6.3 1.1.2.5-.1.7-.8 1.1-.7.3-.1.5.4.5s1.8-.3 1.6.2c-.2.4-.8-.1-1.3.7-.4.7-2 1.4-1.2 1.3.8 0 .7-.3 3.2-.6 2.5-.4.8 0 2.4-.5 1.6-.5 1.1-.6.2-.5-.9.1.6-.9.4-1.9-.2-1-.8 0-1.2-.7-.4-.6-.3-.8.4-.6.7.2.7-.1-.8-1.1-1.4-.9-.5-.7-1.2-1.5-.6-.8-1.7-.7-1.7-.7s.5-.3.8-.8c.3-.5.3-.5.6-1.2s-.3-.6-1-.4c-.8.2-1 .2-.8-.1.2-.3.3-.4.6-.8s.4-.6-.2-.4c-.6.1-.7.1-1.3.4-.9.5-.4 1.1-.7 2zm-1.8 2.3c-1.1.5-.8.7-.6.9.2.2.5-.1-.5.5-1.1.6-1.1 1.3-.5 1.4.6.1.5-.3-.1.8s-1 1.9.2 1.6c1.2-.3 1.5-.9 2.1-1 .6-.1.7-.5.7-1.2s-.4-.7.1-1.3c.5-.6.5-1.2-.4-1.5-1-.3-.3-.5-1-.2zm14.4 15.6c-.1.2.1.6-.4.9-.5.3.2.6.4.8.1.3.3-.9.3-1.5-.1-.6-.1-.7-.3-.2zm-.2 2.3c-.8.4-.8.6-.9 1.2-.1.6.6.1.4.6-.2.5 0 .8.8.3s.3-.9.5-1.5c0-.6.1-1.1-.8-.6zm11.6 6.1c-.7-.1-1 .4.2.5 1.1.1 1.6.1 2.1 0 .4-.1.1 0-.5-.4s-1 0-1.8-.1zm6.3.3c-.9-.2-.7.9.3.7s.6.1 1-.6c.4-.6-.4.1-1.3-.1zm-22.7-5.1c-.7.1-.8.3-.2.5.6.2.5 0 .8-.3.3-.2-.3-.2-.6-.2zm-44.9-13.5c-.5.4-1 .9-1.6 2-.6 1.2-.6 1-1.2 1.7-.6.6-.3.5 1.6.9 1.9.4 1.8.7 2.2.5.4-.1.5.2.5.6 0 .4.4.2.6-.5.2-.6-.2-1.7-.6-2.4-.4-.6-.5-.6-1.1-.5-.6.2-.4-.1-.6-.6-.2-.5-.6-.1 0-.8.5-.7.7-1.3.2-.9zm-59.1-1.3c0 .6.7 1.7 1.1 2 .5.3.4.2.2-.6-.2-.7 0-.7-.1-1.2-.2-.5-1.2-.5-1.2-.2zm3.2 3.3c.1.1.5.7 1.2 1.1.7.5.9.5 1.6.7.7.2 1-.1.6-.5-.5-.4-.1-.4-.9-.6-.8-.2-1-.1-1.4-.4-.5-.1-1.3-.6-1.1-.3zm-18-6.8c-.5-.1-.7-.1-1.1.1-.4.3-.5.5-.3.9.2.3.1.1.5-.2.5-.3.2-.4.8-.5.6-.1.5-.3.5-.3h-.4zm-.2-.7c-.4.2-.5.4-.1.3.4-.1.3-.3.6-.3.3.1.3-.1.3-.1s-.4-.2-.8.1zm-10.3-1.7c-.5.2-1 0-.6.1.3.2.7.4 1 .3.3 0 .5 0 .4-.2l-.2-.4c.1-.1-.1 0-.6.2zm164 67.4c-.6 1.2-1.7.6-2.7 1.5-.9.9-.8.6-.1 1.9.7 1.3-.6 1.1-.9 2.6-.3 1.5.4 1.2.8 2.5s.6.9 1.3.7c.7-.2 1.2-.5 1.2-.5s.1-1.1.6-2.7.8-2.8.9-3.9c.1-1.1.2-1.8.4-1.5.2.3.3.3.3-.2s-.3-2-.7-2.3c-.9-.6-.6.7-1.1 1.9zm.8-84.8c-.8.2-1.1.7-.6.8.6.2.5.1 1.4-.2 1-.4 0-.8-.8-.6zm14.5-14.1c-.3-.4-.5.1-3.2 1.3s-2.7.2-5.2 2.2-2 1.8-2.1 3c-.1 1.2-.7.7-1 1.8-.2 1.1-1.5 1.2-.9 2.1.7.9 1.5 1.4 2.9 1.8 1.4.4 1.7 0 1.5-.2-.3-.1-1.3-1.8-1.1-3.6.2-1.8.9-1.6 1.5-2.3.6-.7 2.1-2.5 3.1-3.1 1-.6 3.6-1.4 4.9-1.9h.1c.9-1.1-.2-.7-.5-1.1zm-7.3 12.4c-.3 0-.5.1.1.6.6.6 1.1 1 .9.2-.2-.7-.7-.9-1-.8zm9.7-5.6c-.4-.2-.7-.4-.8-.1-.1.3.5.8 1.1.9.6.1.1-.6-.3-.8zm-102 34.7c-.7-.3-1.3-.6-1.7-.6-.4 0 .1.5.8.8.7.4 1.3 0 .9-.2zm-1.5 2.7c0-.5-.4.6.1.9.5.3.7.3 1.1 0 .3-.3.1-.1-.4-.2-.4 0-.9-.2-.8-.7zm194-19c-.8.1-1.4-.1-1.4-.1s0 .6-.3 1c-.2.3-.1.6-.1.6s-.8-.4-1.3-.5c-.5-.2-.9 0-1.2-.7-.3-.7-1.1-.6-1.7-.6s-.4-.8-.4-.8h-.4c-.4 0-.3.9-.8 1.2-.5.3-2 .5-2 .5s1 .7 1.2 1.3c.2.6.6 1.1.6 1.1s-.1.3-1.3 0c-1.2-.2-1.1.2-2.4.7-1.3.5-2.7 1.3-3.1 1.6-.4.3-.4.1-1.5-.1-1.1-.3-1.3.3-1.6.5-.3.1-.2-.7-.2-.7s-.4 0-.9.2c-5.1 2.6-1.6 2.4-1.7 3l-.5 2c-.7 2.2-1.3 1.1-1.9 2.8-2 5.6-3.2-.9-3.2-2.3 0-.9-.2-2.1.4-2.4 5-2.3.5-.3 5.1-3.5 1.5-1 .7-1.7 1-1.9.3-.3.9-.4.9-.4l-.8-.1c-.8-.1-.8.1-1.5.8-.6.7-1.2.8-1 .3.1-.5.2-1.1-.3-.8-.5.3-.7.2-1.6.4-.9.2-1.9.6-2.7 1.7s-.4.9-.1 1.2c.3.2-1.3.2-2.1.1s-.4-.2.1-.4c.4-.1-.7-.3-1.6-.5-1-.2-.6.2-1.2.4s-.6-.2-.8-.3c-.3-.1-1.6-.1-2.5-.2-.9-.1-.8.1-1.1.4-.2.3-1.9 1.8-2.7 2.6-.7.8-1.6 1-2.5 1.8-.8.8-1 .7-.3.9.7.1.8.1.9.7.1.6.4.8 1.1.8.7 0 .5.2.6-.4.1-.5-.2-1.2.4-.7.6.5 1.1.8 1.3 1.5.2.7 0 1.2-.4 2.3-.3 1.1-.4 2.8-.8 3.6-.4.8-.8 1.4-1.2 2.4-.5.9-2.7 3.2-3.2 3.4-.5.2-.8.2-1.1-.2-.2-.5-.4-.4-1 .1s-.8.8-1.1 1.7c-.2.8-.7.8-1.2 1.4-.5.6-.6.5-.3 1.2.4.7 1 1.4 1.1 2.1.1.7-.3 1.7-.6 2.1-.2.4-1.4.6-1.4.4v-1.8c0-.6-.5-.6-.3-.8.2-.2.8-.5.3-.9s-.8-.1-1-.6c-.2-.5.1-.9 0-1.1-.1-.2-.4-.4-1.1-.5-.7-.1-.8.6-1 0-.2-.6.1-.7-.2-.9-.3-.2-.6-.1-1.4.6-.8.7-1 .5-1.6.8-.7.3-.7.5-.5.7.2.2.7 1.2 1.2 1.3.5.1.8-.2 1.5-.2s.8.1.7.4c-.2.3-.7.5-1.5 1.4-.9.9-.6.7-.3 1.1.3.4.7.8 1 1.5.3.7 0 .9 0 1.3s-.1 1 .5 1.6c.6.6.2.4.1.6-.1.2-1 2-1.5 2.9-.4.9-.4 1-1.9 2-1.4 1-2.1 1.1-2.9 1.3-.8.1-1.4.4-1.8.5-.4.2-.2.5-.3.7 0 .2-.4 0-.4-.3.1-.3 0-.5-.2-.6-.2-.1-.8-.3-1.5.3-.6.6-1.4.7-1.7 1.4-.3.8-.2.5.1.8.3.3 1.7 1.7 2 2.4.3.7.4 1.3.4 2 0 .8-1.6 2.2-2.3 2.7-.7.5-.9.9-.8.2.1-.7-.3-1.2-.8-1.7-.5-.6-2.1-1-2.4-1.1-.3-.1.1-.5-.1-.5s-.7-.1-.6.6c.1.7-.5.5-.6 1.2-.1.7-.2 1.5.2 1.4.5-.1.4.6.7 1.4.4.8.2.4 1.1 1.1.9.7.7.6.9 1.3.2.7.1 1.1.6 1.8.4.7.5.8-.3.4s-1.3-.8-1.6-1.3c-.3-.5-.5-1.6-.6-2.2-.2-.6-1.4-1.3-1.8-1.7-.4-.4-.2-.7 0-1.7s-.1-1.9-.2-2.4c-.1-.6-.5-2.2-.8-2.8-.2-.5-.1-.5-.5 0-.3.5-.6.8-.9.8-.3 0-.8-.1-.8-.3 0-.2.4-1 .3-1.4-.1-.3-.4-1.3-.9-1.7-.5-.4-1-.8-1.3-1.7-.3-.8-.4-.6-1-.2-.6.4-1.9.5-2.5.5-.6.1-.1.4-.3.7-.2.3-.9.7-2.4 2.3-1.5 1.6-1.7 1.6-2.1 1.8-.4.2-.6.1-.6.8 0 .6.1 1 0 1.6-.1.6-.2.8-.4 1.2-.2.4-.3 1-.4 1.4-.1.3-.4.7-.9 1.1-.5.4-.5.3-.7-.2-.2-.5-1.4-2.5-2.3-4.4-.9-1.9-.7-2.2-.8-2.7-.1-.5-.1-3.8-.1-4 0-.1-.5.4-.6.6-.1.3-.1.6-.7.6-.5 0-.6.1-1.1-.4-.5-.5-.7-.8-.6-.8.1 0 .7-.1 1-.2.3-.2.2-.3.2-.3s-.4 0-.8.1c-.4 0-.2-.1-.8-.3-.6-.2-.7-.2-.8-.5-.1-.3-.2-.6-.3-.8l-.2-.4c-.1-.2-.4 0-1 .1-.6 0-.5 0-1.2.3s-.9.2-1.7.2c-.8 0-1.4-.4-1.8-.5-.4-.1-.5-.1-1.1-.2-.6-.1-.5-.4-.6-.7-.2-.3-.4-.3-1.2-.3-.8.1-.8 0-1.3-.1s-.5-.3-.9-.7c-.4-.4-.3-.1-.5-.3-.3-.2-.5-.5-.7-1-.2-.5-.2-.7-.4-.9-.2-.2-.2-.2-.9-.2s-.4 0-.5.1c-.1 0-.3.4-.5.6-.2.2.2.6.5.9.3.3 0 .3.5.8s.3.5.6 1.2.5.9.6 1.1c.1.2.1-.1.2-.3.1-.2 0-.9 0-.9s.1.3.3.8c.1.5 0 .5.1.8.1.3 0 .3.6.3s.9 0 1.5-.1.9-.7 1.2-.9c.3-.2.3-.7.5-.7.2.1 0 .7.2 1.1.2.4.2.3.7.4.4.2.5.3 1 .4.4.2.1.2.4.6.2.4.2.2.5.3.2.2.1 0 0 .6-.2.5-.2.5-.6.9-.4.4-.4.3-.4.3-.1 0-.2-.3-.2-.3s-.2.5-.3 1.1c0 .6.2.4-.5.7-.7.3-1.1.4-1.4.6-.3.2-.3.5-.4.7-.2.2-.4 0-.8.2-.5.2-.3.1-.7.4-.4.3 0 .3-.6.5-.5.2-1.4.6-1.9.7-.5 0-.4.2-.5.3-.1.2-.1.3-.7.4-.6.1-1.3.2-1.7.4-.4.2-.9.6-1.3.5-.4-.1-.3-.1-.4-.4-.1-.3-.2-.6-.3-1.2-.1-.6-.3-1.4-.6-2-.3-.5-.3-.6-.7-1.2-.4-.6-.6-1.1-.9-1.3-.3-.2-.5-.2-.6-.4-.1-.2-.1-.7-.2-1.2-.2-.5-.3-1-.5-1.2-.2-.3-.6-.6-.9-1.2-.3-.6-.3-.6-.8-1.5s-.6-1-.9-1.6c-.3-.6-.1-.5-.2-.8-.1-.4-.4.6-.6.8-.2.2-.3.1-.5-.4s-.3-1-.5-.8c-.1.2-.3.4-.1 1 .2.6.3.4.5 1 .3.5.9 1.9 1.2 2.4.3.6.2.3.4 1.1.3.8.4.9.8 1.3.3.3.3.2.4.7.2.6.1 1.2.1 1.6 0 .3.2.5.6.9.4.3.2.2.4.6.2.4.4.9.5 1.2.1.4.2.6.6.8.3.2.4.2.7.3.3.1.2.2.4.5s.7.5.9.9c.3.4.1.3.1.8 0 .4-.2.2 0 .5.2.2.5.4 1.1.8.6.4.1.1.6.1s.6-.1 1.1-.3c.5-.1 1.2-.3 1.9-.5s1.3-.3 1.7-.4c.3-.1.3.3.1.8-.3.6-.4 1.1-.6 1.5-.2.5-.3.5-.5.9s-1.3 1.9-1.5 2.4c-.2.5-.5.9-.8 1.3-.3.4-1.4 1.1-1.9 1.5-.5.4-.4.4-.7.9-.4.5-1.5 1.7-1.8 2.2-.3.5-.5.6-.7 1.1-.2.4-.9 1.1-.9 1.4 0 .3-.4.4-.1.6.3.3.4.3.5.7.1.4-.3.8 0 1.4.3.7.1.2.5.7.4.5.4.9.4 1.6 0 .8.1 1.5 0 2s-.3.8-.5 1.3c-.2.4-1.1.8-1.7 1-.5.2-.5.1-.8.4-.3.3-1 .9-1.2 1.4-.2.5-.4.4-.3.7.1.3.3.7.6 1.2.3.6.1.5 0 1s-.1.4-.1 1c-.1.6-.7.6-1.5.9-.8.3-.5.2-.6.6-.1.4 0 1.2-.1 1.7 0 .5-.3.3-.7.9-.4.6-.6.9-1 1.6-.5.7-.4.6-1 1.1-.6.5-1 .6-1.3 1.1-.3.5-.5.2-1.8.6-1.2.4-.3.2-1.5.3-1.2.1-1.6.2-2.2.3-.6.1-.5 0-.9-.4s-.4-.4-.6-.7c-.2-.3 0-.4-.1-1s-.1-.6-.3-1c-.2-.4-.2-.4-.5-1.1l-.6-1.2c-.3-.4-.4-.3-.6-.6-.3-.3-.3-.5-.3-.9-.1-.4-.1-1.3-.3-2.2-.1-.9 0-.4-.2-.8-.1-.4-.3-.9-.6-1.4-.3-.5-.2-.4-.5-1-.4-.7-.3-.6-.6-1.1-.2-.6-.3-.3-.3-.5s.1-.6.1-1 .1-.8.2-1.4c.1-.6-.1-.6.1-1 .3-.4.5-.8.7-1.2.2-.5.1-.5.1-1.1 0-.6-.1-.5-.2-1-.2-.5-.2-1.1-.5-1.8-.2-.8-.2-.8-.2-1.1 0-.3-.2-1-.3-1.4-.1-.4-.2-.2-.5-.5s-.1-.2-.4-.4c-.3-.3-.2-.4-.5-.7-.3-.3-.3-.3-.5-.7-.2-.4-.1-.1-.1-.8 0-.6.2-1.8.3-2.5.1-.7.1-.6-.1-.9-.3-.3-.4-.7-.6-.8-.2-.1-.7.1-1.4.1s-.7-.2-1-.5c-.3-.4-.7-.8-.8-1-.1-.1-.4-.1-1.6 0-1.2.1-.5.1-1.3.2s-1.1.5-1.7.8c-.6.2-.8.2-1.9-.1-1.1-.2-1.6.2-2.2.5-.5.2-.8.1-1.2-.2-.4-.3-.6-.5-1.3-.8-.6-.3-.5-.5-1.1-.8-.6-.3-.4-.3-.9-.8s-.5-1-.9-1.5c-.3-.5-.6-1.2-1.1-1.7-.5-.5-.9-1.6-1.2-1.9-.2-.3-.4-.3-.4-.5s.5-1 .6-1.5c.2-.5.2-.4.3-.7.1-.3-.1-1.1-.3-1.6-.2-.5-.4-1.4-.5-1.9-.1-.4.1-.5.2-.7.2-.3.6-.8 1-1.6s.7-1.2.9-1.5c.2-.4.7-1.5 1.1-1.8.3-.3 1.2-.9 1.5-1.1.4-.2.7-.3.7-.5.1-.2.2-1.5.3-2.1.1-.6 0-.9.4-1.1.4-.2 1.1-.6 1.4-.8.3-.2.4-.5.6-.9.2-.4.3-1 .5-1.1.3-.2.2.1.5.3.3.2.4.2.6.3.2 0 .3-.1.7-.1.4 0 .5 0 .7.2.2.1.1.1.8-.3.7-.4 1.3-.7 2.2-1 .9-.3 1.5-.5 2-.6.4 0 .2 0 .7.2.5.2.5.3.6.1.1-.1.4-.5.6-.5.2 0 .4.1.9.2s.7 0 .9-.1c.2-.1.5-.3.5-.3.1 0 .5.2.8.3.4.1.4.2.3.2-.1.1-.2.2-.3.6-.2.4-.1.2.1.6.2.4.3.4.2.7-.1.3-.4.6-.7.9-.2.3-.2.3.4.7.6.3.5.3 1.1.6s.7.2 1.5.4.7.3 1 .6c.3.3.3.6.8.8.5.2 1 .2 1.3.3.3.2.5.4.9.5.4.1.4.1.5-.2.2-.3.3-.5.3-.6-.1-.1-.3-.4-.2-.5 0-.1.4-.7.5-.8.1-.2.3-.2.9-.2.6 0 1-.1 1.1.2.1.3.1.2.5.4.5.2.5.2.9.3.4.1.2.4.4.3.2 0 .5 0 .9.1s1 .4 1.7.4 1-.2 1.1-.2c.1 0 .6-.6.9-.2.3.4.7.4 1.4.4s.7-.2.9-.3c.2-.2.6-.9.7-1.4.1-.5.5-1.5.6-2 .1-.5 0-.8 0-1.1 0-.3 0-.5.1-.8.1-.3-.3-.1-.5-.1-.2.1-.2-.1-.4-.1s-.3-.1-.5.2c-.1.3-.1.5-.7.4-.7 0-.6-.1-.8-.3-.2-.2-.6-.3-.9-.4-.3-.1-.3-.1-.4.1 0 .2 0 .3-.3.4-.2.1-.7 0-1.1-.2-.4-.2-.5-.3-1-.7-.4-.4-.4-.4-.5-1-.2-.6-.2-1.2-.1-1.4.1-.2.2-.2-.1-.1-.3.1-.5.2-.3-.3s.4-.5.6-.6c.2-.1.6-.1 1-.1s.7-.2.9-.3c.1-.1.5-.2.3-.2s-.6-.1-.5-.2c.1-.1.1-.1.4-.2.3 0 .6 0 1-.1.3 0 .5 0 .6-.2.1-.2.3-.5.5-.7.3-.2.5-.1 1.2-.1s.6.1.8.3c.2.2.4.1.7.1.3.1.1.2.3.3.2.1.6.2 1.1.3.5.2.2.1.8.1.6 0 .6 0 1.1-.1.5-.1.7-.3 1-.5.3-.2.1-.8 0-1.2-.1-.4-.7-.7-.9-.9-.2-.2-.8-.8-1.1-1-.3-.2-.6-.3-.9-.5-.3-.2-.9-.5-.9-.7-.1-.2.1-.2.6-.3.5-.1.3-.2.4-.4.1-.2.1-.2.5-.4.4-.1-.4-.4-.5-.6-.1-.2.3-.1.6-.2.4-.1.4-.3.5-.4.1-.2 0-.2-.4-.2s-1 .2-1.8.4c-.7.2-.4.2-.9.6-.5.4-.5.2-.4.4.1.2.1.4.5.6.5.2.3.2.4.3.1 0 .4.1.3.1-.1 0-.3.3-.5.3s-.3.2-.7.4c-.4.2-.5.2-.8.3-.3 0-.4 0-.4-.5 0-.4-.1-.1-.4-.2-.3-.1-.4-.2-.4-.2s.3-.1.5-.3c.3-.2.4-.3.5-.6.1-.3-.3-.2-.6-.2s-.2-.1-.5-.1-.4-.3-.4-.3.1.1.4 0c.3 0 .2-.1.3-.2.1-.1.2-.1.1-.1h-1.3c-.3 0-.2.2-.4.3-.2.1-.2.2-.3.4-.1.2-.2.2-.2.3-.1.1-.1.5-.1.7 0 .2-.1.3-.2.5s-.1.1-.4.2c-.2.1-.1.2-.1.4s-.1.3-.1.6-.1.3-.3.5c-.2.2-.3.2-.3.4s-.1.3 0 .7c.1.4.2.3.5.8.3.4.5.3.4.5-.1.2-.1.1-.5.1s-.5 0-.8.3l-.5.5c-.2.1-.1-.2-.2-.4-.1-.1-.7-.2-1.2-.3-.5-.1-.6-.2-.7-.2-.1 0-.3 0-.8.2-.5.3-.4.4-.3.8 0 .4.4.4.3 1.3-.1.8.4.4.6 1 .2.5 0 .5-.1.5-.1.1-.3.5-.4.9-.1.4 0 .5-.1.4-.1 0-.3.1-.5-.3s-.4 0-.5-.2c0-.2-.3-.5-.2-1 .1-.5.3-.5-.1-.7-.4-.2-.3-.3-.5-.8s-.2-.6-.6-1c-.4-.4-.3-.3-.2-.8.1-.4.2-1 0-1.3-.2-.3-1.1-1.2-1.9-1.6-.8-.4-.9-.1-1.2-.7-.3-.6-.5-1.3-1-1.7-.6-.4-.3-.4-.8-.2s-.5.3-.5.4c0 .2.2.4.1.8s-.2.3.4.6c.6.3.3.3.6.9.3.6.3.7.5 1 .2.2.3.5.9.6.6.1.5 0 .6.1.1.1-.4.2-.3.2.1.1.2.2.7.5.5.3.9.6 1.1.8.1.2.5 1.1-.1.5-.6-.6-.6-.3-.8.1-.2.4.2.8.1 1.1 0 .3-.3.2-.5.5s-.3.6-.5.7c-.2.2-.2-.2-.3-.2-.1 0-.2.2-.3.5-.2.3 0 .4.1.8s.2.4-.3.4c-.4 0-.3-.4-.7-.7-.4-.3-.6-.2-1-.4-.3-.2.1-.3 1-.4.8-.1.9-.2 1.2-.4.3-.2.2-.2.4-.6.3-.4 0-.5-.2-1s-.5-.7-.7-.8l-.6-.6c-.2-.3-.5-.3-.9-.4-.4-.1-.3-.5-.6-.6-.2-.1-.5-.4-1-.9s-.3-.9-.6-1.3c-.2-.4-.5-.8-1-.8s-.9.4-1.5.9c-.5.5-.4.8-1 .4s-.8-.4-1.3 0c-.4.4-.5.7-.5 1.5 0 .7-.5.4-1 .6-.4.2-.8.7-1.4 1.9-.6 1.2 0 .6-.1 1.1-.1.4 0 .7-.6 1.3-.6.5-.3-.1-.7.4-.4.4-.8.8-1.7.7-.8-.1-.6.2-1.1.4-.5.1-.8.3-.7-.3.1-.6 0-.5-1-.5s-1.4.3-1.3.2c.1-.1.1-.4.2-1s.3-.8.1-.8c-.2 0-.5.1-.2-1 .2-1 .3-1.2.2-1.8-.1-.6 0-1.4-.1-1.8-.1-.4.3-.7.1-.9-.2-.2-.4-.4-.2-.4.1 0 .7 0 1.4.1s1.4-.1 1.9-.1c.4 0 1.3.2 2.2.4.9.1.9-.1.8-1.4-.1-1.3.1-1.9-.2-2.2-.3-.3-.6-.2-.8-.6-.3-.4-.1-.9-.7-1.1-.6-.2-1.3 0-1-.2.3-.1.5-.2.1-.4-.4-.3-.4-.6-.2-.6h1s.1.4.5.2.9-.3.8-.6c-.1-.3-.3-.6-.2-.6.1 0 .2.4 1.1.4.8 0 .8-.1.7-.5-.1-.4.6-.3 1-.6s-.2-.6-.1-.9c.1-.3.6-.4 1.4-.5.9-.1.7-.2.6-.3-.1-.1 0-.5.1-1.1.1-.6-.1-.7.4-1 .4-.3.3-.2 1.2-.2.9-.1.4-.3.5-.3.2 0 1.2-.3 1.4-.4.2-.1.2-.1 0-.5s-.4-.6-.6-2.4c-.2-1.8-.2-1.8 1-2.2 1.1-.3.9-.2.8.8-.1 1-.6 1-.7 1.8-.1.7 0 1.2.4 2 .5.8.4.4 1.4.4 1 0 .8.2 1.4.5.7.2.4-.4 1.1-.6.6-.2.5.1 2-.1.6-.1.8-.1.8-.1s-.2 0 0-.1c.4-.2.4-.6 1-.6.5-.1.9.1.8-.6 0-.8-.3-.7-.2-1.3.1-.6.1-.3.2-.8 0-.5-.1-.6.6-.7.6-.2.2.6 1 .7.8.2.7.3.8-.3.1-.6.6-1.4.2-1.3-.4 0-.5 0-.8-.6-.4-.6-.6-.7-.4-.7.2 0 1.1-.2 2.2-.2 1.2 0 1.5.1 1.6 0 .1-.1-.2-.2.2-.5.4-.2 1.7.1 1.5-.1-.2-.2-1.4-.5-2.1-.4-.8.1-2.7.4-3 .3-.3 0-.8-.2-1-.4-.1-.1-.6-.2-.6-.9s.2-1-.2-1.6c-.4-.7.7-1.2 1.5-1.9s.6-1.3 1-1.3c.5 0 .6-.3.4-.5-.2-.2-1-1-1.4-1.1-.4-.1-1-.5-1.6.5-.6 1.1 0 1.2.2 1.7.1.6-.9 1-1.6 1.5-.7.5-1 .4-1.2 1.7-.2 1.3-.4 1.4.4 1.8.8.5 1 .7.6 1.1-.4.4-1.2.4-1.7 1.3s-.3 1.4-.5 1.8c-.2.4-.8.6-1 1-.2.4-.2 1.2-.9 1.1-.8-.1-.3-1.1-.7-1.7-.3-.5-.6-1-1-1.6-.4-.6-.1-1.3-.5-1.6-.4-.3-.5-1-.5-1l-.1.3c-.1.3-.1.5-.8 1.4-.8.9-1.9 1-2.4.8-.6-.2-.5-.8-.5-1.4 0-.7-.1-1.6 0-2.7s.4-1 1.6-1.7c1.2-.7 1.2-.7 1.5-1.1.3-.5 1.1-1.1 1.6-1.5.5-.4 1.3-2 1.8-3.1.4-1.1 1.3-1.8 2.1-3s2.2-2.3 4-3c1.8-.8 1.5-.8 1.9-1.4.4-.6.6-.2 1.3-.4.7-.1.6 0-.1.7s-1 1.4-.4.9c.6-.6 1.1-1.2 2-1.2.9 0 .6 0 1.5.4s1.1.5.6.8c-.5.3-1.4.2-1.4.2s.3.7 1.1.8c.8.1 1.3-.7 1.9-.4.6.3.7.5 0 .4-.8-.1-1 .4 0 .7.9.3 1 .4 2.2.5 1.2.2 1.8 1.1 2.7 1.4.9.4 2 .1 1.7.9-.3.8.2 1.7-1.4 2.1-1.6.4-1.6-.1-2.9-.5-1.4-.4-2.3-.8-2.3-.8s.4.5 1 1.1c.6.6.7 1.1.6 2.2-.1 1.1-.4 1.3.7 1.9 1.1.5.9.4 1.2.3.3-.1.9-.2.8-.4-.1-.2-.2-.5-.6-.6-.4-.2-.4-.6 0-.7.4-.2.7.2 1.5.1.8 0 0-.3.4-.7.4-.4.4-1.1 1.3-1.4.9-.4 1.9.2 2.1-.2.2-.4.5-.8 0-1.4-.5-.6-.9-.8-.6-1.1.3-.3.9-1.1 1.2-.6.3.4 1 .9.1.8-.9-.1-.3 1.4.6 1.3.8-.1.8-.4 1.5-.7.7-.3 2-1.4 3-1.8 1-.3 1.2-.2 1.5-.1.4.2.4.5 1.4.3 1-.2 1.4-.5 2.3-.6 1-.2-.1.4.4.5.4.1.5.3.8 0 .3-.2 1.4-.6.9-1-.5-.4-.8-.6-.8-.6s.4-.8 1.3-.7c.9.1 2.4.9 3.3 1.6.9.6 2 1.9 2 1.9s.4-.7.1-1.8c-.3-1.1-1.2-.9-1.2-1.9s-.8-.8-.5-1.6c.3-.8 1-1.1 1.2-2 .2-1 .4-1.8 1.1-1.8.7 0 2.2.2 2.2.2s0 .9-.6 2.2c-.6 1.3.3 1.5.2 3.1-.1 1.6-.2 1.8.2 2.2.4.4 1.1.8.8 1.5-.3.7-.4 1.1-1.4 1.5-1 .4-2.3.2-1.8.5.5.3 1.1.6 1.7.7.7.1.3 0 .9-.5.5-.4 1.7-1.3 1.7-1.7 0-.4-.7-1.1-.2-1.4.4-.3.6-.8 1.3-.4.7.4 1.4 1.9 1.4 1.8 0-.1-.1-1.4-1-2.3-.8-.8-2.2 0-2.2-.8 0-.7.4-1.7.3-2.5-.1-.8-.4-1.6.1-2.3.5-.7.5-1.2.5-1.2s.2.6 0 1.4c-.2.8.1 1.3.5 1.3s2.1 0 1.2-.2c-.9-.3-1.2-.5-.3-1 .9-.5.9-.2 2.2.1 1.3.3 1.6.5 2.1.5.4 0 .4-.1.2-.5s-.4-.7-.8-.9c-.4-.3-.7.1-.8-.4-.1-.4-.4-1.4-.5-1.8-.1-.4.3-.1 1-.1s2.6-.1 4.1-.1c1.5 0 0-1.6-.1-2.7s2.8-1.1 4.2-1.3c1.4-.2 3-.1 5.6-.8 2.6-.6.9-.5 1.3-1.3.4-.7 1-.9 1.8-.9s1.5.1 1.2.2c-.3.1-1.2.5.2.8 1.4.3 1 .3.3.5s-.1.7 1.3.7c1.4 0 .6-.1.3-.6-.2-.5.2-.3 1.3-.1 1.1.2 1.6.4 2.2 1 .6.6.7.4 1 1.2.2.8 0 .7-1 1.4s-1.5.7-2.9 1.6c-1.4.9-1 1.3-1.8 1.9-.8.6-.6.4 1 0s2.5-.7 3.3-.6c.8.1 1.2.4 1.8.4.6 0 0 .1 1.9.1 2 0 1.7 0 1 .6s.1.7 1 .7 1.9 0 2.7-.1c.8-.1.1-.7 1.1-.8 1 0 1.3-.1 2.3-.1s.7.4 1.1.8c.4.4.8.6.5 1.4-.3.7-.5.8-.3 1.8s.7 1.2 1.3 1.3c.6.2.6-.9 1.2-1.3s.7.7 1.4.6c.7-.2 1.5-.1 2.1.1.6.2 1.1.3 2 .1.8-.2.6-.5.3-1s-.3-.5.2-1 .9-.3 2.6.2c1.7.5 1.2.5 2.2.7 1 .3.7.2 2.2.9 1.5.7 1.2 1.5 1.9 1.9.7.4.7 0 2.1-.1 1.4-.1 1.4.2 2.9.6 1.5.4 1.1.9 1.1 1.3s-.4.8.5 1c.9.2 1.3.4 2.1.2s.1.2 1.9.2c1.8 0 1.2-.2 1.7.2s.7 1.1 1.5 1c.9-.1.8-.1.4-.8-.4-.8-.6-.9-.1-.9s1.6.2 3.5.6c1.9.3 2 .7 3.6 1.7s2 1.1 3.2 2c.4.3.5.4.5.5 0 0 .2 0 .6.2 1.2.6 1 .4 2.1.9s2 1.2 2 1.2 0 .9-.8.9zm-103.6 21.1s-.1.2.5-.3-.3 0-.6-.1c-.4-.1-.5-.3-.4-.7.1-.5 0-.5-.4-1.1 0 0-.2-.1-.6.1-.4.2-.7-.2-1.2-.1-.5.2-1.1.1-1.4.9-.3.8-.7.3-.8.9-.1.6-1.1 1-1.1 1l.7.7c.3.4.1.1.4 1.3.3 1.2.5 1.1.9 1.2.4.2 1 .6 1 .6s-.4-.2-.4.4c0 .6-.6 1.1-.5 2 .1.9-.8 1.8-.1 1.8.7.1.5.4 1.3.6.8.2 1.2.4 2.4.4 1.1 0 .5-.4.4-1.1-.2-.6-.2-1.1-.3-1.8 0-.7-.3-.5-.5-1-.2-.4.1-.7.6-.7s.6 0 .3-.5-.1-.7-.5-.9c-.4-.2-.5.7-.5.7s-.2-.2-.1-1.1c.1-.9.2-.5-.1-.6-.3-.2-.4 0-.8-.5-.4-.6 0-.5-.5-1.2-.4-.7-.2-.3.3-.3s.2-.1 0-.3c-.2-.2-.4-.6.2-.5.6 0 1.4.2 1.7.2.2-.1.1 0 .1 0zm-82.9-31.9c-.2.4.3.8.7.7.4-.1.5 0 .8-.2.2-.2.2-.4 0-.7s-.2-.4-.2-.4c-.5-.4-1.1.2-1.3.6zm109.8-22.8c-.6 0-1.3 0-.7.2.6.2.3 1.1 1.4.6 1.1-.5.8-.6 1.6-.9.7-.3.3-.2-.6-.4-.6-.1-1.1.5-1.7.5z"/></svg>