<svg version="1.1" id="Layer_1" xmlns="http://www.w3.org/2000/svg" xmlns:xlink="http://www.w3.org/1999/xlink" x="0" y="0" viewBox="0 0 208.9 158.1" xml:space="preserve"><style>.st3,.st7{opacity:.5;fill:#c0d6dd;enable-background:new}.st7{fill:#fff}.st11{fill:#ffe0ae}.st12{fill:#e8e8e8}</style><linearGradient id="SVGID_1_" gradientUnits="userSpaceOnUse" x1="102.25" y1="4456.031" x2="102.25" y2="4335.431" gradientTransform="translate(0 -4314.98)"><stop offset="0" stop-color="#e74945"/><stop offset="1" stop-color="#ee542e"/></linearGradient><path d="M156.4 63.3l-14.6-.1c0-.6.1-1.3.1-2 0-3.4-.6-6.7-1.8-9.7 7.1-1.6 12.4-7.9 12.4-15.4 0-8.5-6.8-15.5-15.2-15.8H61.8c-8.5 0-15.4 6.7-15.8 15-11.5 3-20 13.5-20 25.9 0 11.3 7 21 17 24.9 2.2 4.3 5.6 7.8 9.8 10-6.3 4.5-10.4 11.8-10.4 20.1 0 13.2 10.3 23.9 23.3 24.6v.1h60v-.1c13-.7 23.4-11.4 23.4-24.6 0-2.3-.3-4.6-.9-6.8h8.3v-.1c12.2-.6 22-10.7 22-23.1-.1-12.2-9.9-22.2-22.1-22.9z" fill="url(#SVGID_1_)"/><defs><path id="SVGID_2_" d="M156.4 63.3l-14.6-.1c0-.6.1-1.3.1-2 0-3.4-.6-6.7-1.8-9.7 7.1-1.6 12.4-7.9 12.4-15.4 0-8.5-6.8-15.5-15.2-15.8H61.8c-8.5 0-15.4 6.7-15.8 15-11.5 3-20 13.5-20 25.9 0 11.3 7 21 17 24.9 2.2 4.3 5.6 7.8 9.8 10-6.3 4.5-10.4 11.8-10.4 20.1 0 13.2 10.3 23.9 23.3 24.6v.1h60v-.1c13-.7 23.4-11.4 23.4-24.6 0-2.3-.3-4.6-.9-6.8h8.3v-.1c12.2-.6 22-10.7 22-23.1-.1-12.2-9.9-22.2-22.1-22.9z"/></defs><clipPath id="SVGID_3_"><use xlink:href="#SVGID_2_" overflow="visible"/></clipPath><path d="M84 91.3c0 3.3-4.3 5.9-9.7 5.9H-9.1c-5.3 0-9.7-2.6-9.7-5.9V40.9c0-3.3 4.3-5.9 9.7-5.9h83.4c5.3 0 9.7 2.6 9.7 5.9v50.4z" opacity=".3" clip-path="url(#SVGID_3_)" fill="#fece33"/><defs><path id="SVGID_4_" d="M156.4 63.3l-14.6-.1c0-.6.1-1.3.1-2 0-3.4-.6-6.7-1.8-9.7 7.1-1.6 12.4-7.9 12.4-15.4 0-8.5-6.8-15.5-15.2-15.8H61.8c-8.5 0-15.4 6.7-15.8 15-11.5 3-20 13.5-20 25.9 0 11.3 7 21 17 24.9 2.2 4.3 5.6 7.8 9.8 10-6.3 4.5-10.4 11.8-10.4 20.1 0 13.2 10.3 23.9 23.3 24.6v.1h60v-.1c13-.7 23.4-11.4 23.4-24.6 0-2.3-.3-4.6-.9-6.8h8.3v-.1c12.2-.6 22-10.7 22-23.1-.1-12.2-9.9-22.2-22.1-22.9z"/></defs><clipPath id="SVGID_5_"><use xlink:href="#SVGID_4_" overflow="visible"/></clipPath><path d="M207.9 131.9c0 3.2-4.3 5.9-9.6 5.9h-82.9c-5.3 0-9.6-2.6-9.6-5.9v-50c0-3.2 4.3-5.9 9.6-5.9h82.9c5.3 0 9.6 2.6 9.6 5.9v50z" opacity=".3" clip-path="url(#SVGID_5_)" fill="#fece33"/><path class="st3" d="M208.1 102.5c0 .9-.7 1.6-1.6 1.6h-41.1c-.9 0-1.6-.7-1.6-1.6 0-.9.7-1.6 1.6-1.6h41.1c.9 0 1.6.7 1.6 1.6z"/><linearGradient id="SVGID_6_" gradientUnits="userSpaceOnUse" x1="132.499" y1="4360.78" x2="176.729" y2="4360.78" gradientTransform="translate(0 -4314.98)"><stop offset="0" stop-color="#e74945"/><stop offset="1" stop-color="#ee542e"/></linearGradient><path d="M176.7 45.8c0 .9-.7 1.6-1.6 1.6H134c-.9 0-1.6-.7-1.6-1.6 0-.9.7-1.6 1.6-1.6h41.1c.9 0 1.6.7 1.6 1.6z" fill="url(#SVGID_6_)"/><linearGradient id="SVGID_7_" gradientUnits="userSpaceOnUse" x1="140.891" y1="4431.88" x2="185.121" y2="4431.88" gradientTransform="translate(0 -4314.98)"><stop offset="0" stop-color="#e74945"/><stop offset="1" stop-color="#ee542e"/></linearGradient><path d="M185.1 116.9c0 .9-.7 1.6-1.6 1.6h-41.1c-.9 0-1.6-.7-1.6-1.6 0-.9.7-1.6 1.6-1.6h41.1c.9.1 1.6.8 1.6 1.6z" fill="url(#SVGID_7_)"/><linearGradient id="SVGID_8_" gradientUnits="userSpaceOnUse" x1="16.647" y1="4382.28" x2="60.879" y2="4382.28" gradientTransform="translate(0 -4314.98)"><stop offset="0" stop-color="#e74945"/><stop offset="1" stop-color="#ee542e"/></linearGradient><path d="M60.9 67.3c0 .9-.7 1.6-1.6 1.6H18.2c-.9 0-1.6-.7-1.6-1.6 0-.9.7-1.6 1.6-1.6h41.1c.9 0 1.6.7 1.6 1.6z" fill="url(#SVGID_8_)"/><path class="st3" d="M45 50c0 .9-.7 1.6-1.6 1.6h-41c-.9 0-1.6-.7-1.6-1.6 0-.9.7-1.6 1.6-1.6h41.1c.8.1 1.5.8 1.5 1.6z"/><path class="st7" d="M158.8 61.5c0 2.3-1.9 4.2-4.2 4.2 2.3 0 4.2 1.9 4.2 4.2 0-2.3 1.9-4.2 4.2-4.2-2.3 0-4.2-1.8-4.2-4.2zM114.5 18.9c0 2.3-1.9 4.2-4.2 4.2 2.3 0 4.2 1.9 4.2 4.2 0-2.3 1.9-4.2 4.2-4.2-2.3 0-4.2-1.8-4.2-4.2zM36.2 93.1c0 2.3-1.9 4.2-4.2 4.2 2.3 0 4.2 1.9 4.2 4.2 0-2.3 1.9-4.2 4.2-4.2-2.3 0-4.2-1.9-4.2-4.2zM80.4 111.2c0 2.3-1.9 4.2-4.2 4.2 2.3 0 4.2 1.9 4.2 4.2 0-2.3 1.9-4.2 4.2-4.2-2.3 0-4.2-1.9-4.2-4.2z"/><linearGradient id="SVGID_9_" gradientUnits="userSpaceOnUse" x1="159.672" y1="4342.28" x2="168.072" y2="4342.28" gradientTransform="translate(0 -4314.98)"><stop offset="0" stop-color="#e74945"/><stop offset="1" stop-color="#ee542e"/></linearGradient><path d="M163.9 23.1c0 2.3-1.9 4.2-4.2 4.2 2.3 0 4.2 1.9 4.2 4.2 0-2.3 1.9-4.2 4.2-4.2-2.3 0-4.2-1.8-4.2-4.2z" fill="url(#SVGID_9_)"/><linearGradient id="SVGID_10_" gradientUnits="userSpaceOnUse" x1="172.534" y1="4444.98" x2="180.934" y2="4444.98" gradientTransform="translate(0 -4314.98)"><stop offset="0" stop-color="#e74945"/><stop offset="1" stop-color="#ee542e"/></linearGradient><path d="M176.7 125.8c0 2.3-1.9 4.2-4.2 4.2 2.3 0 4.2 1.9 4.2 4.2 0-2.3 1.9-4.2 4.2-4.2-2.3 0-4.2-1.9-4.2-4.2z" fill="url(#SVGID_10_)"/><linearGradient id="SVGID_11_" gradientUnits="userSpaceOnUse" x1="77.8" y1="88.65" x2="113.3" y2="88.65" gradientTransform="matrix(1 0 0 -1 0 160)"><stop offset="0" stop-color="#f49d2e"/><stop offset="1" stop-color="#fece33"/></linearGradient><path d="M95.3 101.6H85c-4 0-7.2-3.2-7.2-7.2V48.3c0-4 3.2-7.2 7.2-7.2h21.1c4 0 7.2 3.2 7.2 7.2v46.1c0 4-3.2 7.2-7.2 7.2h-2-8.8z" fill="url(#SVGID_11_)"/><path class="st11" d="M94 94.7h2.6v7.1H94v-7.1z"/><path class="st12" d="M75.1 123.4h-4.9c-6 0-10.9-4.9-10.9-10.9V44.7c0-6 4.9-10.9 10.9-10.9h20.5v2.6H70.2c-4.6 0-8.3 3.7-8.3 8.3v67.8c0 4.6 3.7 8.3 8.3 8.3h4.9v2.6zM120.9 123.4H116v-2.6h4.9c4.6 0 8.3-3.7 8.3-8.3V44.7c0-4.6-3.7-8.3-8.3-8.3h-20.5v-2.6h20.5c6 0 10.9 4.9 10.9 10.9v67.8c0 6-4.9 10.9-10.9 10.9z"/><path class="st11" d="M99.1 86.3c1.9 2 1.9 5.2 0 7.2s-5 2-7 .1l-.1-.1c-1.9-2-1.9-5.2 0-7.2l3.5-3.6 3.6 3.6z"/><linearGradient id="SVGID_12_" gradientUnits="userSpaceOnUse" x1="85.2" y1="124.2" x2="105.8" y2="124.2" gradientTransform="matrix(1 0 0 -1 0 160)"><stop offset="0" stop-color="#523f8f"/><stop offset="1" stop-color="#2997c2"/></linearGradient><path d="M104.5 35.2l1.3 6H85.2l1.3-6 1.1-4.8h15.8l1.1 4.8z" fill="url(#SVGID_12_)"/><linearGradient id="SVGID_13_" gradientUnits="userSpaceOnUse" x1="72.9" y1="118.9" x2="118.1" y2="118.9"><stop offset="0" stop-color="#523f8f"/><stop offset="1" stop-color="#2997c2"/></linearGradient><path d="M87 108.8h25.4c3.2 0 5.7 2.6 5.7 5.7V129H72.9v-14.4c0-3.2 2.6-5.7 5.7-5.7l8.4-.1z" fill="url(#SVGID_13_)"/><path class="st12" d="M95.3 101.6h8.7v7.2H87v-7.2h8.3z"/></svg>