<svg version="1.1" id="Layer_1" xmlns="http://www.w3.org/2000/svg" xmlns:xlink="http://www.w3.org/1999/xlink" x="0" y="0" viewBox="0 0 208.9 158.1" xml:space="preserve"><style>.st6{opacity:.5;fill:#fff;enable-background:new}.st10{fill:#fece33}</style><linearGradient id="SVGID_1_" gradientUnits="userSpaceOnUse" x1="108.45" y1="-1951.18" x2="108.45" y2="-1835.58" gradientTransform="matrix(1 0 0 -1 0 -1814.98)"><stop offset="0" stop-color="#e74945"/><stop offset="1" stop-color="#ee542e"/></linearGradient><path d="M167.3 102.1c13.3-.7 23.8-11.6 23.8-25.1 0-13.4-10.6-24.4-23.8-25.1v-.1h-15.8c0-.7.1-1.4.1-2.1 0-15.6-12.2-28.2-27.6-29v-.1H53.3v.1c-15.3.9-27.5 13.5-27.5 29 0 12.3 7.6 22.8 18.4 27 2.3 4.6 6.1 8.4 10.6 10.9-6.8 4.8-11.3 12.8-11.3 21.8 0 14.3 11.2 25.9 25.3 26.7v.1h87.4c9.4-.4 16.9-8.1 16.9-17.6 0-7.6-4.8-14-11.5-16.5h5.7z" fill="url(#SVGID_1_)"/><defs><path id="SVGID_2_" d="M167.3 102.1c13.3-.7 23.8-11.6 23.8-25.1 0-13.4-10.6-24.4-23.8-25.1v-.1h-15.8c0-.7.1-1.4.1-2.1 0-15.6-12.2-28.2-27.6-29v-.1H53.3v.1c-15.3.9-27.5 13.5-27.5 29 0 12.3 7.6 22.8 18.4 27 2.3 4.6 6.1 8.4 10.6 10.9-6.8 4.8-11.3 12.8-11.3 21.8 0 14.3 11.2 25.9 25.3 26.7v.1h87.4c9.4-.4 16.9-8.1 16.9-17.6 0-7.6-4.8-14-11.5-16.5h5.7z"/></defs><clipPath id="SVGID_3_"><use xlink:href="#SVGID_2_" overflow="visible"/></clipPath><path d="M123.1 113.3c-.6 2.6.7 5.1 0 6.6-.4.8-.8-2.8 1.2 3.4H31C21.8 123.2 8 35 17.2 35h89.2c4.3 6.6-1.5 25.4-1.5 29.5l18.2 48.8z" opacity=".2" clip-path="url(#SVGID_3_)" fill="#fece33"/><linearGradient id="SVGID_4_" gradientUnits="userSpaceOnUse" x1="137.76" y1="-1828.78" x2="146.418" y2="-1828.78" gradientTransform="matrix(1 0 0 -1 0 -1814.98)"><stop offset="0" stop-color="#e74945"/><stop offset="1" stop-color="#ee542e"/></linearGradient><path d="M142.1 9.5c0 2.4-1.9 4.3-4.3 4.3 2.4 0 4.3 1.9 4.3 4.3 0-2.4 1.9-4.3 4.3-4.3-2.4.1-4.3-1.9-4.3-4.3z" fill="url(#SVGID_4_)"/><linearGradient id="SVGID_5_" gradientUnits="userSpaceOnUse" x1="68.172" y1="-1959.78" x2="76.83" y2="-1959.78" gradientTransform="matrix(1 0 0 -1 0 -1814.98)"><stop offset="0" stop-color="#e74945"/><stop offset="1" stop-color="#ee542e"/></linearGradient><path d="M72.5 140.5c0 2.4-1.9 4.3-4.3 4.3 2.4 0 4.3 1.9 4.3 4.3 0-2.4 1.9-4.3 4.3-4.3-2.4 0-4.3-1.9-4.3-4.3z" fill="url(#SVGID_5_)"/><linearGradient id="SVGID_6_" gradientUnits="userSpaceOnUse" x1="15.816" y1="-1849.78" x2="24.474" y2="-1849.78" gradientTransform="matrix(1 0 0 -1 0 -1814.98)"><stop offset="0" stop-color="#e74945"/><stop offset="1" stop-color="#ee542e"/></linearGradient><path d="M20.1 30.5c0 2.4-1.9 4.3-4.3 4.3 2.4 0 4.3 1.9 4.3 4.3 0-2.4 1.9-4.3 4.3-4.3-2.3.1-4.3-1.9-4.3-4.3z" fill="url(#SVGID_6_)"/><linearGradient id="SVGID_7_" gradientUnits="userSpaceOnUse" x1="171.129" y1="-1945.58" x2="179.787" y2="-1945.58" gradientTransform="matrix(1 0 0 -1 0 -1814.98)"><stop offset="0" stop-color="#e74945"/><stop offset="1" stop-color="#ee542e"/></linearGradient><path d="M175.5 126.3c0 2.4-1.9 4.3-4.3 4.3 2.4 0 4.3 1.9 4.3 4.3 0-2.4 1.9-4.3 4.3-4.3-2.4 0-4.3-1.9-4.3-4.3z" fill="url(#SVGID_7_)"/><path class="st6" d="M65.7 30.5c0 2.4-1.9 4.3-4.3 4.3 2.4 0 4.3 1.9 4.3 4.3 0-2.4 1.9-4.3 4.3-4.3-2.4.1-4.3-1.9-4.3-4.3zM161 57.5c0 2.4-1.9 4.3-4.3 4.3 2.4 0 4.3 1.9 4.3 4.3 0-2.4 1.9-4.3 4.3-4.3-2.3 0-4.3-2-4.3-4.3zM57 109.3c0 2.4-1.9 4.3-4.3 4.3 2.4 0 4.3 1.9 4.3 4.3 0-2.4 1.9-4.3 4.3-4.3-2.3 0-4.3-1.9-4.3-4.3zM150.7 98.8c0 2.4-1.9 4.3-4.3 4.3 2.4 0 4.3 1.9 4.3 4.3 0-2.4 1.9-4.3 4.3-4.3-2.3 0-4.3-1.9-4.3-4.3zM36.1 48.1c0 2.4-1.9 4.3-4.3 4.3 2.4 0 4.3 1.9 4.3 4.3 0-2.4 1.9-4.3 4.3-4.3-2.3 0-4.3-1.9-4.3-4.3z"/><linearGradient id="SVGID_10_" gradientUnits="userSpaceOnUse" x1="124.556" y1="-1588.611" x2="170.156" y2="-1588.611" gradientTransform="matrix(1 0 0 -1 -9.615 -1560.911)"><stop offset="0" stop-color="#e74945"/><stop offset="1" stop-color="#ee542e"/></linearGradient><path d="M160.6 27.7c0 .9-.7 1.6-1.6 1.6h-42.4c-.9 0-1.6-.7-1.6-1.6 0-.9.7-1.6 1.6-1.6H159c.8 0 1.6.7 1.6 1.6z" fill="url(#SVGID_10_)"/><linearGradient id="SVGID_11_" gradientUnits="userSpaceOnUse" x1="29.76" y1="-1659.711" x2="75.36" y2="-1659.711" gradientTransform="matrix(1 0 0 -1 -9.615 -1560.911)"><stop offset="0" stop-color="#e74945"/><stop offset="1" stop-color="#ee542e"/></linearGradient><path d="M65.8 98.8c0 .9-.7 1.6-1.6 1.6H21.8c-.9 0-1.6-.7-1.6-1.6 0-.9.7-1.6 1.6-1.6h42.4c.8 0 1.6.7 1.6 1.6z" fill="url(#SVGID_11_)"/><path d="M202.6 86.6c0 .9-.7 1.6-1.6 1.6h-42.4c-.9 0-1.6-.7-1.6-1.6 0-.9.7-1.6 1.6-1.6H201c.9 0 1.6.7 1.6 1.6z" opacity=".5" fill="#c0d6dd"/><linearGradient id="SVGID_12_" gradientUnits="userSpaceOnUse" x1="106.45" y1="55.55" x2="139.65" y2="55.55" gradientTransform="matrix(1 0 0 -1 0 160)"><stop offset="0" stop-color="#f49d2e"/><stop offset="1" stop-color="#fece33"/></linearGradient><path d="M120.3 85.7l19.4 26-17.4-7.3 2 18.8-17.8-23.8 9.5-12.8h.8c1.2.1 2.5-.3 3.5-.9z" fill="url(#SVGID_12_)"/><linearGradient id="SVGID_13_" gradientUnits="userSpaceOnUse" x1="79.225" y1="97.75" x2="133.759" y2="97.75" gradientTransform="matrix(1 0 0 -1 0 160)"><stop offset="0" stop-color="#f49d2e"/><stop offset="1" stop-color="#fece33"/></linearGradient><path d="M132.7 59c1.3 2 1.3 4.5 0 6.5l-1 1.6c-.7 1.1-1 2.3-1 3.6l.1 1.9c.1 2.3-1.1 4.5-3.2 5.6l-1.7.9c-1.1.6-2 1.5-2.6 2.6l-.9 1.7c-1.1 2.1-3.3 3.4-5.6 3.2h-.8l-1.1-.1c-1.3-.1-2.5.3-3.6 1l-1.6 1c-2 1.3-4.5 1.3-6.5 0l-1.6-1c-1.1-.7-2.3-1-3.6-1l-1.9.1c-2.3.1-4.5-1.1-5.6-3.2l-.9-1.7c-.6-1.1-1.5-2-2.6-2.6l-1.7-.9c-2.1-1.1-3.4-3.3-3.2-5.6l.1-1.9c.1-1.3-.3-2.5-1-3.6l-1-1.6c-1.3-2-1.3-4.5 0-6.5l1-1.6c.7-1.1 1-2.3 1-3.6l-.1-1.9c-.1-2.3 1.1-4.5 3.2-5.6l1.7-.9c1.1-.6 2-1.5 2.6-2.6l.9-1.7c1.1-2.1 3.3-3.4 5.6-3.2l1.9.1c1.3.1 2.5-.3 3.6-1l1.6-1c2-1.3 4.5-1.3 6.5 0l1.6 1c1.1.7 2.3 1 3.6 1l1.9-.1c2.3-.1 4.5 1.1 5.6 3.2l.9 1.7c.6 1.1 1.5 2 2.6 2.6l1.7.9c2.1 1.1 3.4 3.3 3.2 5.6l-.1 1.9c-.1 1.3.3 2.5 1 3.6l1 1.6z" fill="url(#SVGID_13_)"/><path d="M106.4 42.8c10.7 0 19.4 8.7 19.4 19.4s-8.7 19.4-19.4 19.4S87 72.9 87 62.2s8.7-19.4 19.4-19.4z" fill="#e8e8e8"/><g><linearGradient id="SVGID_14_" gradientUnits="userSpaceOnUse" x1="73.253" y1="55.6" x2="115.953" y2="55.6" gradientTransform="matrix(1 0 0 -1 0 160)"><stop offset="0" stop-color="#523f8f"/><stop offset="1" stop-color="#2997c2"/></linearGradient><path d="M116 86.5l-9.5 12.8-17.8 23.8 2-18.8-17.4 7.3 19.3-25.9c1 .7 2.3 1 3.5.9l1.9-.1c1.3-.1 2.5.3 3.6 1l1.6 1c2 1.3 4.5 1.3 6.5 0l1.6-1c1.1-.7 2.3-1 3.6-1h1.1z" fill="url(#SVGID_14_)"/><linearGradient id="SVGID_15_" gradientUnits="userSpaceOnUse" x1="94.68" y1="98.1" x2="118.219" y2="98.1" gradientTransform="matrix(1 0 0 -1 0 160)"><stop offset="0" stop-color="#523f8f"/><stop offset="1" stop-color="#2997c2"/></linearGradient><path d="M118.2 59.3l-5.9 5.7 1.4 8.1-7.3-3.8-7.3 3.8 1.4-8.1-5.9-5.7 8.1-1.2 3.6-7.4 3.6 7.4 8.3 1.2z" fill="url(#SVGID_15_)"/></g></svg>