<svg version="1.0" xmlns="http://www.w3.org/2000/svg" xmlns:xlink="http://www.w3.org/1999/xlink" viewBox="0 0 208.9 158.1"><linearGradient id="a" gradientUnits="userSpaceOnUse" x1="102.549" y1="378.301" x2="102.549" y2="493.941" gradientTransform="matrix(1 0 0 -1 0 525.02)"><stop offset="0" stop-color="#e74945"/><stop offset="1" stop-color="#ee5e2e"/></linearGradient><path fill="url(#a)" d="M166.8 87.2c10.8-4.3 18.4-14.7 18.4-27 0-15.5-12.2-28.2-27.5-29v-.1H87.1v.1c-15.4.8-27.6 13.5-27.6 29 0 .7 0 1.4.1 2.1H43.7v.1c-13.3.7-23.8 11.6-23.8 25.1 0 13.4 10.6 24.4 23.8 25.1v.1h9c-.7 2.3-1 4.8-1 7.3 0 14.3 11.3 26 25.4 26.7v.1h65.1v-.1c14.1-.8 25.3-12.4 25.3-26.7 0-9-4.5-17-11.3-21.8 4.5-2.5 8.2-6.3 10.6-11z"/><linearGradient id="b" gradientUnits="userSpaceOnUse" x1="182.75" y1="483.163" x2="191.408" y2="483.163" gradientTransform="matrix(1 0 0 -1 0 525.02)"><stop offset="0" stop-color="#e74945"/><stop offset="1" stop-color="#ee5e2e"/></linearGradient><path fill="url(#b)" d="M187.1 37.5c0 2.4-1.9 4.3-4.3 4.3 2.4 0 4.3 1.9 4.3 4.3 0-2.4 1.9-4.3 4.3-4.3-2.4.1-4.3-1.9-4.3-4.3z"/><linearGradient id="c" gradientUnits="userSpaceOnUse" x1="38.708" y1="402.2" x2="47.366" y2="402.2" gradientTransform="matrix(1 0 0 -1 0 525.02)"><stop offset="0" stop-color="#e74945"/><stop offset="1" stop-color="#ee5e2e"/></linearGradient><path fill="url(#c)" d="M43 118.5c0 2.4-1.9 4.3-4.3 4.3 2.4 0 4.3 1.9 4.3 4.3 0-2.4 1.9-4.3 4.3-4.3-2.3 0-4.3-1.9-4.3-4.3z"/><linearGradient id="d" gradientUnits="userSpaceOnUse" x1="74.211" y1="509.323" x2="82.869" y2="509.323" gradientTransform="matrix(1 0 0 -1 0 525.02)"><stop offset="0" stop-color="#e74945"/><stop offset="1" stop-color="#ee5e2e"/></linearGradient><path fill="url(#d)" d="M78.5 11.4c0 2.4-1.9 4.3-4.3 4.3 2.4 0 4.3 1.9 4.3 4.3 0-2.4 1.9-4.3 4.3-4.3-2.3 0-4.3-1.9-4.3-4.3z"/><linearGradient id="e" gradientUnits="userSpaceOnUse" x1="164.26" y1="424.759" x2="172.918" y2="424.759" gradientTransform="matrix(1 0 0 -1 0 525.02)"><stop offset="0" stop-color="#e74945"/><stop offset="1" stop-color="#ee5e2e"/></linearGradient><path fill="url(#e)" d="M168.6 95.9c0 2.4-1.9 4.3-4.3 4.3 2.4 0 4.3 1.9 4.3 4.3 0-2.4 1.9-4.3 4.3-4.3-2.4.1-4.3-1.9-4.3-4.3z"/><linearGradient id="f" gradientUnits="userSpaceOnUse" x1="165.467" y1="714.953" x2="211.1" y2="714.953" gradientTransform="matrix(1 0 0 -1 -9.615 779.089)"><stop offset="0" stop-color="#e74945"/><stop offset="1" stop-color="#ee5e2e"/></linearGradient><path fill="url(#f)" d="M201.5 64.1c0 .9-.7 1.6-1.6 1.6h-42.4c-.9 0-1.6-.7-1.6-1.6 0-.9.7-1.6 1.6-1.6h42.4c.9 0 1.6.7 1.6 1.6z"/><defs><path id="g" d="M166.8 87.2c10.8-4.3 18.4-14.7 18.4-27 0-15.5-12.2-28.2-27.5-29v-.1H87.1v.1c-15.4.8-27.6 13.5-27.6 29 0 .7 0 1.4.1 2.1H43.7v.1c-13.3.7-23.8 11.6-23.8 25.1 0 13.4 10.6 24.4 23.8 25.1v.1h9c-.7 2.3-1 4.8-1 7.3 0 14.3 11.3 26 25.4 26.7v.1h65.1v-.1c14.1-.8 25.3-12.4 25.3-26.7 0-9-4.5-17-11.3-21.8 4.5-2.5 8.2-6.3 10.6-11z"/></defs><clipPath id="h"><use xlink:href="#g" overflow="visible"/></clipPath><g clip-path="url(#h)"><defs><circle id="i" transform="matrix(1 -.00287 .00287 1 -.23 .338)" cx="117.7" cy="80.5" r="80"/></defs><clipPath id="j"><use xlink:href="#i" overflow="visible"/></clipPath><path opacity=".3" clip-path="url(#j)" fill="#FECE33" d="M137 77.7L177.1-6H54.6l40.2 83.7z"/></g><path opacity=".5" clip-path="url(#h)" fill="#C0D6DD" d="M61.5 93.4c0 .9-.7 1.6-1.6 1.6H17.5c-.9 0-1.6-.7-1.6-1.6 0-.9.7-1.6 1.6-1.6h42.4c.9 0 1.6.7 1.6 1.6z"/><linearGradient id="k" gradientUnits="userSpaceOnUse" x1="23.112" y1="677.2" x2="68.746" y2="677.2" gradientTransform="matrix(1 0 0 -1 -9.615 779.089)"><stop offset="0" stop-color="#e74945"/><stop offset="1" stop-color="#ee5e2e"/></linearGradient><path clip-path="url(#h)" fill="url(#k)" d="M59.1 101.9c0 .9-.7 1.6-1.6 1.6H15.1c-.9 0-1.6-.7-1.6-1.6 0-.9.7-1.6 1.6-1.6h42.4c.9 0 1.6.7 1.6 1.6z"/><linearGradient id="l" gradientUnits="userSpaceOnUse" x1="138.006" y1="648.7" x2="183.641" y2="648.7" gradientTransform="matrix(1 0 0 -1 -9.615 779.089)"><stop offset="0" stop-color="#e74945"/><stop offset="1" stop-color="#ee5e2e"/></linearGradient><path clip-path="url(#h)" fill="url(#l)" d="M174 130.4c0 .9-.7 1.6-1.6 1.6H130c-.9 0-1.6-.7-1.6-1.6 0-.9.7-1.6 1.6-1.6h42.4c.9 0 1.6.7 1.6 1.6z"/><g clip-path="url(#h)"><defs><path id="m" d="M197 84.1c0 44.2-35.8 80-80 80s-80-35.8-80-80 35.8-80 80-80 80 35.9 80 80z"/></defs><clipPath id="n"><use xlink:href="#m" overflow="visible"/></clipPath><g clip-path="url(#n)"><linearGradient id="o" gradientUnits="userSpaceOnUse" x1="116.585" y1="416.133" x2="116.585" y2="459.605" gradientTransform="matrix(1 0 0 -1 0 525.02)"><stop offset="0" stop-color="#57af5e"/><stop offset="1" stop-color="#c1d24d"/></linearGradient><path fill="url(#o)" d="M119.5 75.9s-6-10.1-13.4-10.3c-7.4-.2-15.5 8.5-10.9 19.9 4.7 11.4 20.1 23.4 20.1 23.4s18.6-14.1 20.7-19.2c2.1-5.1 6.9-19.3-1.5-22.4-8.3-3.1-11.1-2-15.1 1.3.1-.1.1 7.3.1 7.3z"/><g fill="#E8E8E8"><path d="M157.9 162.8V93.7c5-19.2 3.5-36 7-44.8 3.8-9.6-3.5-8.8-5.9-2.2-2.6 7.3-5.7 13.3-5.7 26.8-1.7-2.6-2.6-17.2 0-28.3 2.6-11.1-3.9-12.2-6.3-2.6s-1.3 27 1.1 31.2c-4.4-3.9-7.8-15.9-7.2-26.6.7-10.7-5.7-14.6-7 .2-1.3 14.8 5 24.6 7 27.7 0 0-5-12.4-14.2-12.4S113.1 76.3 116 78.2c2.9 1.9 4.4-9.5 11.5-9.2 6.8.2 11.9 9.9 6.6 19.6-5.2 9.7-9.8 12.6-14.3 14.8-4.4 2.2-6.1 8.3 1.6 6.8 7.6-1.4 13.9-6.9 21.2-8.2v60.9"/><path d="M75.6 162.8V93.7c-5-19.2-3.5-36-7-44.8-3.8-9.6 3.5-8.8 5.9-2.2 2.6 7.3 5.7 13.3 5.7 26.8 1.7-2.6 2.6-17.2 0-28.3-2.6-11.1 3.9-12.2 6.3-2.6s1.3 27-1.1 31.2c4.4-3.9 7.8-15.9 7.2-26.6s5.7-14.6 7 .2c1.3 14.8-5 24.6-7 27.7 0 0 5-12.4 14.2-12.4s13.6 13.6 10.7 15.5c-2.9 1.9-4.4-9.5-11.5-9.2-7 0-12.3 9.9-6.8 19.4 4.9 8.5 9.8 12.6 14.3 14.8 4.4 2.2 6.1 8.3-1.6 6.8-7.6-1.4-13.9-6.9-21.2-8.2v60.9"/></g></g></g><path opacity=".5" clip-path="url(#h)" fill="#FFF" d="M106.9 37.5c0 2.4-1.9 4.3-4.3 4.3 2.4 0 4.3 1.9 4.3 4.3 0-2.4 1.9-4.3 4.3-4.3-2.4.1-4.3-1.9-4.3-4.3zM47.4 75.5c0 2.4-1.9 4.3-4.3 4.3 2.4 0 4.3 1.9 4.3 4.3 0-2.4 1.9-4.3 4.3-4.3-2.4 0-4.3-1.9-4.3-4.3zM128.4 114.2c0 2.4-1.9 4.3-4.3 4.3 2.4 0 4.3 1.9 4.3 4.3 0-2.4 1.9-4.3 4.3-4.3-2.4 0-4.3-1.9-4.3-4.3z"/></svg>