<svg version="1.1" id="Layer_1" xmlns="http://www.w3.org/2000/svg" xmlns:xlink="http://www.w3.org/1999/xlink" x="0" y="0" viewBox="0 0 208.9 158.1" xml:space="preserve"><style>.st5{opacity:.5;fill:#fff;enable-background:new}</style><linearGradient id="SVGID_1_" gradientUnits="userSpaceOnUse" x1="-3817.642" y1="-2323.4" x2="-3817.642" y2="-2200.5" gradientTransform="rotate(180 -1852.021 -1091)"><stop offset="0" stop-color="#e74744"/><stop offset="1" stop-color="#ee5e2e"/></linearGradient><path d="M51.5 78.1C41 73.6 33.6 62.5 33.6 49.4c0-16.5 11.8-29.9 26.6-30.8v-.1h68.4v.1c14.9.8 26.7 14.3 26.7 30.8 0 .8 0 1.5-.1 2.3h15.3v.1c12.8.7 23.1 12.4 23.1 26.6 0 14.3-10.2 25.9-23.1 26.6v.1h-8.7c.6 2.5 1 5.1 1 7.8 0 15.2-10.9 27.6-24.6 28.4v.1h-63v-.1c-13.6-.8-24.5-13.2-24.5-28.4 0-9.6 4.3-18 10.9-23.2-4.3-2.6-7.9-6.7-10.1-11.6z" fill="url(#SVGID_1_)"/><defs><path id="SVGID_2_" d="M51.5 78.1C41 73.6 33.6 62.5 33.6 49.4c0-16.5 11.8-29.9 26.6-30.8v-.1h68.4v.1c14.9.8 26.7 14.3 26.7 30.8 0 .8 0 1.5-.1 2.3h15.3v.1c12.8.7 23.1 12.4 23.1 26.6 0 14.3-10.2 25.9-23.1 26.6v.1h-8.7c.6 2.5 1 5.1 1 7.8 0 15.2-10.9 27.6-24.6 28.4v.1h-63v-.1c-13.6-.8-24.5-13.2-24.5-28.4 0-9.6 4.3-18 10.9-23.2-4.3-2.6-7.9-6.7-10.1-11.6z"/></defs><clipPath id="SVGID_3_"><use xlink:href="#SVGID_2_" overflow="visible"/></clipPath><path d="M108.1 125.9H18.3c-9.2 0-10.5-77.8-1.3-77.8h68.7c4.3 6.6 14.8 19 14.8 23.1 0 0 11.3 36.4 7.6 54.7z" opacity=".2" clip-path="url(#SVGID_3_)" fill="#fece33"/><path class="st5" d="M62.3 27.7c0 2.3-1.9 4.2-4.2 4.2 2.3 0 4.2 1.9 4.2 4.2 0-2.3 1.9-4.2 4.2-4.2-2.3 0-4.2-1.9-4.2-4.2zM74.9 58.5c0 2.3-1.9 4.2-4.2 4.2 2.3 0 4.2 1.9 4.2 4.2 0-2.3 1.9-4.2 4.2-4.2-2.3 0-4.2-1.9-4.2-4.2zM136.8 112.1c0 2.3-1.9 4.2-4.2 4.2 2.3 0 4.2 1.9 4.2 4.2 0-2.3 1.9-4.2 4.2-4.2-2.3 0-4.2-1.8-4.2-4.2z"/><linearGradient id="SVGID_6_" gradientUnits="userSpaceOnUse" x1="162.1" y1="-2216.3" x2="170.48" y2="-2216.3" gradientTransform="matrix(1 0 0 -1 0 -2182)"><stop offset="0" stop-color="#e74744"/><stop offset="1" stop-color="#ee5e2e"/></linearGradient><path d="M166.3 30.1c0 2.3-1.9 4.2-4.2 4.2 2.3 0 4.2 1.9 4.2 4.2 0-2.3 1.9-4.2 4.2-4.2-2.3 0-4.2-1.9-4.2-4.2z" fill="url(#SVGID_6_)"/><linearGradient id="SVGID_7_" gradientUnits="userSpaceOnUse" x1="106.923" y1="-2189.9" x2="115.303" y2="-2189.9" gradientTransform="matrix(1 0 0 -1 0 -2182)"><stop offset="0" stop-color="#e74744"/><stop offset="1" stop-color="#ee5e2e"/></linearGradient><path d="M111.1 3.7c0 2.3-1.9 4.2-4.2 4.2 2.3 0 4.2 1.9 4.2 4.2 0-2.3 1.9-4.2 4.2-4.2-2.3-.1-4.2-1.9-4.2-4.2z" fill="url(#SVGID_7_)"/><linearGradient id="SVGID_8_" gradientUnits="userSpaceOnUse" x1="167.627" y1="-2302.5" x2="176.006" y2="-2302.5" gradientTransform="matrix(1 0 0 -1 0 -2182)"><stop offset="0" stop-color="#e74744"/><stop offset="1" stop-color="#ee5e2e"/></linearGradient><path d="M171.8 116.3c0 2.3-1.9 4.2-4.2 4.2 2.3 0 4.2 1.9 4.2 4.2 0-2.3 1.9-4.2 4.2-4.2-2.3 0-4.2-1.9-4.2-4.2z" fill="url(#SVGID_8_)"/><linearGradient id="SVGID_9_" gradientUnits="userSpaceOnUse" x1="66.5" y1="-2332.3" x2="74.88" y2="-2332.3" gradientTransform="matrix(1 0 0 -1 0 -2182)"><stop offset="0" stop-color="#e74744"/><stop offset="1" stop-color="#ee5e2e"/></linearGradient><path d="M70.7 146.1c0 2.3-1.9 4.2-4.2 4.2 2.3 0 4.2 1.9 4.2 4.2 0-2.3 1.9-4.2 4.2-4.2-2.3-.1-4.2-1.9-4.2-4.2z" fill="url(#SVGID_9_)"/><linearGradient id="SVGID_10_" gradientUnits="userSpaceOnUse" x1="37.675" y1="-2267.8" x2="46.055" y2="-2267.8" gradientTransform="matrix(1 0 0 -1 0 -2182)"><stop offset="0" stop-color="#e74744"/><stop offset="1" stop-color="#ee5e2e"/></linearGradient><path d="M41.9 81.6c0 2.3-1.9 4.2-4.2 4.2 2.3 0 4.2 1.9 4.2 4.2 0-2.3 1.9-4.2 4.2-4.2-2.4-.1-4.2-1.9-4.2-4.2z" fill="url(#SVGID_10_)"/><path class="st5" d="M55.6 116.3c0 2.3-1.9 4.2-4.2 4.2 2.3 0 4.2 1.9 4.2 4.2 0-2.3 1.9-4.2 4.2-4.2-2.3 0-4.2-1.9-4.2-4.2z"/><linearGradient id="SVGID_11_" gradientUnits="userSpaceOnUse" x1="19.782" y1="-2233.6" x2="63.981" y2="-2233.6" gradientTransform="matrix(1 0 0 -1 0 -2182)"><stop offset="0" stop-color="#e74744"/><stop offset="1" stop-color="#ee5e2e"/></linearGradient><path d="M63.9 51.6c0 .9-.7 1.6-1.6 1.6h-41c-.9 0-1.6-.7-1.6-1.6 0-.9.7-1.6 1.6-1.6h41c.9 0 1.6.7 1.6 1.6z" fill="url(#SVGID_11_)"/><linearGradient id="SVGID_12_" gradientUnits="userSpaceOnUse" x1="156.9" y1="-2278.8" x2="201.1" y2="-2278.8" gradientTransform="matrix(1 0 0 -1 0 -2182)"><stop offset="0" stop-color="#e74744"/><stop offset="1" stop-color="#ee5e2e"/></linearGradient><path d="M201.1 96.8c0 .9-.7 1.6-1.6 1.6h-41c-.9 0-1.6-.7-1.6-1.6 0-.9.7-1.6 1.6-1.6h41c.9.1 1.6.8 1.6 1.6z" fill="url(#SVGID_12_)"/><path d="M81.9 132.7c0 .9-.7 1.6-1.6 1.6h-41c-.9 0-1.6-.7-1.6-1.6 0-.9.7-1.6 1.6-1.6h41c.9 0 1.6.7 1.6 1.6z" opacity=".5" fill="#bfd6dd"/><linearGradient id="SVGID_13_" gradientUnits="userSpaceOnUse" x1="108.1" y1="61.05" x2="152.2" y2="61.05" gradientTransform="matrix(1 0 0 -1 0 160)"><stop offset="0" stop-color="#f49d2e"/><stop offset="1" stop-color="#fece33"/></linearGradient><path d="M152.1 72l.1.1-44.1 53.8L128.5 72h23.6z" fill="url(#SVGID_13_)"/><linearGradient id="SVGID_14_" gradientUnits="userSpaceOnUse" x1="128.5" y1="60.05" x2="152.1" y2="60.05"><stop offset="0" stop-color="#f49d2e"/><stop offset="1" stop-color="#fece33"/></linearGradient><path d="M128.8 71.3l8.8-23.2L152.1 72h-23.6l.3-.7z" fill="url(#SVGID_14_)"/><linearGradient id="SVGID_15_" gradientUnits="userSpaceOnUse" x1="107.849" y1="100.3" x2="137.549" y2="100.3" gradientTransform="matrix(1 0 0 -1 0 160)"><stop offset="0" stop-color="#f49d2e"/><stop offset="1" stop-color="#fece33"/></linearGradient><path d="M137.6 48.1l-8.8 23.2-20.9-23.2h29.7z" fill="url(#SVGID_15_)"/><linearGradient id="SVGID_16_" gradientUnits="userSpaceOnUse" x1="87.1" y1="60.05" x2="128.7" y2="60.05"><stop offset="0" stop-color="#f49d2e"/><stop offset="1" stop-color="#fece33"/></linearGradient><path d="M107.8 48.1l20.9 23.2-.3.7H87.3l-.2-.6 20.7-23.3z" fill="url(#SVGID_16_)"/><linearGradient id="SVGID_17_" gradientUnits="userSpaceOnUse" x1="87.3" y1="99.05" x2="128.5" y2="99.05"><stop offset="0" stop-color="#f49d2e"/><stop offset="1" stop-color="#fece33"/></linearGradient><path d="M128.5 72l-20.4 53.9-.1.2-.1-.2L87.3 72h41.2z" fill="url(#SVGID_17_)"/><linearGradient id="SVGID_18_" gradientUnits="userSpaceOnUse" x1="78.161" y1="100.25" x2="107.849" y2="100.25" gradientTransform="matrix(1 0 0 -1 0 160)"><stop offset="0" stop-color="#f49d2e"/><stop offset="1" stop-color="#fece33"/></linearGradient><path d="M107.8 48.1L87.1 71.4l-8.9-23.3h29.6z" fill="url(#SVGID_18_)"/><linearGradient id="SVGID_19_" gradientUnits="userSpaceOnUse" x1="63.5" y1="61.05" x2="107.849" y2="61.05" gradientTransform="matrix(1 0 0 -1 0 160)"><stop offset="0" stop-color="#f49d2e"/><stop offset="1" stop-color="#fece33"/></linearGradient><path d="M107.8 125.9L63.5 72.1l.1-.1.2.1h23.5l20.5 53.8z" fill="url(#SVGID_19_)"/><linearGradient id="SVGID_20_" gradientUnits="userSpaceOnUse" x1="63.6" y1="60.05" x2="87.3" y2="60.05"><stop offset="0" stop-color="#f49d2e"/><stop offset="1" stop-color="#fece33"/></linearGradient><path d="M87.1 71.4l.2.6H63.8l-.2-.1 14.6-23.8 8.9 23.3z" fill="url(#SVGID_20_)"/></svg>