<svg version="1.1" id="Layer_1" xmlns="http://www.w3.org/2000/svg" xmlns:xlink="http://www.w3.org/1999/xlink" x="0" y="0" viewBox="0 0 208.9 158.1" xml:space="preserve"><style>.st7{opacity:.5;fill:#fff;enable-background:new}.st12{opacity:.2}.st13{fill:#ffcd2e}.st26{fill:#d9dcdd}.st33{fill:#4b5d63}</style><linearGradient id="SVGID_1_" gradientUnits="userSpaceOnUse" x1="109.9" y1="2500.2" x2="109.9" y2="2355.3" gradientTransform="translate(0 -2342)"><stop offset="0" stop-color="#e74744"/><stop offset="1" stop-color="#ee5b2e"/></linearGradient><path d="M181.9 91.4c12.1-4.8 20.7-16.5 20.7-30.3 0-12.1-6.6-22.7-16.5-28.3.1-.6.1-1.3.1-1.9 0-9.5-7.5-17.2-16.9-17.6h-84c-9 0-16.4 6.7-17.5 15.4h-7.5c-9.7 0-17.6 7.9-17.6 17.6 0 8.4 5.9 15.4 13.8 17.2H43.9v.1c-14.9.8-26.7 13-26.7 28.1S29 119 43.9 119.8v.1H54c-.7 2.6-1.1 5.4-1.1 8.2 0 16.1 12.6 29.1 28.5 30v.1h72.9v-.2c15.8-.9 28.3-13.9 28.3-29.9 0-10.1-5-19-12.7-24.5 5.2-2.7 9.3-7 12-12.2z" fill="url(#SVGID_1_)"/><defs><path id="SVGID_2_" d="M181.9 91.4c12.1-4.8 20.7-16.5 20.7-30.3 0-12.1-6.6-22.7-16.5-28.3.1-.6.1-1.3.1-1.9 0-9.5-7.5-17.2-16.9-17.6h-84c-9 0-16.4 6.7-17.5 15.4h-7.5c-9.7 0-17.6 7.9-17.6 17.6 0 8.4 5.9 15.4 13.8 17.2H43.9v.1c-14.9.8-26.7 13-26.7 28.1S29 119 43.9 119.8v.1H54c-.7 2.6-1.1 5.4-1.1 8.2 0 16.1 12.6 29.1 28.5 30v.1h72.9v-.2c15.8-.9 28.3-13.9 28.3-29.9 0-10.1-5-19-12.7-24.5 5.2-2.7 9.3-7 12-12.2z"/></defs><clipPath id="SVGID_3_"><use xlink:href="#SVGID_2_" overflow="visible"/></clipPath><path d="M119.9 136.1c0 4.2 6.9 8.3-2.4 8.3H-27.2c-9.2 0-16.7-3.4-16.7-7.5V72.5c0-4.2 7.5-39.3 16.7-39.3h147.3c4.3 6.6-.2 102.9-.2 102.9z" opacity=".2" clip-path="url(#SVGID_3_)" fill="#fece33"/><linearGradient id="SVGID_4_" gradientUnits="userSpaceOnUse" x1="200.262" y1="2370.3" x2="208.92" y2="2370.3" gradientTransform="translate(0 -2342)"><stop offset="0" stop-color="#e74744"/><stop offset="1" stop-color="#ee5b2e"/></linearGradient><path d="M204.6 24c0 2.4-1.9 4.3-4.3 4.3 2.4 0 4.3 1.9 4.3 4.3 0-2.4 1.9-4.3 4.3-4.3-2.4 0-4.3-1.9-4.3-4.3z" fill="url(#SVGID_4_)"/><linearGradient id="SVGID_5_" gradientUnits="userSpaceOnUse" x1="34.154" y1="2486.7" x2="42.812" y2="2486.7" gradientTransform="translate(0 -2342)"><stop offset="0" stop-color="#e74744"/><stop offset="1" stop-color="#ee5b2e"/></linearGradient><path d="M38.5 140.4c0 2.4-1.9 4.3-4.3 4.3 2.4 0 4.3 1.9 4.3 4.3 0-2.4 1.9-4.3 4.3-4.3-2.4 0-4.3-1.9-4.3-4.3z" fill="url(#SVGID_5_)"/><linearGradient id="SVGID_6_" gradientUnits="userSpaceOnUse" x1="74.659" y1="2346.35" x2="83.317" y2="2346.35" gradientTransform="translate(0 -2342)"><stop offset="0" stop-color="#e74744"/><stop offset="1" stop-color="#ee5b2e"/></linearGradient><path d="M79 0c0 2.4-1.9 4.3-4.3 4.3 2.3 0 4.3 2 4.3 4.4 0-2.4 1.9-4.3 4.3-4.3-2.4-.1-4.3-2-4.3-4.4z" fill="url(#SVGID_6_)"/><linearGradient id="SVGID_7_" gradientUnits="userSpaceOnUse" x1="195.934" y1="2458.1" x2="204.592" y2="2458.1" gradientTransform="translate(0 -2342)"><stop offset="0" stop-color="#e74744"/><stop offset="1" stop-color="#ee5b2e"/></linearGradient><path d="M200.3 111.8c0 2.4-1.9 4.3-4.3 4.3 2.4 0 4.3 1.9 4.3 4.3 0-2.4 1.9-4.3 4.3-4.3-2.4.1-4.3-1.9-4.3-4.3z" fill="url(#SVGID_7_)"/><linearGradient id="SVGID_8_" gradientUnits="userSpaceOnUse" x1="-574.508" y1="2741.438" x2="-528.828" y2="2741.438" gradientTransform="rotate(-45.001 -3447.812 699.015)"><stop offset="0" stop-color="#e74744"/><stop offset="1" stop-color="#ee5b2e"/></linearGradient><path d="M60.4 79.2c.6.6.6 1.7 0 2.3l-30 30c-.6.6-1.7.6-2.3 0-.6-.6-.6-1.7 0-2.3l30-30c.6-.7 1.6-.7 2.3 0z" fill="url(#SVGID_8_)"/><path class="st7" d="M130.2 120.5c0 2.4-1.9 4.3-4.3 4.3 2.4 0 4.3 1.9 4.3 4.3 0-2.4 1.9-4.3 4.3-4.3-2.4 0-4.3-1.9-4.3-4.3zM155.3 28.9c0 2.4-1.9 4.3-4.3 4.3 2.4 0 4.3 1.9 4.3 4.3 0-2.4 1.9-4.3 4.3-4.3-2.3 0-4.3-1.9-4.3-4.3zM177.6 70c0 2.4-1.9 4.3-4.3 4.3 2.4 0 4.3 1.9 4.3 4.3 0-2.4 1.9-4.3 4.3-4.3-2.4.1-4.3-1.9-4.3-4.3zM79 74.4c0 2.4-1.9 4.3-4.3 4.3 2.4 0 4.3 1.9 4.3 4.3 0-2.4 1.9-4.3 4.3-4.3-2.4 0-4.3-1.9-4.3-4.3z"/><linearGradient id="SVGID_9_" gradientUnits="userSpaceOnUse" x1="38.038" y1="2471.196" x2="83.638" y2="2471.196" gradientTransform="translate(0 -2342)"><stop offset="0" stop-color="#e74744"/><stop offset="1" stop-color="#ee5b2e"/></linearGradient><path d="M83.7 129.2c0 .9-.7 1.6-1.6 1.6H39.7c-.9 0-1.6-.7-1.6-1.6 0-.9.7-1.6 1.6-1.6H82c.9-.1 1.7.7 1.7 1.6z" fill="url(#SVGID_9_)"/><linearGradient id="SVGID_24_" gradientUnits="userSpaceOnUse" x1="0" y1="2410.4" x2="45.6" y2="2410.4" gradientTransform="translate(0 -2342)"><stop offset="0" stop-color="#e74744"/><stop offset="1" stop-color="#ee5b2e"/></linearGradient><path d="M45.6 68.4c0 .9-.7 1.6-1.6 1.6H1.6C.7 70 0 69.3 0 68.4c0-.9.7-1.6 1.6-1.6H44c.9 0 1.6.7 1.6 1.6z" fill="url(#SVGID_24_)"/><linearGradient id="SVGID_25_" gradientUnits="userSpaceOnUse" x1="149.4" y1="2447.8" x2="195" y2="2447.8" gradientTransform="translate(0 -2342)"><stop offset="0" stop-color="#e74744"/><stop offset="1" stop-color="#ee5b2e"/></linearGradient><path d="M195 105.8c0 .9-.7 1.6-1.6 1.6H151c-.9 0-1.6-.7-1.6-1.6 0-.9.7-1.6 1.6-1.6h42.4c.9 0 1.6.7 1.6 1.6z" fill="url(#SVGID_25_)"/><path d="M91.3 22.4c0 .9-.7 1.6-1.6 1.6H47.3c-.9 0-1.6-.7-1.6-1.6 0-.9.7-1.6 1.6-1.6h42.4c.8-.1 1.6.7 1.6 1.6z" opacity=".5" fill="#bfd6dd"/><linearGradient id="SVGID_26_" gradientUnits="userSpaceOnUse" x1="83" y1="69.299" x2="155.215" y2="69.299"><stop offset="0" stop-color="#f79d2a"/><stop offset="1" stop-color="#ffcd2e"/></linearGradient><path d="M144.6 43.8c9.8 9.8 13.2 24.4 8.5 37.5-4.6 13.1-16.4 22.4-30.2 23.9-2.6.3-5.1.3-7.7 0-15.8-1.7-28.6-13.5-31.6-29-3-15.6 4.5-31.3 18.5-38.7s31.3-4.9 42.5 6.3zm-4.9 46.1c11.4-11.4 11.4-29.8 0-41.2-11.4-11.4-29.9-11.4-41.2 0-11.4 11.4-11.4 29.9 0 41.2 11.4 11.4 29.8 11.4 41.2 0z" fill="url(#SVGID_26_)"/><linearGradient id="SVGID_27_" gradientUnits="userSpaceOnUse" x1="89.957" y1="69.291" x2="148.25" y2="69.291"><stop offset="0" stop-color="#e74744"/><stop offset="1" stop-color="#ee5b2e"/></linearGradient><path d="M139.7 48.7c11.4 11.4 11.4 29.8 0 41.2-11.4 11.4-29.8 11.4-41.2 0-11.4-11.4-11.4-29.8 0-41.2 11.4-11.4 29.8-11.4 41.2 0zm-6.3 39.6v-5.2c0-3-2.4-5.3-5.3-5.3h-3.2v-5.3c.2-.2.5-.4.7-.6 1.7-1.7 2.7-4.1 2.7-6.5v-9.8c1.9-1 2.8-3.3 2.8-5.6l-6.6 1c-1.2.2-2.5.1-3.7-.2l-3-.8c-1.1-.3-2.3.2-3 1.2-2.9 1.6-4.7 4.7-4.7 8v6.2c0 2.8 1.2 5.4 3.4 7.2v5.3h-3.2c-3 0-5.3 2.4-5.3 5.3v5.2h28.4z" fill="url(#SVGID_27_)"/><linearGradient id="SVGID_28_" gradientUnits="userSpaceOnUse" x1="104.829" y1="83.047" x2="133.395" y2="83.047"><stop offset="0" stop-color="#56af5e"/><stop offset="1" stop-color="#c1d24d"/></linearGradient><path d="M113.3 77.8c3.3 2.8 8.1 2.9 11.4.1l.1-.1h3.2c3 0 5.3 2.4 5.3 5.3v5.2h-28.6v-5.2c0-3 2.4-5.3 5.3-5.3h3.3z" fill="url(#SVGID_28_)"/><path class="st33" d="M114.7 51.1c.6-1 1.8-1.5 3-1.2l3 .8c1.2.3 2.5.4 3.7.2l6.6-1c0 2.2-.9 4.6-2.8 5.6l-.6.3s-6.5 1-10.7 1.2c-.6 0-1.1.1-1.6.1-.3 0-.5-.1-.7-.3-.2-.2-.3-.4-.3-.7v-3.5c0-.6.2-1.1.4-1.5z"/><path d="M124.9 72.5c-3.3 2.8-8.2 2.8-11.5 0-2.1-1.8-3.3-4.4-3.4-7.2v-5.5c1 .2 3.9.4 6.9-2.8 4.2-.2 10.7-1.2 10.7-1.2l.6-.3v9.8c0 2.4-1 4.8-2.7 6.5-.2.3-.4.5-.6.7z" fill="#f7caa5"/><linearGradient id="SVGID_29_" gradientUnits="userSpaceOnUse" x1="112.795" y1="128.436" x2="125.397" y2="128.436"><stop offset="0" stop-color="#523f8f"/><stop offset="1" stop-color="#2997c2"/></linearGradient><path d="M125.4 138.3c0 3.3-2.6 6.1-6 6.3h-.3c-3.5 0-6.3-2.8-6.3-6.3v-26h12.6v26z" fill="url(#SVGID_29_)"/><path d="M124.9 72.5v5.3l-.1.1c-3.3 2.8-8.1 2.7-11.4-.1v-5.3c3.3 2.8 8.2 2.8 11.5 0z" fill="#edb288"/><linearGradient id="SVGID_30_" gradientUnits="userSpaceOnUse" x1="115.276" y1="108.734" x2="122.969" y2="108.734"><stop offset="0" stop-color="#56af5e"/><stop offset="1" stop-color="#c1d24d"/></linearGradient><path d="M123 112.3h-7.7v-7.1c2.6.3 5.1.3 7.7 0v7.1z" fill="url(#SVGID_30_)"/><path class="st33" d="M116.9 57c-3 3.3-5.9 3-6.9 2.9v-.7c0-3.3 1.8-6.4 4.7-8-.3.4-.4.9-.4 1.4V56c0 .3.1.5.3.7.2.2.4.3.7.3h1.6z"/></svg>