<svg version="1.1" id="Layer_1" xmlns="http://www.w3.org/2000/svg" xmlns:xlink="http://www.w3.org/1999/xlink" x="0" y="0" viewBox="0 0 208.9 158.1" xml:space="preserve"><style>.st6{opacity:.5;fill:#fff;enable-background:new}.st10{fill:#e8e8e8}</style><linearGradient id="SVGID_1_" gradientUnits="userSpaceOnUse" x1="-2287.983" y1="-2321.2" x2="-2287.983" y2="-2205.2" gradientTransform="rotate(180 -1090.841 -1091)"><stop offset="0" stop-color="#e74945"/><stop offset="1" stop-color="#ee4e2e"/></linearGradient><path d="M54.2 64.5l14-.1c0-.6-.1-1.2-.1-1.9 0-3.3.6-6.4 1.7-9.3C63.1 51.7 58 45.7 58 38.4c0-8.2 6.5-14.9 14.6-15.2h72.5c8.1 0 14.8 6.4 15.2 14.4 11.1 2.9 19.2 12.9 19.2 24.9 0 10.9-6.8 20.2-16.3 24-2.1 4.1-5.4 7.5-9.4 9.6 6 4.3 10 11.3 10 19.3 0 12.6-9.9 23-22.4 23.7v.1H83.8v-.1c-12.5-.6-22.5-11-22.5-23.7 0-2.3.3-4.4.9-6.5h-8v-.1c-11.8-.6-21.1-10.3-21.1-22.2 0-11.8 9.4-21.5 21.1-22.1z" fill="url(#SVGID_1_)"/><defs><path id="SVGID_2_" d="M54.2 64.5l14-.1c0-.6-.1-1.2-.1-1.9 0-3.3.6-6.4 1.7-9.3C63.1 51.7 58 45.7 58 38.4c0-8.2 6.5-14.9 14.6-15.2h72.5c8.1 0 14.8 6.4 15.2 14.4 11.1 2.9 19.2 12.9 19.2 24.9 0 10.9-6.8 20.2-16.3 24-2.1 4.1-5.4 7.5-9.4 9.6 6 4.3 10 11.3 10 19.3 0 12.6-9.9 23-22.4 23.7v.1H83.8v-.1c-12.5-.6-22.5-11-22.5-23.7 0-2.3.3-4.4.9-6.5h-8v-.1c-11.8-.6-21.1-10.3-21.1-22.2 0-11.8 9.4-21.5 21.1-22.1z"/></defs><clipPath id="SVGID_3_"><use xlink:href="#SVGID_2_" overflow="visible"/></clipPath><path d="M110.8 114.4c0 4.2 10.8 4.2 1.5 4.2l-148.6 4.1c-9.2 0-16.7-3.4-16.7-7.5V50.8c0-4.2 7.5-7.5 16.7-7.5l132 2.7C100 52.6 92 61.4 92 65.5l18.8 48.9z" opacity=".2" clip-path="url(#SVGID_3_)" fill="#fece33"/><linearGradient id="SVGID_4_" gradientUnits="userSpaceOnUse" x1="162.876" y1="-2201.7" x2="171.534" y2="-2201.7" gradientTransform="matrix(1 0 0 -1 0 -2182)"><stop offset="0" stop-color="#e74945"/><stop offset="1" stop-color="#ee4e2e"/></linearGradient><path d="M167.2 15.4c0 2.4-1.9 4.3-4.3 4.3 2.4 0 4.3 1.9 4.3 4.3 0-2.4 1.9-4.3 4.3-4.3-2.4 0-4.3-1.9-4.3-4.3z" fill="url(#SVGID_4_)"/><linearGradient id="SVGID_5_" gradientUnits="userSpaceOnUse" x1="40.647" y1="-2298.4" x2="49.305" y2="-2298.4" gradientTransform="matrix(1 0 0 -1 0 -2182)"><stop offset="0" stop-color="#e74945"/><stop offset="1" stop-color="#ee4e2e"/></linearGradient><path d="M45 112.1c0 2.4-1.9 4.3-4.3 4.3 2.4 0 4.3 1.9 4.3 4.3 0-2.4 1.9-4.3 4.3-4.3-2.4 0-4.3-2-4.3-4.3z" fill="url(#SVGID_5_)"/><linearGradient id="SVGID_6_" gradientUnits="userSpaceOnUse" x1="102.023" y1="-2328.3" x2="110.681" y2="-2328.3" gradientTransform="matrix(1 0 0 -1 0 -2182)"><stop offset="0" stop-color="#e74945"/><stop offset="1" stop-color="#ee4e2e"/></linearGradient><path d="M106.4 142c0 2.4-1.9 4.3-4.3 4.3 2.4 0 4.3 1.9 4.3 4.3 0-2.4 1.9-4.3 4.3-4.3-2.4 0-4.3-1.9-4.3-4.3z" fill="url(#SVGID_6_)"/><linearGradient id="SVGID_7_" gradientUnits="userSpaceOnUse" x1="36.318" y1="-2229.3" x2="44.976" y2="-2229.3" gradientTransform="matrix(1 0 0 -1 0 -2182)"><stop offset="0" stop-color="#e74945"/><stop offset="1" stop-color="#ee4e2e"/></linearGradient><path d="M40.6 43c0 2.4-1.9 4.3-4.3 4.3 2.4 0 4.3 1.9 4.3 4.3 0-2.4 1.9-4.3 4.3-4.3-2.3.1-4.3-1.9-4.3-4.3z" fill="url(#SVGID_7_)"/><path class="st6" d="M90.8 21.9c0 2.4-1.9 4.3-4.3 4.3 2.4 0 4.3 1.9 4.3 4.3 0-2.4 1.9-4.3 4.3-4.3-2.4 0-4.3-1.9-4.3-4.3zM153.8 33.7c0 2.4-1.9 4.3-4.3 4.3 2.4 0 4.3 1.9 4.3 4.3 0-2.4 1.9-4.3 4.3-4.3-2.3 0-4.3-1.9-4.3-4.3zM66.3 86.6c0 2.4-1.9 4.3-4.3 4.3 2.4 0 4.3 1.9 4.3 4.3 0-2.4 1.9-4.3 4.3-4.3-2.4.1-4.3-1.9-4.3-4.3z"/><linearGradient id="SVGID_8_" gradientUnits="userSpaceOnUse" x1="153.827" y1="-2231" x2="199.427" y2="-2231" gradientTransform="matrix(1 0 0 -1 0 -2182)"><stop offset="0" stop-color="#e74945"/><stop offset="1" stop-color="#ee4e2e"/></linearGradient><path d="M199.5 49c0 .9-.7 1.6-1.6 1.6h-42.4c-.9 0-1.6-.7-1.6-1.6 0-.9.7-1.6 1.6-1.6h42.4c.8 0 1.6.7 1.6 1.6z" fill="url(#SVGID_8_)"/><linearGradient id="SVGID_9_" gradientUnits="userSpaceOnUse" x1="17.83" y1="-2256.596" x2="63.43" y2="-2256.596" gradientTransform="matrix(1 0 0 -1 0 -2182)"><stop offset="0" stop-color="#e74945"/><stop offset="1" stop-color="#ee4e2e"/></linearGradient><path d="M63.5 74.6c0 .9-.7 1.6-1.6 1.6H19.5c-.9 0-1.6-.7-1.6-1.6 0-.9.7-1.6 1.6-1.6h42.4c.8-.1 1.6.7 1.6 1.6z" fill="url(#SVGID_9_)"/><path d="M172.3 124.8c0 .9-.7 1.6-1.6 1.6h-42.4c-.9 0-1.6-.7-1.6-1.6 0-.9.7-1.6 1.6-1.6h42.4c.9-.1 1.6.7 1.6 1.6z" opacity=".5" fill="#c0d6dd"/><path class="st6" d="M144.5 112.1c0 2.4-1.9 4.3-4.3 4.3 2.4 0 4.3 1.9 4.3 4.3 0-2.4 1.9-4.3 4.3-4.3-2.3 0-4.3-2-4.3-4.3z"/><path class="st10" d="M152.8 53.7v12.2h-15.2V53.7c0-4.2 3.4-7.6 7.6-7.6 4.1-.1 7.5 3.3 7.6 7.6z"/><linearGradient id="SVGID_10_" gradientUnits="userSpaceOnUse" x1="82.7" y1="77.2" x2="145.097" y2="77.2" gradientTransform="matrix(1 0 0 -1 0 160)"><stop offset="0" stop-color="#f49d2e"/><stop offset="1" stop-color="#fece33"/></linearGradient><path d="M83 57.4v-4.2c0-1.9.8-3.7 2.1-5.1 1.4-1.3 3.2-2.1 5.1-2.1H145c-4.2 0-7.6 3.4-7.6 7.6v55.8c0 5.6-4.6 10.2-10.2 10.2h-.7c-5.4-.4-9.5-4.8-9.5-10.2v-6.6H82.7v-3.5l.3-41.9zm40.1 19.8V64.8l-13.7-6.7-13.7 6.7v12.4c0 3.2 2.1 7.1 4.7 8.9l9 6.1 9-6.1c2.6-1.8 4.7-5.7 4.7-8.9z" fill="url(#SVGID_10_)"/><path class="st10" d="M126.5 119.7H80.8c-5.7 0-10.2-4.6-10.2-10.2v-6.6H117v6.6c0 5.3 4.2 9.8 9.5 10.2z"/><linearGradient id="SVGID_11_" gradientUnits="userSpaceOnUse" x1="95.7" y1="84.85" x2="123.04" y2="84.85" gradientTransform="matrix(1 0 0 -1 0 160)"><stop offset="0" stop-color="#523f8f"/><stop offset="1" stop-color="#2997c2"/></linearGradient><path d="M123.1 64.8v12.4c0 3.2-2.1 7.1-4.7 8.9l-9 6.1-9-6.1c-2.6-1.8-4.7-5.7-4.7-8.9V64.8l13.7-6.7 13.7 6.7z" fill="url(#SVGID_11_)"/><linearGradient id="SVGID_12_" gradientUnits="userSpaceOnUse" x1="101.65" y1="84.825" x2="117.15" y2="84.825" gradientTransform="matrix(1 0 0 -1 0 160)"><stop offset="0" stop-color="#56af5e"/><stop offset="1" stop-color="#c1d24d"/></linearGradient><path d="M107.7 81.2c-.7 0-1.3-.3-1.8-.8l-3.5-3.5c-1-1-1-2.6 0-3.6s2.6-1 3.6 0l1.7 1.7 5.1-5.1c1-1 2.6-1 3.6 0s1 2.6 0 3.6l-6.9 6.9c-.5.5-1.1.8-1.8.8z" fill="url(#SVGID_12_)"/></svg>